%TF.GenerationSoftware,Altium Limited,Altium Designer,24.1.2 (44)*%
G04 Layer_Color=65535*
%FSLAX45Y45*%
%MOMM*%
%TF.SameCoordinates,BBF04D0A-6D19-432F-97EC-52E110E972BA*%
%TF.FilePolarity,Positive*%
%TF.FileFunction,Legend,Top*%
%TF.Part,Single*%
G01*
G75*
%TA.AperFunction,NonConductor*%
%ADD26C,0.20000*%
%ADD27C,0.25400*%
G36*
X4583392Y2723979D02*
X4584622D01*
X4586097Y2723856D01*
X4587695Y2723733D01*
X4589416Y2723488D01*
X4591260Y2723242D01*
X4593227Y2722996D01*
X4597407Y2722135D01*
X4601587Y2721029D01*
X4605767Y2719554D01*
X4605890D01*
X4606259Y2719308D01*
X4606750Y2719062D01*
X4607488Y2718693D01*
X4608471Y2718201D01*
X4609455Y2717710D01*
X4611791Y2716234D01*
X4614495Y2714267D01*
X4617200Y2712055D01*
X4619904Y2709350D01*
X4622240Y2706277D01*
X4622363Y2706154D01*
X4622486Y2705908D01*
X4622732Y2705416D01*
X4623101Y2704801D01*
X4623592Y2703941D01*
X4624084Y2702957D01*
X4624576Y2701851D01*
X4625191Y2700499D01*
X4625805Y2699146D01*
X4626297Y2697671D01*
X4627281Y2694229D01*
X4628141Y2690541D01*
X4628387Y2688574D01*
X4628510Y2686484D01*
X4612528Y2685254D01*
Y2685377D01*
X4612405Y2685746D01*
Y2686361D01*
X4612159Y2687221D01*
X4612036Y2688205D01*
X4611668Y2689311D01*
X4611299Y2690541D01*
X4610930Y2691893D01*
X4609824Y2694843D01*
X4608225Y2697794D01*
X4607242Y2699269D01*
X4606259Y2700621D01*
X4605029Y2701974D01*
X4603677Y2703203D01*
X4603554Y2703326D01*
X4603308Y2703449D01*
X4602939Y2703818D01*
X4602325Y2704187D01*
X4601587Y2704678D01*
X4600603Y2705170D01*
X4599497Y2705662D01*
X4598145Y2706277D01*
X4596669Y2706891D01*
X4595071Y2707383D01*
X4593350Y2707875D01*
X4591383Y2708366D01*
X4589170Y2708735D01*
X4586958Y2709104D01*
X4584376Y2709227D01*
X4581794Y2709350D01*
X4580319D01*
X4579336Y2709227D01*
X4578106D01*
X4576631Y2709104D01*
X4575033Y2708858D01*
X4573435Y2708612D01*
X4569747Y2707998D01*
X4566181Y2707014D01*
X4564337Y2706277D01*
X4562739Y2705539D01*
X4561141Y2704678D01*
X4559789Y2703695D01*
X4559666D01*
X4559543Y2703449D01*
X4558682Y2702711D01*
X4557576Y2701482D01*
X4556346Y2700007D01*
X4555117Y2698040D01*
X4554011Y2695704D01*
X4553150Y2693245D01*
X4553027Y2691893D01*
X4552904Y2690418D01*
Y2690295D01*
Y2690172D01*
Y2689803D01*
X4553027Y2689311D01*
X4553150Y2687959D01*
X4553519Y2686484D01*
X4554134Y2684640D01*
X4554871Y2682796D01*
X4556101Y2680952D01*
X4557699Y2679231D01*
X4557822D01*
X4557945Y2678985D01*
X4558313Y2678739D01*
X4558805Y2678493D01*
X4559420Y2678124D01*
X4560280Y2677632D01*
X4561387Y2677018D01*
X4562616Y2676403D01*
X4564214Y2675788D01*
X4565935Y2675051D01*
X4568025Y2674313D01*
X4570361Y2673576D01*
X4572943Y2672715D01*
X4575893Y2671854D01*
X4579213Y2670994D01*
X4582778Y2670133D01*
X4583024D01*
X4583638Y2669887D01*
X4584745Y2669642D01*
X4586097Y2669396D01*
X4587695Y2669027D01*
X4589662Y2668535D01*
X4591752Y2668043D01*
X4593965Y2667429D01*
X4598636Y2666199D01*
X4603185Y2664847D01*
X4605398Y2664109D01*
X4607365Y2663495D01*
X4609209Y2662757D01*
X4610807Y2662143D01*
X4610930D01*
X4611299Y2661897D01*
X4611914Y2661651D01*
X4612651Y2661282D01*
X4613512Y2660790D01*
X4614495Y2660176D01*
X4616954Y2658700D01*
X4619536Y2656856D01*
X4622240Y2654643D01*
X4624822Y2652185D01*
X4625928Y2650832D01*
X4627035Y2649357D01*
X4627158Y2649234D01*
X4627281Y2648988D01*
X4627526Y2648620D01*
X4627895Y2648005D01*
X4628264Y2647267D01*
X4628756Y2646407D01*
X4629248Y2645300D01*
X4629739Y2644194D01*
X4630600Y2641612D01*
X4631460Y2638539D01*
X4632075Y2635097D01*
X4632321Y2633253D01*
Y2631409D01*
Y2631286D01*
Y2630917D01*
Y2630425D01*
X4632198Y2629687D01*
Y2628827D01*
X4632075Y2627720D01*
X4631829Y2626614D01*
X4631583Y2625262D01*
X4630969Y2622311D01*
X4629862Y2619115D01*
X4628510Y2615796D01*
X4627526Y2614197D01*
X4626543Y2612476D01*
X4626420Y2612353D01*
X4626297Y2612108D01*
X4625928Y2611616D01*
X4625437Y2611001D01*
X4624822Y2610264D01*
X4624207Y2609403D01*
X4623347Y2608419D01*
X4622363Y2607436D01*
X4621134Y2606330D01*
X4619904Y2605223D01*
X4618552Y2604117D01*
X4617077Y2602887D01*
X4613758Y2600675D01*
X4609947Y2598708D01*
X4609824D01*
X4609455Y2598462D01*
X4608840Y2598216D01*
X4608103Y2597970D01*
X4606996Y2597601D01*
X4605890Y2597109D01*
X4604414Y2596741D01*
X4602939Y2596249D01*
X4601218Y2595757D01*
X4599374Y2595388D01*
X4597284Y2594897D01*
X4595194Y2594528D01*
X4590646Y2594036D01*
X4585728Y2593790D01*
X4584130D01*
X4582901Y2593913D01*
X4581425D01*
X4579704Y2594036D01*
X4577860Y2594159D01*
X4575770Y2594405D01*
X4573558Y2594651D01*
X4571222Y2595019D01*
X4566427Y2595880D01*
X4561633Y2597109D01*
X4559297Y2597847D01*
X4557084Y2598708D01*
X4556961Y2598830D01*
X4556592Y2598953D01*
X4555978Y2599199D01*
X4555240Y2599691D01*
X4554257Y2600183D01*
X4553027Y2600797D01*
X4551798Y2601535D01*
X4550446Y2602519D01*
X4547618Y2604608D01*
X4544545Y2607190D01*
X4541594Y2610264D01*
X4538890Y2613706D01*
X4538767Y2613829D01*
X4538644Y2614197D01*
X4538275Y2614689D01*
X4537906Y2615427D01*
X4537414Y2616410D01*
X4536800Y2617517D01*
X4536185Y2618869D01*
X4535570Y2620344D01*
X4534956Y2621942D01*
X4534341Y2623664D01*
X4533849Y2625508D01*
X4533235Y2627597D01*
X4532497Y2631900D01*
X4532251Y2634113D01*
X4532128Y2636449D01*
X4547864Y2637801D01*
Y2637678D01*
Y2637432D01*
X4547987Y2636941D01*
X4548110Y2636203D01*
X4548233Y2635342D01*
X4548479Y2634482D01*
X4548970Y2632269D01*
X4549585Y2629810D01*
X4550568Y2627229D01*
X4551675Y2624647D01*
X4553027Y2622188D01*
Y2622065D01*
X4553273Y2621942D01*
X4553765Y2621205D01*
X4554748Y2620098D01*
X4556101Y2618746D01*
X4557822Y2617148D01*
X4560035Y2615550D01*
X4562616Y2613829D01*
X4565567Y2612353D01*
X4565690D01*
X4565935Y2612230D01*
X4566427Y2611985D01*
X4567042Y2611739D01*
X4567902Y2611493D01*
X4568886Y2611247D01*
X4569992Y2610878D01*
X4571222Y2610509D01*
X4572574Y2610141D01*
X4574049Y2609895D01*
X4577369Y2609280D01*
X4581057Y2608788D01*
X4584991Y2608665D01*
X4586589D01*
X4587449Y2608788D01*
X4588433D01*
X4590646Y2609034D01*
X4593227Y2609403D01*
X4596055Y2609895D01*
X4598882Y2610509D01*
X4601710Y2611493D01*
X4601833D01*
X4602079Y2611616D01*
X4602447Y2611739D01*
X4602939Y2611985D01*
X4604292Y2612599D01*
X4605890Y2613583D01*
X4607611Y2614689D01*
X4609455Y2615919D01*
X4611176Y2617517D01*
X4612651Y2619238D01*
X4612774Y2619484D01*
X4613266Y2620098D01*
X4613758Y2621082D01*
X4614495Y2622434D01*
X4615110Y2624032D01*
X4615725Y2625876D01*
X4616093Y2627843D01*
X4616216Y2630056D01*
Y2630179D01*
Y2630302D01*
Y2631040D01*
X4616093Y2632146D01*
X4615848Y2633621D01*
X4615356Y2635220D01*
X4614741Y2636941D01*
X4613881Y2638662D01*
X4612774Y2640383D01*
X4612651Y2640629D01*
X4612159Y2641120D01*
X4611299Y2641981D01*
X4610070Y2642964D01*
X4608471Y2644194D01*
X4606504Y2645423D01*
X4604169Y2646653D01*
X4601341Y2647759D01*
X4601095Y2647882D01*
X4600726Y2648005D01*
X4600235Y2648128D01*
X4599620Y2648374D01*
X4598882Y2648620D01*
X4597899Y2648988D01*
X4596669Y2649357D01*
X4595317Y2649726D01*
X4593719Y2650218D01*
X4591875Y2650709D01*
X4589785Y2651201D01*
X4587449Y2651816D01*
X4584868Y2652431D01*
X4582040Y2653168D01*
X4578967Y2653906D01*
X4578721D01*
X4578229Y2654152D01*
X4577369Y2654275D01*
X4576139Y2654643D01*
X4574787Y2655012D01*
X4573066Y2655381D01*
X4571345Y2655873D01*
X4569378Y2656487D01*
X4565444Y2657717D01*
X4561387Y2658946D01*
X4559420Y2659684D01*
X4557699Y2660421D01*
X4556101Y2661036D01*
X4554625Y2661774D01*
X4554502D01*
X4554257Y2662020D01*
X4553765Y2662265D01*
X4553150Y2662634D01*
X4552413Y2663126D01*
X4551552Y2663618D01*
X4549585Y2665093D01*
X4547372Y2666814D01*
X4545159Y2668781D01*
X4543069Y2671117D01*
X4541225Y2673576D01*
Y2673698D01*
X4540979Y2673944D01*
X4540857Y2674313D01*
X4540488Y2674805D01*
X4540242Y2675420D01*
X4539873Y2676280D01*
X4539013Y2678124D01*
X4538152Y2680460D01*
X4537537Y2683165D01*
X4537046Y2686115D01*
X4536800Y2689311D01*
Y2689434D01*
Y2689680D01*
Y2690295D01*
X4536923Y2690910D01*
Y2691770D01*
X4537046Y2692754D01*
X4537291Y2693860D01*
X4537537Y2695089D01*
X4538152Y2697794D01*
X4539135Y2700867D01*
X4540488Y2703941D01*
X4541225Y2705539D01*
X4542209Y2707137D01*
X4542332Y2707260D01*
X4542455Y2707506D01*
X4542824Y2707998D01*
X4543192Y2708489D01*
X4543807Y2709227D01*
X4544422Y2709965D01*
X4546266Y2711809D01*
X4548479Y2713899D01*
X4551183Y2715988D01*
X4554257Y2718078D01*
X4557945Y2719799D01*
X4558068D01*
X4558436Y2720045D01*
X4559051Y2720168D01*
X4559789Y2720537D01*
X4560772Y2720783D01*
X4561879Y2721152D01*
X4563231Y2721521D01*
X4564706Y2722012D01*
X4566427Y2722381D01*
X4568148Y2722750D01*
X4570115Y2723119D01*
X4572082Y2723488D01*
X4576385Y2723979D01*
X4581057Y2724102D01*
X4582409D01*
X4583392Y2723979D01*
D02*
G37*
G36*
X4079478Y2595880D02*
X4062758D01*
Y2655258D01*
X3997356D01*
Y2595880D01*
X3980637D01*
Y2721889D01*
X3997356D01*
Y2670133D01*
X4062758D01*
Y2721889D01*
X4079478D01*
Y2595880D01*
D02*
G37*
G36*
X3929988D02*
X3913760D01*
X3887329Y2691893D01*
Y2692016D01*
X3887206Y2692385D01*
X3886960Y2692999D01*
X3886837Y2693860D01*
X3886468Y2694721D01*
X3886222Y2695827D01*
X3885485Y2698286D01*
X3884870Y2700744D01*
X3884132Y2703203D01*
X3883887Y2704310D01*
X3883641Y2705293D01*
X3883395Y2706031D01*
X3883272Y2706645D01*
Y2706522D01*
X3883149Y2706277D01*
X3883026Y2705785D01*
X3882903Y2705170D01*
X3882780Y2704432D01*
X3882534Y2703572D01*
X3882043Y2701482D01*
X3881428Y2699269D01*
X3880813Y2696688D01*
X3880076Y2694229D01*
X3879461Y2691893D01*
X3852907Y2595880D01*
X3835696D01*
X3802380Y2721889D01*
X3819468D01*
X3838646Y2639276D01*
Y2639153D01*
X3838769Y2638662D01*
X3838892Y2638047D01*
X3839138Y2637064D01*
X3839384Y2635834D01*
X3839753Y2634482D01*
X3840121Y2632884D01*
X3840490Y2631163D01*
X3840859Y2629319D01*
X3841351Y2627229D01*
X3842211Y2622926D01*
X3843072Y2618254D01*
X3843932Y2613460D01*
Y2613706D01*
X3844178Y2614320D01*
X3844424Y2615304D01*
X3844670Y2616656D01*
X3845162Y2618254D01*
X3845531Y2619975D01*
X3846022Y2621942D01*
X3846514Y2623909D01*
X3847498Y2627966D01*
X3847989Y2629933D01*
X3848481Y2631777D01*
X3848850Y2633375D01*
X3849219Y2634851D01*
X3849464Y2635957D01*
X3849710Y2636695D01*
X3873683Y2721889D01*
X3893721D01*
X3911793Y2658086D01*
Y2657963D01*
X3911916Y2657840D01*
Y2657471D01*
X3912039Y2656979D01*
X3912408Y2655750D01*
X3912899Y2654029D01*
X3913514Y2651939D01*
X3914129Y2649480D01*
X3914744Y2646653D01*
X3915604Y2643579D01*
X3916342Y2640260D01*
X3917202Y2636818D01*
X3917940Y2633130D01*
X3918800Y2629196D01*
X3920276Y2621328D01*
X3921628Y2613460D01*
Y2613583D01*
X3921751Y2613952D01*
X3921874Y2614689D01*
X3922120Y2615550D01*
X3922366Y2616656D01*
X3922611Y2618008D01*
X3922980Y2619607D01*
X3923349Y2621328D01*
X3923841Y2623295D01*
X3924333Y2625385D01*
X3924824Y2627597D01*
X3925316Y2630056D01*
X3925931Y2632638D01*
X3926668Y2635220D01*
X3928021Y2640875D01*
X3947690Y2721889D01*
X3964533D01*
X3929988Y2595880D01*
D02*
G37*
G36*
X4831354Y2640137D02*
X4848319D01*
Y2625999D01*
X4831354D01*
Y2595880D01*
X4815864D01*
Y2625999D01*
X4761158D01*
Y2640137D01*
X4818692Y2721889D01*
X4831354D01*
Y2640137D01*
D02*
G37*
G36*
X4708172Y2721766D02*
X4709648D01*
X4712721Y2721644D01*
X4715917Y2721398D01*
X4718991Y2721029D01*
X4720466Y2720906D01*
X4721695Y2720660D01*
X4721818D01*
X4722064Y2720537D01*
X4722556D01*
X4723294Y2720291D01*
X4724031Y2720168D01*
X4725015Y2719922D01*
X4727105Y2719308D01*
X4729563Y2718570D01*
X4732268Y2717464D01*
X4734850Y2716234D01*
X4737308Y2714759D01*
X4737431D01*
X4737554Y2714513D01*
X4738292Y2714021D01*
X4739521Y2713038D01*
X4740873Y2711686D01*
X4742472Y2709842D01*
X4744193Y2707875D01*
X4745914Y2705416D01*
X4747389Y2702588D01*
Y2702466D01*
X4747512Y2702220D01*
X4747758Y2701851D01*
X4748004Y2701236D01*
X4748250Y2700499D01*
X4748618Y2699638D01*
X4748987Y2698654D01*
X4749356Y2697548D01*
X4750094Y2694966D01*
X4750708Y2692016D01*
X4751200Y2688820D01*
X4751323Y2685377D01*
Y2685254D01*
Y2684640D01*
X4751200Y2683779D01*
Y2682673D01*
X4750954Y2681321D01*
X4750831Y2679722D01*
X4750462Y2678001D01*
X4750094Y2676034D01*
X4749479Y2673944D01*
X4748864Y2671732D01*
X4748004Y2669519D01*
X4747020Y2667183D01*
X4745791Y2664847D01*
X4744439Y2662634D01*
X4742840Y2660421D01*
X4740996Y2658209D01*
X4740873Y2658086D01*
X4740505Y2657717D01*
X4739890Y2657225D01*
X4739029Y2656487D01*
X4737800Y2655627D01*
X4736325Y2654766D01*
X4734604Y2653660D01*
X4732514Y2652676D01*
X4730178Y2651693D01*
X4727473Y2650709D01*
X4724523Y2649726D01*
X4721081Y2648865D01*
X4717393Y2648128D01*
X4713336Y2647636D01*
X4708910Y2647267D01*
X4704116Y2647144D01*
X4671783D01*
Y2595880D01*
X4655064D01*
Y2721889D01*
X4706820D01*
X4708172Y2721766D01*
D02*
G37*
G36*
X4358051Y2610755D02*
X4420010D01*
Y2595880D01*
X4341331D01*
Y2721889D01*
X4358051D01*
Y2610755D01*
D02*
G37*
G36*
X4316007Y2707014D02*
X4241630D01*
Y2668535D01*
X4311335D01*
Y2653660D01*
X4241630D01*
Y2610755D01*
X4318957D01*
Y2595880D01*
X4224911D01*
Y2721889D01*
X4316007D01*
Y2707014D01*
D02*
G37*
G36*
X4198603D02*
X4124226D01*
Y2668535D01*
X4193931D01*
Y2653660D01*
X4124226D01*
Y2610755D01*
X4201553D01*
Y2595880D01*
X4107507D01*
Y2721889D01*
X4198603D01*
Y2707014D01*
D02*
G37*
G36*
X4525981Y2560843D02*
X4423576D01*
Y2572030D01*
X4525981D01*
Y2560843D01*
D02*
G37*
G36*
X6369012Y2541099D02*
X6370242D01*
X6371717Y2540976D01*
X6373315Y2540853D01*
X6375036Y2540608D01*
X6376880Y2540362D01*
X6378847Y2540116D01*
X6383027Y2539255D01*
X6387207Y2538149D01*
X6391387Y2536674D01*
X6391510D01*
X6391879Y2536428D01*
X6392370Y2536182D01*
X6393108Y2535813D01*
X6394091Y2535321D01*
X6395075Y2534830D01*
X6397411Y2533354D01*
X6400115Y2531387D01*
X6402820Y2529175D01*
X6405524Y2526470D01*
X6407860Y2523397D01*
X6407983Y2523274D01*
X6408106Y2523028D01*
X6408352Y2522536D01*
X6408721Y2521921D01*
X6409212Y2521061D01*
X6409704Y2520077D01*
X6410196Y2518971D01*
X6410811Y2517619D01*
X6411425Y2516266D01*
X6411917Y2514791D01*
X6412901Y2511349D01*
X6413761Y2507661D01*
X6414007Y2505694D01*
X6414130Y2503604D01*
X6398148Y2502374D01*
Y2502497D01*
X6398025Y2502866D01*
Y2503481D01*
X6397779Y2504341D01*
X6397656Y2505325D01*
X6397288Y2506431D01*
X6396919Y2507661D01*
X6396550Y2509013D01*
X6395444Y2511963D01*
X6393845Y2514914D01*
X6392862Y2516389D01*
X6391879Y2517741D01*
X6390649Y2519094D01*
X6389297Y2520323D01*
X6389174Y2520446D01*
X6388928Y2520569D01*
X6388559Y2520938D01*
X6387945Y2521307D01*
X6387207Y2521798D01*
X6386223Y2522290D01*
X6385117Y2522782D01*
X6383765Y2523397D01*
X6382289Y2524011D01*
X6380691Y2524503D01*
X6378970Y2524995D01*
X6377003Y2525486D01*
X6374790Y2525855D01*
X6372578Y2526224D01*
X6369996Y2526347D01*
X6367414Y2526470D01*
X6365939D01*
X6364956Y2526347D01*
X6363726D01*
X6362251Y2526224D01*
X6360653Y2525978D01*
X6359055Y2525732D01*
X6355367Y2525118D01*
X6351801Y2524134D01*
X6349957Y2523397D01*
X6348359Y2522659D01*
X6346761Y2521798D01*
X6345409Y2520815D01*
X6345286D01*
X6345163Y2520569D01*
X6344302Y2519831D01*
X6343196Y2518602D01*
X6341966Y2517127D01*
X6340737Y2515160D01*
X6339631Y2512824D01*
X6338770Y2510365D01*
X6338647Y2509013D01*
X6338524Y2507538D01*
Y2507415D01*
Y2507292D01*
Y2506923D01*
X6338647Y2506431D01*
X6338770Y2505079D01*
X6339139Y2503604D01*
X6339754Y2501760D01*
X6340491Y2499916D01*
X6341721Y2498072D01*
X6343319Y2496351D01*
X6343442D01*
X6343565Y2496105D01*
X6343933Y2495859D01*
X6344425Y2495613D01*
X6345040Y2495244D01*
X6345900Y2494752D01*
X6347007Y2494138D01*
X6348236Y2493523D01*
X6349834Y2492908D01*
X6351555Y2492171D01*
X6353645Y2491433D01*
X6355981Y2490696D01*
X6358563Y2489835D01*
X6361513Y2488974D01*
X6364833Y2488114D01*
X6368398Y2487253D01*
X6368644D01*
X6369258Y2487007D01*
X6370365Y2486762D01*
X6371717Y2486516D01*
X6373315Y2486147D01*
X6375282Y2485655D01*
X6377372Y2485163D01*
X6379585Y2484549D01*
X6384256Y2483319D01*
X6388805Y2481967D01*
X6391018Y2481229D01*
X6392985Y2480615D01*
X6394829Y2479877D01*
X6396427Y2479263D01*
X6396550D01*
X6396919Y2479017D01*
X6397534Y2478771D01*
X6398271Y2478402D01*
X6399132Y2477910D01*
X6400115Y2477296D01*
X6402574Y2475820D01*
X6405156Y2473976D01*
X6407860Y2471763D01*
X6410442Y2469305D01*
X6411548Y2467952D01*
X6412655Y2466477D01*
X6412778Y2466354D01*
X6412901Y2466108D01*
X6413146Y2465740D01*
X6413515Y2465125D01*
X6413884Y2464387D01*
X6414376Y2463527D01*
X6414868Y2462420D01*
X6415359Y2461314D01*
X6416220Y2458732D01*
X6417080Y2455659D01*
X6417695Y2452217D01*
X6417941Y2450373D01*
Y2448529D01*
Y2448406D01*
Y2448037D01*
Y2447545D01*
X6417818Y2446807D01*
Y2445947D01*
X6417695Y2444840D01*
X6417449Y2443734D01*
X6417203Y2442382D01*
X6416589Y2439431D01*
X6415482Y2436235D01*
X6414130Y2432916D01*
X6413146Y2431317D01*
X6412163Y2429596D01*
X6412040Y2429473D01*
X6411917Y2429228D01*
X6411548Y2428736D01*
X6411057Y2428121D01*
X6410442Y2427384D01*
X6409827Y2426523D01*
X6408967Y2425539D01*
X6407983Y2424556D01*
X6406754Y2423450D01*
X6405524Y2422343D01*
X6404172Y2421237D01*
X6402697Y2420007D01*
X6399378Y2417795D01*
X6395567Y2415828D01*
X6395444D01*
X6395075Y2415582D01*
X6394460Y2415336D01*
X6393723Y2415090D01*
X6392616Y2414721D01*
X6391510Y2414229D01*
X6390034Y2413861D01*
X6388559Y2413369D01*
X6386838Y2412877D01*
X6384994Y2412508D01*
X6382904Y2412017D01*
X6380814Y2411648D01*
X6376266Y2411156D01*
X6371348Y2410910D01*
X6369750D01*
X6368521Y2411033D01*
X6367045D01*
X6365324Y2411156D01*
X6363480Y2411279D01*
X6361390Y2411525D01*
X6359178Y2411771D01*
X6356842Y2412139D01*
X6352047Y2413000D01*
X6347253Y2414229D01*
X6344917Y2414967D01*
X6342704Y2415828D01*
X6342581Y2415950D01*
X6342212Y2416073D01*
X6341598Y2416319D01*
X6340860Y2416811D01*
X6339877Y2417303D01*
X6338647Y2417917D01*
X6337418Y2418655D01*
X6336066Y2419639D01*
X6333238Y2421728D01*
X6330165Y2424310D01*
X6327214Y2427384D01*
X6324510Y2430826D01*
X6324387Y2430949D01*
X6324264Y2431317D01*
X6323895Y2431809D01*
X6323526Y2432547D01*
X6323034Y2433530D01*
X6322420Y2434637D01*
X6321805Y2435989D01*
X6321190Y2437464D01*
X6320576Y2439062D01*
X6319961Y2440784D01*
X6319469Y2442628D01*
X6318855Y2444717D01*
X6318117Y2449020D01*
X6317871Y2451233D01*
X6317748Y2453569D01*
X6333484Y2454921D01*
Y2454798D01*
Y2454552D01*
X6333607Y2454061D01*
X6333730Y2453323D01*
X6333853Y2452462D01*
X6334099Y2451602D01*
X6334590Y2449389D01*
X6335205Y2446930D01*
X6336188Y2444349D01*
X6337295Y2441767D01*
X6338647Y2439308D01*
Y2439185D01*
X6338893Y2439062D01*
X6339385Y2438325D01*
X6340368Y2437218D01*
X6341721Y2435866D01*
X6343442Y2434268D01*
X6345655Y2432670D01*
X6348236Y2430949D01*
X6351187Y2429473D01*
X6351310D01*
X6351555Y2429350D01*
X6352047Y2429105D01*
X6352662Y2428859D01*
X6353522Y2428613D01*
X6354506Y2428367D01*
X6355612Y2427998D01*
X6356842Y2427629D01*
X6358194Y2427261D01*
X6359669Y2427015D01*
X6362989Y2426400D01*
X6366677Y2425908D01*
X6370611Y2425785D01*
X6372209D01*
X6373069Y2425908D01*
X6374053D01*
X6376266Y2426154D01*
X6378847Y2426523D01*
X6381675Y2427015D01*
X6384502Y2427629D01*
X6387330Y2428613D01*
X6387453D01*
X6387699Y2428736D01*
X6388067Y2428859D01*
X6388559Y2429105D01*
X6389912Y2429719D01*
X6391510Y2430703D01*
X6393231Y2431809D01*
X6395075Y2433039D01*
X6396796Y2434637D01*
X6398271Y2436358D01*
X6398394Y2436604D01*
X6398886Y2437218D01*
X6399378Y2438202D01*
X6400115Y2439554D01*
X6400730Y2441152D01*
X6401345Y2442996D01*
X6401713Y2444963D01*
X6401836Y2447176D01*
Y2447299D01*
Y2447422D01*
Y2448160D01*
X6401713Y2449266D01*
X6401468Y2450741D01*
X6400976Y2452340D01*
X6400361Y2454061D01*
X6399501Y2455782D01*
X6398394Y2457503D01*
X6398271Y2457749D01*
X6397779Y2458240D01*
X6396919Y2459101D01*
X6395690Y2460084D01*
X6394091Y2461314D01*
X6392124Y2462543D01*
X6389789Y2463773D01*
X6386961Y2464879D01*
X6386715Y2465002D01*
X6386346Y2465125D01*
X6385855Y2465248D01*
X6385240Y2465494D01*
X6384502Y2465740D01*
X6383519Y2466108D01*
X6382289Y2466477D01*
X6380937Y2466846D01*
X6379339Y2467338D01*
X6377495Y2467829D01*
X6375405Y2468321D01*
X6373069Y2468936D01*
X6370488Y2469551D01*
X6367660Y2470288D01*
X6364587Y2471026D01*
X6364341D01*
X6363849Y2471272D01*
X6362989Y2471395D01*
X6361759Y2471763D01*
X6360407Y2472132D01*
X6358686Y2472501D01*
X6356965Y2472993D01*
X6354998Y2473607D01*
X6351064Y2474837D01*
X6347007Y2476066D01*
X6345040Y2476804D01*
X6343319Y2477541D01*
X6341721Y2478156D01*
X6340245Y2478894D01*
X6340122D01*
X6339877Y2479140D01*
X6339385Y2479385D01*
X6338770Y2479754D01*
X6338033Y2480246D01*
X6337172Y2480738D01*
X6335205Y2482213D01*
X6332992Y2483934D01*
X6330779Y2485901D01*
X6328689Y2488237D01*
X6326845Y2490696D01*
Y2490818D01*
X6326599Y2491064D01*
X6326477Y2491433D01*
X6326108Y2491925D01*
X6325862Y2492540D01*
X6325493Y2493400D01*
X6324633Y2495244D01*
X6323772Y2497580D01*
X6323157Y2500285D01*
X6322666Y2503235D01*
X6322420Y2506431D01*
Y2506554D01*
Y2506800D01*
Y2507415D01*
X6322543Y2508030D01*
Y2508890D01*
X6322666Y2509874D01*
X6322911Y2510980D01*
X6323157Y2512209D01*
X6323772Y2514914D01*
X6324755Y2517987D01*
X6326108Y2521061D01*
X6326845Y2522659D01*
X6327829Y2524257D01*
X6327952Y2524380D01*
X6328075Y2524626D01*
X6328444Y2525118D01*
X6328812Y2525609D01*
X6329427Y2526347D01*
X6330042Y2527085D01*
X6331886Y2528929D01*
X6334099Y2531019D01*
X6336803Y2533108D01*
X6339877Y2535198D01*
X6343565Y2536919D01*
X6343688D01*
X6344056Y2537165D01*
X6344671Y2537288D01*
X6345409Y2537657D01*
X6346392Y2537903D01*
X6347499Y2538272D01*
X6348851Y2538641D01*
X6350326Y2539132D01*
X6352047Y2539501D01*
X6353768Y2539870D01*
X6355735Y2540239D01*
X6357702Y2540608D01*
X6362005Y2541099D01*
X6366677Y2541222D01*
X6368029D01*
X6369012Y2541099D01*
D02*
G37*
G36*
X5865098Y2413000D02*
X5848378D01*
Y2472378D01*
X5782976D01*
Y2413000D01*
X5766257D01*
Y2539009D01*
X5782976D01*
Y2487253D01*
X5848378D01*
Y2539009D01*
X5865098D01*
Y2413000D01*
D02*
G37*
G36*
X6593125Y2539378D02*
X6594108D01*
X6595092Y2539255D01*
X6596321Y2539132D01*
X6597673Y2539009D01*
X6600624Y2538395D01*
X6603697Y2537657D01*
X6607017Y2536551D01*
X6610336Y2535075D01*
X6610459D01*
X6610705Y2534830D01*
X6611196Y2534584D01*
X6611811Y2534215D01*
X6612549Y2533846D01*
X6613286Y2533231D01*
X6615253Y2531879D01*
X6617466Y2530158D01*
X6619679Y2528068D01*
X6621769Y2525609D01*
X6623613Y2522905D01*
Y2522782D01*
X6623859Y2522536D01*
X6624105Y2522167D01*
X6624350Y2521552D01*
X6624719Y2520938D01*
X6625088Y2520077D01*
X6625949Y2517987D01*
X6626809Y2515652D01*
X6627547Y2512824D01*
X6628039Y2509874D01*
X6628284Y2506677D01*
Y2506554D01*
Y2506308D01*
Y2505940D01*
X6628161Y2505325D01*
Y2504587D01*
X6628039Y2503727D01*
X6627793Y2501760D01*
X6627178Y2499424D01*
X6626440Y2496965D01*
X6625334Y2494384D01*
X6623859Y2491802D01*
Y2491679D01*
X6623613Y2491556D01*
X6623367Y2491187D01*
X6622998Y2490696D01*
X6622015Y2489466D01*
X6620539Y2487991D01*
X6618695Y2486270D01*
X6616483Y2484549D01*
X6613901Y2482828D01*
X6610828Y2481229D01*
X6610950D01*
X6611319Y2481107D01*
X6611934Y2480984D01*
X6612672Y2480738D01*
X6613655Y2480369D01*
X6614639Y2480000D01*
X6617220Y2478894D01*
X6619925Y2477541D01*
X6622875Y2475574D01*
X6625703Y2473362D01*
X6626932Y2472009D01*
X6628161Y2470534D01*
X6628284Y2470411D01*
X6628407Y2470165D01*
X6628776Y2469673D01*
X6629145Y2469059D01*
X6629637Y2468321D01*
X6630128Y2467338D01*
X6630743Y2466231D01*
X6631358Y2465002D01*
X6631850Y2463527D01*
X6632464Y2462051D01*
X6632956Y2460330D01*
X6633448Y2458609D01*
X6634185Y2454675D01*
X6634308Y2452462D01*
X6634431Y2450250D01*
Y2450127D01*
Y2449512D01*
X6634308Y2448651D01*
Y2447545D01*
X6634062Y2446070D01*
X6633817Y2444472D01*
X6633448Y2442628D01*
X6632956Y2440538D01*
X6632341Y2438448D01*
X6631481Y2436235D01*
X6630497Y2433899D01*
X6629391Y2431563D01*
X6627916Y2429228D01*
X6626317Y2426769D01*
X6624473Y2424556D01*
X6622384Y2422343D01*
X6622261Y2422220D01*
X6621892Y2421851D01*
X6621154Y2421237D01*
X6620171Y2420622D01*
X6619064Y2419639D01*
X6617589Y2418778D01*
X6615991Y2417672D01*
X6614024Y2416688D01*
X6611934Y2415582D01*
X6609598Y2414475D01*
X6607139Y2413615D01*
X6604435Y2412754D01*
X6601607Y2412017D01*
X6598534Y2411402D01*
X6595338Y2411033D01*
X6591895Y2410910D01*
X6591158D01*
X6590297Y2411033D01*
X6589191D01*
X6587716Y2411156D01*
X6586117Y2411402D01*
X6584273Y2411771D01*
X6582183Y2412139D01*
X6580094Y2412631D01*
X6577881Y2413369D01*
X6575545Y2414106D01*
X6573332Y2415090D01*
X6570996Y2416196D01*
X6568660Y2417549D01*
X6566448Y2419024D01*
X6564358Y2420745D01*
X6564235Y2420868D01*
X6563866Y2421237D01*
X6563374Y2421728D01*
X6562637Y2422589D01*
X6561776Y2423572D01*
X6560793Y2424679D01*
X6559809Y2426031D01*
X6558703Y2427629D01*
X6557596Y2429350D01*
X6556490Y2431317D01*
X6555506Y2433407D01*
X6554523Y2435743D01*
X6553662Y2438202D01*
X6552925Y2440784D01*
X6552310Y2443488D01*
X6551941Y2446439D01*
X6567431Y2448529D01*
Y2448406D01*
X6567554Y2447914D01*
X6567677Y2447299D01*
X6567923Y2446316D01*
X6568169Y2445332D01*
X6568538Y2443980D01*
X6569029Y2442628D01*
X6569521Y2441152D01*
X6570750Y2438079D01*
X6572349Y2434883D01*
X6574193Y2431932D01*
X6575299Y2430703D01*
X6576405Y2429473D01*
X6576528D01*
X6576651Y2429228D01*
X6577020Y2428982D01*
X6577512Y2428613D01*
X6578127Y2428121D01*
X6578864Y2427629D01*
X6580708Y2426646D01*
X6583044Y2425539D01*
X6585749Y2424556D01*
X6588699Y2423941D01*
X6590297Y2423818D01*
X6592018Y2423695D01*
X6593125D01*
X6593862Y2423818D01*
X6594846Y2423941D01*
X6595829Y2424064D01*
X6597059Y2424310D01*
X6598411Y2424679D01*
X6601361Y2425539D01*
X6602837Y2426154D01*
X6604435Y2426892D01*
X6606033Y2427752D01*
X6607508Y2428736D01*
X6608983Y2429842D01*
X6610459Y2431195D01*
X6610582Y2431317D01*
X6610828Y2431563D01*
X6611196Y2431932D01*
X6611688Y2432547D01*
X6612180Y2433284D01*
X6612794Y2434145D01*
X6613532Y2435128D01*
X6614270Y2436358D01*
X6614884Y2437587D01*
X6615622Y2439062D01*
X6616851Y2442259D01*
X6617220Y2443980D01*
X6617589Y2445824D01*
X6617835Y2447791D01*
X6617958Y2449881D01*
Y2450004D01*
Y2450373D01*
Y2450864D01*
X6617835Y2451725D01*
X6617712Y2452585D01*
X6617589Y2453692D01*
X6617343Y2454798D01*
X6617097Y2456151D01*
X6616237Y2458855D01*
X6615745Y2460330D01*
X6615007Y2461806D01*
X6614147Y2463281D01*
X6613286Y2464756D01*
X6612180Y2466108D01*
X6610950Y2467461D01*
X6610828Y2467584D01*
X6610582Y2467707D01*
X6610213Y2468075D01*
X6609721Y2468567D01*
X6608983Y2469059D01*
X6608123Y2469673D01*
X6607262Y2470288D01*
X6606156Y2470903D01*
X6604927Y2471518D01*
X6603574Y2472132D01*
X6600501Y2473239D01*
X6597059Y2474099D01*
X6595215Y2474222D01*
X6593248Y2474345D01*
X6592510D01*
X6591527Y2474222D01*
X6590297Y2474099D01*
X6588699Y2473976D01*
X6586855Y2473730D01*
X6584765Y2473239D01*
X6582429Y2472747D01*
X6584150Y2486270D01*
X6584396D01*
X6585011Y2486147D01*
X6585872Y2486024D01*
X6587593D01*
X6588330Y2486147D01*
X6589191D01*
X6590174Y2486270D01*
X6591281Y2486516D01*
X6592510Y2486639D01*
X6595338Y2487253D01*
X6598288Y2488237D01*
X6601361Y2489466D01*
X6604435Y2491187D01*
X6604558Y2491310D01*
X6604804Y2491433D01*
X6605172Y2491679D01*
X6605664Y2492171D01*
X6606279Y2492663D01*
X6607017Y2493400D01*
X6607631Y2494138D01*
X6608492Y2495121D01*
X6609229Y2496105D01*
X6609844Y2497334D01*
X6610582Y2498686D01*
X6611196Y2500039D01*
X6611688Y2501637D01*
X6612057Y2503358D01*
X6612303Y2505079D01*
X6612426Y2507046D01*
Y2507169D01*
Y2507415D01*
Y2507907D01*
X6612303Y2508521D01*
Y2509259D01*
X6612180Y2510119D01*
X6611688Y2512086D01*
X6611073Y2514299D01*
X6609967Y2516635D01*
X6608615Y2518971D01*
X6607631Y2520077D01*
X6606648Y2521184D01*
X6606525Y2521307D01*
X6606402Y2521430D01*
X6606033Y2521675D01*
X6605664Y2522044D01*
X6604312Y2523028D01*
X6602591Y2524011D01*
X6600501Y2524995D01*
X6597919Y2525978D01*
X6594969Y2526593D01*
X6593494Y2526839D01*
X6590912D01*
X6590297Y2526716D01*
X6589437D01*
X6588576Y2526593D01*
X6586486Y2526101D01*
X6584027Y2525486D01*
X6581569Y2524380D01*
X6578987Y2523028D01*
X6577758Y2522044D01*
X6576651Y2521061D01*
X6576528Y2520938D01*
X6576405Y2520815D01*
X6576037Y2520446D01*
X6575668Y2519954D01*
X6575176Y2519463D01*
X6574684Y2518725D01*
X6574070Y2517864D01*
X6573455Y2516881D01*
X6572840Y2515652D01*
X6572103Y2514422D01*
X6571488Y2513070D01*
X6570873Y2511472D01*
X6570382Y2509874D01*
X6569767Y2508030D01*
X6569398Y2506185D01*
X6569029Y2504096D01*
X6553539Y2506800D01*
Y2506923D01*
X6553662Y2507538D01*
X6553908Y2508275D01*
X6554154Y2509382D01*
X6554523Y2510611D01*
X6555015Y2512209D01*
X6555506Y2513808D01*
X6556244Y2515652D01*
X6556982Y2517496D01*
X6557965Y2519463D01*
X6558949Y2521552D01*
X6560178Y2523519D01*
X6561407Y2525486D01*
X6562882Y2527453D01*
X6564604Y2529175D01*
X6566325Y2530896D01*
X6566448Y2531019D01*
X6566816Y2531264D01*
X6567308Y2531633D01*
X6568169Y2532248D01*
X6569152Y2532863D01*
X6570259Y2533600D01*
X6571734Y2534461D01*
X6573209Y2535198D01*
X6574930Y2536059D01*
X6576897Y2536797D01*
X6578987Y2537534D01*
X6581200Y2538149D01*
X6583536Y2538764D01*
X6585994Y2539132D01*
X6588699Y2539378D01*
X6591404Y2539501D01*
X6592387D01*
X6593125Y2539378D01*
D02*
G37*
G36*
X5715608Y2413000D02*
X5699380D01*
X5672949Y2509013D01*
Y2509136D01*
X5672826Y2509505D01*
X5672580Y2510119D01*
X5672457Y2510980D01*
X5672088Y2511841D01*
X5671842Y2512947D01*
X5671105Y2515406D01*
X5670490Y2517864D01*
X5669752Y2520323D01*
X5669507Y2521430D01*
X5669261Y2522413D01*
X5669015Y2523151D01*
X5668892Y2523765D01*
Y2523642D01*
X5668769Y2523397D01*
X5668646Y2522905D01*
X5668523Y2522290D01*
X5668400Y2521552D01*
X5668154Y2520692D01*
X5667663Y2518602D01*
X5667048Y2516389D01*
X5666433Y2513808D01*
X5665696Y2511349D01*
X5665081Y2509013D01*
X5638527Y2413000D01*
X5621316D01*
X5588000Y2539009D01*
X5605088D01*
X5624266Y2456396D01*
Y2456273D01*
X5624389Y2455782D01*
X5624512Y2455167D01*
X5624758Y2454184D01*
X5625004Y2452954D01*
X5625373Y2451602D01*
X5625741Y2450004D01*
X5626110Y2448283D01*
X5626479Y2446439D01*
X5626971Y2444349D01*
X5627831Y2440046D01*
X5628692Y2435374D01*
X5629552Y2430580D01*
Y2430826D01*
X5629798Y2431440D01*
X5630044Y2432424D01*
X5630290Y2433776D01*
X5630782Y2435374D01*
X5631151Y2437095D01*
X5631642Y2439062D01*
X5632134Y2441029D01*
X5633118Y2445086D01*
X5633609Y2447053D01*
X5634101Y2448897D01*
X5634470Y2450495D01*
X5634839Y2451971D01*
X5635084Y2453077D01*
X5635330Y2453815D01*
X5659303Y2539009D01*
X5679341D01*
X5697413Y2475206D01*
Y2475083D01*
X5697536Y2474960D01*
Y2474591D01*
X5697659Y2474099D01*
X5698028Y2472870D01*
X5698519Y2471149D01*
X5699134Y2469059D01*
X5699749Y2466600D01*
X5700364Y2463773D01*
X5701224Y2460699D01*
X5701962Y2457380D01*
X5702822Y2453938D01*
X5703560Y2450250D01*
X5704420Y2446316D01*
X5705896Y2438448D01*
X5707248Y2430580D01*
Y2430703D01*
X5707371Y2431072D01*
X5707494Y2431809D01*
X5707740Y2432670D01*
X5707986Y2433776D01*
X5708231Y2435128D01*
X5708600Y2436727D01*
X5708969Y2438448D01*
X5709461Y2440415D01*
X5709953Y2442505D01*
X5710444Y2444717D01*
X5710936Y2447176D01*
X5711551Y2449758D01*
X5712288Y2452340D01*
X5713641Y2457995D01*
X5733310Y2539009D01*
X5750153D01*
X5715608Y2413000D01*
D02*
G37*
G36*
X6493792Y2538886D02*
X6495268D01*
X6498341Y2538764D01*
X6501537Y2538518D01*
X6504611Y2538149D01*
X6506086Y2538026D01*
X6507315Y2537780D01*
X6507438D01*
X6507684Y2537657D01*
X6508176D01*
X6508914Y2537411D01*
X6509651Y2537288D01*
X6510635Y2537042D01*
X6512725Y2536428D01*
X6515183Y2535690D01*
X6517888Y2534584D01*
X6520470Y2533354D01*
X6522928Y2531879D01*
X6523051D01*
X6523174Y2531633D01*
X6523912Y2531141D01*
X6525141Y2530158D01*
X6526493Y2528806D01*
X6528092Y2526962D01*
X6529813Y2524995D01*
X6531534Y2522536D01*
X6533009Y2519708D01*
Y2519586D01*
X6533132Y2519340D01*
X6533378Y2518971D01*
X6533624Y2518356D01*
X6533870Y2517619D01*
X6534238Y2516758D01*
X6534607Y2515774D01*
X6534976Y2514668D01*
X6535714Y2512086D01*
X6536328Y2509136D01*
X6536820Y2505940D01*
X6536943Y2502497D01*
Y2502374D01*
Y2501760D01*
X6536820Y2500899D01*
Y2499793D01*
X6536574Y2498441D01*
X6536451Y2496842D01*
X6536082Y2495121D01*
X6535714Y2493154D01*
X6535099Y2491064D01*
X6534484Y2488852D01*
X6533624Y2486639D01*
X6532640Y2484303D01*
X6531411Y2481967D01*
X6530059Y2479754D01*
X6528460Y2477541D01*
X6526616Y2475329D01*
X6526493Y2475206D01*
X6526125Y2474837D01*
X6525510Y2474345D01*
X6524649Y2473607D01*
X6523420Y2472747D01*
X6521945Y2471886D01*
X6520224Y2470780D01*
X6518134Y2469796D01*
X6515798Y2468813D01*
X6513093Y2467829D01*
X6510143Y2466846D01*
X6506701Y2465985D01*
X6503013Y2465248D01*
X6498956Y2464756D01*
X6494530Y2464387D01*
X6489736Y2464264D01*
X6457403D01*
Y2413000D01*
X6440684D01*
Y2539009D01*
X6492440D01*
X6493792Y2538886D01*
D02*
G37*
G36*
X6143671Y2427875D02*
X6205630D01*
Y2413000D01*
X6126951D01*
Y2539009D01*
X6143671D01*
Y2427875D01*
D02*
G37*
G36*
X6101627Y2524134D02*
X6027250D01*
Y2485655D01*
X6096955D01*
Y2470780D01*
X6027250D01*
Y2427875D01*
X6104577D01*
Y2413000D01*
X6010531D01*
Y2539009D01*
X6101627D01*
Y2524134D01*
D02*
G37*
G36*
X5984223D02*
X5909846D01*
Y2485655D01*
X5979551D01*
Y2470780D01*
X5909846D01*
Y2427875D01*
X5987173D01*
Y2413000D01*
X5893127D01*
Y2539009D01*
X5984223D01*
Y2524134D01*
D02*
G37*
G36*
X6311601Y2377963D02*
X6209196D01*
Y2389150D01*
X6311601D01*
Y2377963D01*
D02*
G37*
G36*
X2865120Y7145760D02*
X2864997D01*
X2864874D01*
X2864137D01*
X2863153D01*
X2861678Y7145883D01*
X2860080Y7146128D01*
X2858236Y7146374D01*
X2856392Y7146866D01*
X2854425Y7147481D01*
X2854302D01*
X2854056Y7147604D01*
X2853564Y7147850D01*
X2852949Y7148095D01*
X2852212Y7148464D01*
X2851351Y7148833D01*
X2849138Y7149939D01*
X2846557Y7151415D01*
X2843729Y7153136D01*
X2840779Y7155226D01*
X2837705Y7157684D01*
X2837582Y7157807D01*
X2837336Y7158053D01*
X2836845Y7158422D01*
X2836230Y7159037D01*
X2835492Y7159774D01*
X2834509Y7160635D01*
X2833403Y7161618D01*
X2832173Y7162848D01*
X2830944Y7164200D01*
X2829469Y7165675D01*
X2827870Y7167396D01*
X2826149Y7169117D01*
X2824428Y7171084D01*
X2822584Y7173174D01*
X2820617Y7175510D01*
X2818650Y7177846D01*
X2818404Y7178092D01*
X2817913Y7178706D01*
X2817052Y7179813D01*
X2815823Y7181165D01*
X2814470Y7182886D01*
X2812749Y7184730D01*
X2810905Y7186820D01*
X2808938Y7189033D01*
X2804635Y7193705D01*
X2800210Y7198253D01*
X2797997Y7200343D01*
X2795784Y7202310D01*
X2793817Y7204154D01*
X2791850Y7205629D01*
X2791727Y7205752D01*
X2791358Y7205998D01*
X2790867Y7206367D01*
X2790129Y7206736D01*
X2789268Y7207351D01*
X2788285Y7207965D01*
X2787056Y7208580D01*
X2785826Y7209318D01*
X2782999Y7210670D01*
X2779925Y7211899D01*
X2778204Y7212268D01*
X2776606Y7212637D01*
X2774885Y7212883D01*
X2773287Y7213006D01*
X2773164D01*
X2772918D01*
X2772426D01*
X2771689Y7212883D01*
X2770951Y7212760D01*
X2770090Y7212637D01*
X2767878Y7212145D01*
X2765419Y7211407D01*
X2762837Y7210178D01*
X2761608Y7209440D01*
X2760256Y7208580D01*
X2759026Y7207596D01*
X2757797Y7206367D01*
X2757674Y7206244D01*
X2757551Y7206121D01*
X2757182Y7205629D01*
X2756813Y7205138D01*
X2756322Y7204523D01*
X2755830Y7203663D01*
X2755215Y7202802D01*
X2754601Y7201696D01*
X2753986Y7200589D01*
X2753371Y7199237D01*
X2752388Y7196286D01*
X2751650Y7192967D01*
X2751527Y7191123D01*
X2751404Y7189156D01*
Y7188050D01*
X2751527Y7187312D01*
X2751650Y7186329D01*
X2751773Y7185222D01*
X2752019Y7183993D01*
X2752265Y7182763D01*
X2753002Y7179813D01*
X2754232Y7176862D01*
X2754969Y7175387D01*
X2755953Y7173912D01*
X2756936Y7172560D01*
X2758166Y7171207D01*
X2758289Y7171084D01*
X2758412Y7170962D01*
X2758903Y7170593D01*
X2759395Y7170224D01*
X2760010Y7169732D01*
X2760870Y7169117D01*
X2761854Y7168503D01*
X2762960Y7167888D01*
X2764190Y7167273D01*
X2765542Y7166659D01*
X2767140Y7166167D01*
X2768738Y7165552D01*
X2770459Y7165184D01*
X2772426Y7164815D01*
X2774393Y7164692D01*
X2776606Y7164569D01*
X2775008Y7148710D01*
X2774762D01*
X2774270Y7148833D01*
X2773287Y7148956D01*
X2772057Y7149079D01*
X2770582Y7149448D01*
X2768861Y7149817D01*
X2767017Y7150308D01*
X2764927Y7150800D01*
X2762837Y7151538D01*
X2760624Y7152398D01*
X2758412Y7153382D01*
X2756076Y7154488D01*
X2753863Y7155840D01*
X2751773Y7157316D01*
X2749806Y7159037D01*
X2747962Y7160881D01*
X2747839Y7161004D01*
X2747593Y7161373D01*
X2747101Y7161987D01*
X2746487Y7162848D01*
X2745749Y7163954D01*
X2745012Y7165184D01*
X2744151Y7166782D01*
X2743290Y7168503D01*
X2742430Y7170470D01*
X2741569Y7172560D01*
X2740832Y7174895D01*
X2740094Y7177477D01*
X2739479Y7180182D01*
X2738988Y7183132D01*
X2738742Y7186206D01*
X2738619Y7189525D01*
Y7190385D01*
X2738742Y7191246D01*
Y7192598D01*
X2738865Y7194073D01*
X2739111Y7195795D01*
X2739479Y7197762D01*
X2739848Y7199974D01*
X2740463Y7202187D01*
X2741078Y7204523D01*
X2741938Y7206982D01*
X2742922Y7209318D01*
X2744028Y7211776D01*
X2745380Y7213989D01*
X2746979Y7216202D01*
X2748700Y7218292D01*
X2748823Y7218415D01*
X2749191Y7218784D01*
X2749683Y7219275D01*
X2750544Y7219890D01*
X2751527Y7220751D01*
X2752634Y7221611D01*
X2753986Y7222595D01*
X2755584Y7223578D01*
X2757305Y7224562D01*
X2759272Y7225545D01*
X2761239Y7226406D01*
X2763452Y7227266D01*
X2765788Y7227881D01*
X2768369Y7228373D01*
X2770951Y7228741D01*
X2773656Y7228864D01*
X2773779D01*
X2774024D01*
X2774393D01*
X2774885D01*
X2775623Y7228741D01*
X2776360D01*
X2778327Y7228496D01*
X2780540Y7228127D01*
X2783122Y7227512D01*
X2785826Y7226774D01*
X2788531Y7225668D01*
X2788654D01*
X2788900Y7225545D01*
X2789268Y7225299D01*
X2789760Y7225053D01*
X2790498Y7224685D01*
X2791235Y7224316D01*
X2793202Y7223209D01*
X2795415Y7221857D01*
X2798120Y7220013D01*
X2800947Y7217923D01*
X2803898Y7215341D01*
X2804021Y7215218D01*
X2804267Y7214973D01*
X2804758Y7214604D01*
X2805373Y7213989D01*
X2806234Y7213129D01*
X2807217Y7212268D01*
X2808324Y7211039D01*
X2809676Y7209686D01*
X2811151Y7208211D01*
X2812872Y7206367D01*
X2814716Y7204523D01*
X2816683Y7202310D01*
X2818773Y7199974D01*
X2821109Y7197393D01*
X2823445Y7194565D01*
X2826026Y7191615D01*
X2826149Y7191492D01*
X2826518Y7191000D01*
X2827133Y7190262D01*
X2827870Y7189402D01*
X2828854Y7188296D01*
X2829960Y7187066D01*
X2832419Y7184116D01*
X2835001Y7181165D01*
X2837582Y7178215D01*
X2838812Y7176862D01*
X2840041Y7175633D01*
X2841025Y7174527D01*
X2841885Y7173666D01*
X2842008Y7173543D01*
X2842623Y7173051D01*
X2843483Y7172314D01*
X2844467Y7171330D01*
X2845819Y7170347D01*
X2847171Y7169240D01*
X2848647Y7168134D01*
X2850245Y7167151D01*
Y7228987D01*
X2865120D01*
Y7145760D01*
D02*
G37*
G36*
Y7036961D02*
X2739111D01*
Y7128057D01*
X2753986D01*
Y7053681D01*
X2792465D01*
Y7123385D01*
X2807340D01*
Y7053681D01*
X2850245D01*
Y7131007D01*
X2865120D01*
Y7036961D01*
D02*
G37*
G36*
Y6938121D02*
X2739111D01*
Y6954840D01*
X2850245D01*
Y7016800D01*
X2865120D01*
Y6938121D01*
D02*
G37*
G36*
X2753986Y6879972D02*
X2865120D01*
Y6863253D01*
X2753986D01*
Y6821700D01*
X2739111D01*
Y6921647D01*
X2753986D01*
Y6879972D01*
D02*
G37*
G36*
Y6772403D02*
X2865120D01*
Y6755684D01*
X2753986D01*
Y6714131D01*
X2739111D01*
Y6814078D01*
X2753986D01*
Y6772403D01*
D02*
G37*
G36*
X2805496Y6702084D02*
X2807217Y6701961D01*
X2809184Y6701838D01*
X2811397Y6701592D01*
X2813733Y6701223D01*
X2816314Y6700854D01*
X2819142Y6700363D01*
X2821969Y6699748D01*
X2824797Y6698887D01*
X2827870Y6698027D01*
X2830821Y6697043D01*
X2833771Y6695814D01*
X2836599Y6694462D01*
X2836722Y6694339D01*
X2837214Y6694093D01*
X2838074Y6693601D01*
X2839058Y6692986D01*
X2840287Y6692249D01*
X2841762Y6691265D01*
X2843360Y6690159D01*
X2845081Y6688807D01*
X2846925Y6687331D01*
X2848770Y6685733D01*
X2850736Y6683889D01*
X2852581Y6681922D01*
X2854425Y6679832D01*
X2856269Y6677496D01*
X2857867Y6675038D01*
X2859465Y6672456D01*
X2859588Y6672333D01*
X2859834Y6671841D01*
X2860203Y6671104D01*
X2860694Y6669997D01*
X2861309Y6668645D01*
X2861924Y6667170D01*
X2862661Y6665326D01*
X2863276Y6663359D01*
X2864014Y6661146D01*
X2864751Y6658810D01*
X2865366Y6656228D01*
X2865981Y6653524D01*
X2866472Y6650819D01*
X2866841Y6647869D01*
X2867087Y6644918D01*
X2867210Y6641845D01*
Y6640124D01*
X2867087Y6638895D01*
X2866964Y6637296D01*
X2866718Y6635452D01*
X2866472Y6633485D01*
X2866103Y6631150D01*
X2865735Y6628814D01*
X2865120Y6626232D01*
X2864505Y6623650D01*
X2863645Y6620946D01*
X2862661Y6618118D01*
X2861555Y6615414D01*
X2860203Y6612709D01*
X2858727Y6610005D01*
X2858604Y6609882D01*
X2858359Y6609390D01*
X2857867Y6608652D01*
X2857129Y6607669D01*
X2856269Y6606562D01*
X2855162Y6605210D01*
X2853933Y6603735D01*
X2852581Y6602137D01*
X2850982Y6600416D01*
X2849261Y6598694D01*
X2847294Y6596850D01*
X2845204Y6595129D01*
X2842992Y6593408D01*
X2840533Y6591687D01*
X2837951Y6590212D01*
X2835247Y6588737D01*
X2835124Y6588614D01*
X2834632Y6588491D01*
X2833771Y6588122D01*
X2832665Y6587630D01*
X2831313Y6587138D01*
X2829714Y6586524D01*
X2827747Y6585786D01*
X2825780Y6585171D01*
X2823445Y6584557D01*
X2820986Y6583819D01*
X2818404Y6583205D01*
X2815700Y6582713D01*
X2812872Y6582221D01*
X2809922Y6581975D01*
X2806848Y6581729D01*
X2803775Y6581606D01*
X2803652D01*
X2803406D01*
X2803037D01*
X2802423D01*
X2801685Y6581729D01*
X2800702D01*
X2799718D01*
X2798612Y6581852D01*
X2795907Y6582098D01*
X2792957Y6582467D01*
X2789514Y6583082D01*
X2785826Y6583696D01*
X2782015Y6584557D01*
X2777958Y6585663D01*
X2773901Y6587138D01*
X2769845Y6588737D01*
X2765788Y6590704D01*
X2761854Y6592916D01*
X2758166Y6595498D01*
X2754723Y6598449D01*
X2754478Y6598694D01*
X2753986Y6599186D01*
X2753125Y6600170D01*
X2751896Y6601522D01*
X2750544Y6603120D01*
X2749068Y6605210D01*
X2747470Y6607546D01*
X2745749Y6610250D01*
X2744151Y6613201D01*
X2742553Y6616520D01*
X2741078Y6620085D01*
X2739725Y6623896D01*
X2738496Y6628076D01*
X2737635Y6632502D01*
X2737144Y6637050D01*
X2736898Y6641968D01*
Y6643689D01*
X2737021Y6644918D01*
X2737144Y6646394D01*
X2737389Y6648238D01*
X2737635Y6650205D01*
X2737881Y6652417D01*
X2738373Y6654876D01*
X2738988Y6657335D01*
X2739602Y6659917D01*
X2740463Y6662621D01*
X2741323Y6665326D01*
X2742553Y6668030D01*
X2743782Y6670735D01*
X2745257Y6673440D01*
X2745380Y6673562D01*
X2745626Y6674054D01*
X2746118Y6674792D01*
X2746733Y6675775D01*
X2747593Y6676882D01*
X2748700Y6678234D01*
X2749929Y6679709D01*
X2751281Y6681430D01*
X2752879Y6683029D01*
X2754601Y6684873D01*
X2756568Y6686594D01*
X2758657Y6688438D01*
X2760870Y6690159D01*
X2763329Y6691757D01*
X2765911Y6693355D01*
X2768615Y6694830D01*
X2768738Y6694953D01*
X2769230Y6695199D01*
X2770090Y6695568D01*
X2771197Y6695937D01*
X2772672Y6696552D01*
X2774270Y6697166D01*
X2776237Y6697781D01*
X2778450Y6698518D01*
X2780786Y6699256D01*
X2783368Y6699871D01*
X2786195Y6700485D01*
X2789146Y6701100D01*
X2792219Y6701469D01*
X2795415Y6701838D01*
X2798857Y6702084D01*
X2802300Y6702207D01*
X2802546D01*
X2803160D01*
X2804144D01*
X2805496Y6702084D01*
D02*
G37*
G36*
X2865120Y6549889D02*
X2838935Y6533170D01*
X2838812Y6533047D01*
X2838443Y6532801D01*
X2837828Y6532432D01*
X2837091Y6531940D01*
X2836107Y6531326D01*
X2835001Y6530588D01*
X2832542Y6528990D01*
X2829714Y6527023D01*
X2826887Y6525056D01*
X2824059Y6522966D01*
X2822830Y6522105D01*
X2821601Y6521122D01*
X2821478D01*
X2821355Y6520876D01*
X2820617Y6520384D01*
X2819511Y6519401D01*
X2818281Y6518294D01*
X2816929Y6516942D01*
X2815577Y6515590D01*
X2814224Y6514114D01*
X2813241Y6512639D01*
X2813118Y6512516D01*
X2812872Y6512025D01*
X2812380Y6511287D01*
X2811889Y6510303D01*
X2811274Y6509197D01*
X2810782Y6507968D01*
X2810168Y6506615D01*
X2809799Y6505140D01*
Y6505017D01*
X2809676Y6504648D01*
X2809553Y6503911D01*
X2809430Y6502927D01*
Y6501698D01*
X2809307Y6500100D01*
X2809184Y6498133D01*
Y6476619D01*
X2865120D01*
Y6459900D01*
X2739111D01*
Y6518540D01*
X2739234Y6519892D01*
Y6521491D01*
X2739356Y6523335D01*
X2739479Y6525179D01*
X2739971Y6529359D01*
X2740586Y6533661D01*
X2741446Y6537718D01*
X2741938Y6539562D01*
X2742553Y6541283D01*
Y6541406D01*
X2742676Y6541652D01*
X2742922Y6542144D01*
X2743167Y6542759D01*
X2743659Y6543496D01*
X2744151Y6544357D01*
X2745380Y6546324D01*
X2746979Y6548537D01*
X2749068Y6550872D01*
X2751650Y6553208D01*
X2754601Y6555298D01*
X2754723Y6555421D01*
X2754969Y6555544D01*
X2755461Y6555790D01*
X2756076Y6556159D01*
X2756936Y6556527D01*
X2757920Y6557019D01*
X2758903Y6557511D01*
X2760133Y6558003D01*
X2762960Y6558863D01*
X2766157Y6559724D01*
X2769722Y6560338D01*
X2771566Y6560584D01*
X2773533D01*
X2773656D01*
X2774147D01*
X2774885D01*
X2775746Y6560461D01*
X2776975Y6560338D01*
X2778204Y6560093D01*
X2779802Y6559847D01*
X2781401Y6559478D01*
X2783122Y6558986D01*
X2784966Y6558494D01*
X2786810Y6557757D01*
X2788777Y6556896D01*
X2790621Y6555913D01*
X2792588Y6554683D01*
X2794432Y6553454D01*
X2796153Y6551856D01*
X2796276Y6551733D01*
X2796522Y6551487D01*
X2797013Y6550995D01*
X2797628Y6550258D01*
X2798366Y6549274D01*
X2799226Y6548168D01*
X2800087Y6546815D01*
X2801070Y6545217D01*
X2802054Y6543496D01*
X2803037Y6541529D01*
X2804021Y6539316D01*
X2805004Y6536858D01*
X2805865Y6534276D01*
X2806602Y6531448D01*
X2807340Y6528375D01*
X2807832Y6525056D01*
Y6525179D01*
X2807955Y6525302D01*
X2808201Y6525670D01*
X2808324Y6526162D01*
X2809061Y6527392D01*
X2809799Y6528867D01*
X2810782Y6530465D01*
X2811766Y6532063D01*
X2812995Y6533661D01*
X2814102Y6535137D01*
X2814224Y6535259D01*
X2814347Y6535505D01*
X2814839Y6535874D01*
X2815331Y6536366D01*
X2815946Y6536981D01*
X2816806Y6537718D01*
X2817667Y6538579D01*
X2818773Y6539562D01*
X2821232Y6541652D01*
X2824059Y6543988D01*
X2827379Y6546447D01*
X2830944Y6548905D01*
X2865120Y6570665D01*
Y6549889D01*
D02*
G37*
G36*
Y6415151D02*
X2805742D01*
Y6349749D01*
X2865120D01*
Y6333030D01*
X2739111D01*
Y6349749D01*
X2790867D01*
Y6415151D01*
X2739111D01*
Y6431870D01*
X2865120D01*
Y6415151D01*
D02*
G37*
G36*
X2753986Y6273652D02*
X2865120D01*
Y6256932D01*
X2753986D01*
Y6215380D01*
X2739111D01*
Y6315327D01*
X2753986D01*
Y6273652D01*
D02*
G37*
G36*
X3754120Y6936508D02*
X3655648D01*
Y6936385D01*
X3655894Y6936262D01*
X3656140Y6935894D01*
X3656509Y6935525D01*
X3657615Y6934296D01*
X3658968Y6932574D01*
X3660566Y6930484D01*
X3662410Y6927903D01*
X3664377Y6924952D01*
X3666344Y6921756D01*
Y6921633D01*
X3666590Y6921387D01*
X3666835Y6920895D01*
X3667204Y6920281D01*
X3667696Y6919420D01*
X3668188Y6918560D01*
X3669294Y6916347D01*
X3670524Y6913888D01*
X3671876Y6911184D01*
X3673105Y6908356D01*
X3674212Y6905651D01*
X3659336D01*
X3659213Y6905774D01*
X3659090Y6906266D01*
X3658722Y6906881D01*
X3658230Y6907864D01*
X3657615Y6908971D01*
X3656878Y6910200D01*
X3656140Y6911675D01*
X3655157Y6913273D01*
X3653067Y6916839D01*
X3650485Y6920650D01*
X3647657Y6924461D01*
X3644584Y6928272D01*
X3644461Y6928395D01*
X3644215Y6928640D01*
X3643723Y6929255D01*
X3643109Y6929870D01*
X3642248Y6930607D01*
X3641388Y6931591D01*
X3640281Y6932574D01*
X3639175Y6933681D01*
X3636593Y6935894D01*
X3633766Y6938107D01*
X3630692Y6940196D01*
X3629217Y6941180D01*
X3627619Y6941918D01*
Y6951998D01*
X3754120D01*
Y6936508D01*
D02*
G37*
G36*
Y6782961D02*
X3628111D01*
Y6874057D01*
X3642986D01*
Y6799681D01*
X3681465D01*
Y6869385D01*
X3696340D01*
Y6799681D01*
X3739245D01*
Y6877007D01*
X3754120D01*
Y6782961D01*
D02*
G37*
G36*
Y6684121D02*
X3628111D01*
Y6700840D01*
X3739245D01*
Y6762800D01*
X3754120D01*
Y6684121D01*
D02*
G37*
G36*
X3642986Y6625972D02*
X3754120D01*
Y6609253D01*
X3642986D01*
Y6567700D01*
X3628111D01*
Y6667647D01*
X3642986D01*
Y6625972D01*
D02*
G37*
G36*
Y6518403D02*
X3754120D01*
Y6501684D01*
X3642986D01*
Y6460131D01*
X3628111D01*
Y6560078D01*
X3642986D01*
Y6518403D01*
D02*
G37*
G36*
X3694496Y6448084D02*
X3696217Y6447961D01*
X3698184Y6447838D01*
X3700397Y6447592D01*
X3702733Y6447223D01*
X3705314Y6446854D01*
X3708142Y6446363D01*
X3710969Y6445748D01*
X3713797Y6444887D01*
X3716870Y6444027D01*
X3719821Y6443043D01*
X3722771Y6441814D01*
X3725599Y6440462D01*
X3725722Y6440339D01*
X3726214Y6440093D01*
X3727074Y6439601D01*
X3728058Y6438986D01*
X3729287Y6438249D01*
X3730762Y6437265D01*
X3732360Y6436159D01*
X3734081Y6434807D01*
X3735925Y6433331D01*
X3737770Y6431733D01*
X3739736Y6429889D01*
X3741581Y6427922D01*
X3743425Y6425832D01*
X3745269Y6423496D01*
X3746867Y6421038D01*
X3748465Y6418456D01*
X3748588Y6418333D01*
X3748834Y6417841D01*
X3749203Y6417104D01*
X3749694Y6415997D01*
X3750309Y6414645D01*
X3750924Y6413170D01*
X3751661Y6411326D01*
X3752276Y6409359D01*
X3753014Y6407146D01*
X3753751Y6404810D01*
X3754366Y6402228D01*
X3754981Y6399524D01*
X3755472Y6396819D01*
X3755841Y6393869D01*
X3756087Y6390918D01*
X3756210Y6387845D01*
Y6386124D01*
X3756087Y6384895D01*
X3755964Y6383296D01*
X3755718Y6381452D01*
X3755472Y6379485D01*
X3755103Y6377150D01*
X3754735Y6374814D01*
X3754120Y6372232D01*
X3753505Y6369650D01*
X3752645Y6366946D01*
X3751661Y6364118D01*
X3750555Y6361414D01*
X3749203Y6358709D01*
X3747727Y6356005D01*
X3747604Y6355882D01*
X3747359Y6355390D01*
X3746867Y6354652D01*
X3746129Y6353669D01*
X3745269Y6352562D01*
X3744162Y6351210D01*
X3742933Y6349735D01*
X3741581Y6348137D01*
X3739982Y6346416D01*
X3738261Y6344694D01*
X3736294Y6342850D01*
X3734204Y6341129D01*
X3731992Y6339408D01*
X3729533Y6337687D01*
X3726951Y6336212D01*
X3724247Y6334737D01*
X3724124Y6334614D01*
X3723632Y6334491D01*
X3722771Y6334122D01*
X3721665Y6333630D01*
X3720313Y6333138D01*
X3718714Y6332524D01*
X3716747Y6331786D01*
X3714780Y6331171D01*
X3712445Y6330557D01*
X3709986Y6329819D01*
X3707404Y6329205D01*
X3704700Y6328713D01*
X3701872Y6328221D01*
X3698922Y6327975D01*
X3695848Y6327729D01*
X3692775Y6327606D01*
X3692652D01*
X3692406D01*
X3692037D01*
X3691423D01*
X3690685Y6327729D01*
X3689702D01*
X3688718D01*
X3687612Y6327852D01*
X3684907Y6328098D01*
X3681957Y6328467D01*
X3678514Y6329082D01*
X3674826Y6329696D01*
X3671015Y6330557D01*
X3666958Y6331663D01*
X3662901Y6333138D01*
X3658845Y6334737D01*
X3654788Y6336704D01*
X3650854Y6338916D01*
X3647166Y6341498D01*
X3643723Y6344449D01*
X3643478Y6344694D01*
X3642986Y6345186D01*
X3642125Y6346170D01*
X3640896Y6347522D01*
X3639544Y6349120D01*
X3638068Y6351210D01*
X3636470Y6353546D01*
X3634749Y6356250D01*
X3633151Y6359201D01*
X3631553Y6362520D01*
X3630078Y6366085D01*
X3628725Y6369896D01*
X3627496Y6374076D01*
X3626635Y6378502D01*
X3626144Y6383050D01*
X3625898Y6387968D01*
Y6389689D01*
X3626021Y6390918D01*
X3626144Y6392394D01*
X3626389Y6394238D01*
X3626635Y6396205D01*
X3626881Y6398417D01*
X3627373Y6400876D01*
X3627988Y6403335D01*
X3628602Y6405917D01*
X3629463Y6408621D01*
X3630323Y6411326D01*
X3631553Y6414030D01*
X3632782Y6416735D01*
X3634257Y6419440D01*
X3634380Y6419562D01*
X3634626Y6420054D01*
X3635118Y6420792D01*
X3635733Y6421775D01*
X3636593Y6422882D01*
X3637700Y6424234D01*
X3638929Y6425709D01*
X3640281Y6427430D01*
X3641879Y6429029D01*
X3643601Y6430873D01*
X3645568Y6432594D01*
X3647657Y6434438D01*
X3649870Y6436159D01*
X3652329Y6437757D01*
X3654911Y6439355D01*
X3657615Y6440830D01*
X3657738Y6440953D01*
X3658230Y6441199D01*
X3659090Y6441568D01*
X3660197Y6441937D01*
X3661672Y6442552D01*
X3663270Y6443166D01*
X3665237Y6443781D01*
X3667450Y6444518D01*
X3669786Y6445256D01*
X3672368Y6445871D01*
X3675195Y6446485D01*
X3678146Y6447100D01*
X3681219Y6447469D01*
X3684415Y6447838D01*
X3687857Y6448084D01*
X3691300Y6448207D01*
X3691546D01*
X3692160D01*
X3693144D01*
X3694496Y6448084D01*
D02*
G37*
G36*
X3754120Y6295889D02*
X3727935Y6279170D01*
X3727812Y6279047D01*
X3727443Y6278801D01*
X3726828Y6278432D01*
X3726091Y6277940D01*
X3725107Y6277326D01*
X3724001Y6276588D01*
X3721542Y6274990D01*
X3718714Y6273023D01*
X3715887Y6271056D01*
X3713059Y6268966D01*
X3711830Y6268105D01*
X3710601Y6267122D01*
X3710478D01*
X3710355Y6266876D01*
X3709617Y6266384D01*
X3708511Y6265401D01*
X3707281Y6264294D01*
X3705929Y6262942D01*
X3704577Y6261590D01*
X3703224Y6260114D01*
X3702241Y6258639D01*
X3702118Y6258516D01*
X3701872Y6258025D01*
X3701380Y6257287D01*
X3700889Y6256303D01*
X3700274Y6255197D01*
X3699782Y6253968D01*
X3699168Y6252615D01*
X3698799Y6251140D01*
Y6251017D01*
X3698676Y6250648D01*
X3698553Y6249911D01*
X3698430Y6248927D01*
Y6247698D01*
X3698307Y6246100D01*
X3698184Y6244133D01*
Y6222619D01*
X3754120D01*
Y6205900D01*
X3628111D01*
Y6264540D01*
X3628234Y6265892D01*
Y6267491D01*
X3628356Y6269335D01*
X3628479Y6271179D01*
X3628971Y6275359D01*
X3629586Y6279661D01*
X3630446Y6283718D01*
X3630938Y6285562D01*
X3631553Y6287283D01*
Y6287406D01*
X3631676Y6287652D01*
X3631922Y6288144D01*
X3632167Y6288759D01*
X3632659Y6289496D01*
X3633151Y6290357D01*
X3634380Y6292324D01*
X3635979Y6294537D01*
X3638068Y6296872D01*
X3640650Y6299208D01*
X3643601Y6301298D01*
X3643723Y6301421D01*
X3643969Y6301544D01*
X3644461Y6301790D01*
X3645076Y6302159D01*
X3645936Y6302527D01*
X3646920Y6303019D01*
X3647903Y6303511D01*
X3649133Y6304003D01*
X3651960Y6304863D01*
X3655157Y6305724D01*
X3658722Y6306338D01*
X3660566Y6306584D01*
X3662533D01*
X3662656D01*
X3663147D01*
X3663885D01*
X3664746Y6306461D01*
X3665975Y6306338D01*
X3667204Y6306093D01*
X3668802Y6305847D01*
X3670401Y6305478D01*
X3672122Y6304986D01*
X3673966Y6304494D01*
X3675810Y6303757D01*
X3677777Y6302896D01*
X3679621Y6301913D01*
X3681588Y6300683D01*
X3683432Y6299454D01*
X3685153Y6297856D01*
X3685276Y6297733D01*
X3685522Y6297487D01*
X3686013Y6296995D01*
X3686628Y6296258D01*
X3687366Y6295274D01*
X3688226Y6294168D01*
X3689087Y6292815D01*
X3690070Y6291217D01*
X3691054Y6289496D01*
X3692037Y6287529D01*
X3693021Y6285316D01*
X3694004Y6282858D01*
X3694865Y6280276D01*
X3695602Y6277448D01*
X3696340Y6274375D01*
X3696832Y6271056D01*
Y6271179D01*
X3696955Y6271302D01*
X3697201Y6271670D01*
X3697324Y6272162D01*
X3698061Y6273392D01*
X3698799Y6274867D01*
X3699782Y6276465D01*
X3700766Y6278063D01*
X3701995Y6279661D01*
X3703102Y6281137D01*
X3703224Y6281259D01*
X3703347Y6281505D01*
X3703839Y6281874D01*
X3704331Y6282366D01*
X3704946Y6282981D01*
X3705806Y6283718D01*
X3706667Y6284579D01*
X3707773Y6285562D01*
X3710232Y6287652D01*
X3713059Y6289988D01*
X3716379Y6292447D01*
X3719944Y6294905D01*
X3754120Y6316665D01*
Y6295889D01*
D02*
G37*
G36*
Y6161151D02*
X3694742D01*
Y6095749D01*
X3754120D01*
Y6079030D01*
X3628111D01*
Y6095749D01*
X3679867D01*
Y6161151D01*
X3628111D01*
Y6177870D01*
X3754120D01*
Y6161151D01*
D02*
G37*
G36*
X3642986Y6019652D02*
X3754120D01*
Y6002932D01*
X3642986D01*
Y5961380D01*
X3628111D01*
Y6061327D01*
X3642986D01*
Y6019652D01*
D02*
G37*
G36*
X7437812Y6402445D02*
X7439535D01*
X7441601Y6402273D01*
X7443840Y6402100D01*
X7446251Y6401756D01*
X7448834Y6401412D01*
X7451589Y6401067D01*
X7457445Y6399862D01*
X7463300Y6398312D01*
X7469155Y6396245D01*
X7469327D01*
X7469844Y6395901D01*
X7470533Y6395556D01*
X7471566Y6395040D01*
X7472944Y6394351D01*
X7474321Y6393662D01*
X7477593Y6391596D01*
X7481382Y6388840D01*
X7485171Y6385740D01*
X7488959Y6381952D01*
X7492231Y6377646D01*
X7492404Y6377474D01*
X7492576Y6377130D01*
X7492920Y6376441D01*
X7493437Y6375580D01*
X7494126Y6374374D01*
X7494815Y6372997D01*
X7495503Y6371447D01*
X7496364Y6369552D01*
X7497226Y6367658D01*
X7497914Y6365592D01*
X7499292Y6360770D01*
X7500498Y6355603D01*
X7500842Y6352848D01*
X7501014Y6349920D01*
X7478627Y6348198D01*
Y6348370D01*
X7478454Y6348887D01*
Y6349748D01*
X7478110Y6350954D01*
X7477938Y6352331D01*
X7477421Y6353881D01*
X7476905Y6355603D01*
X7476388Y6357498D01*
X7474838Y6361631D01*
X7472599Y6365764D01*
X7471222Y6367830D01*
X7469844Y6369725D01*
X7468122Y6371619D01*
X7466227Y6373341D01*
X7466055Y6373513D01*
X7465711Y6373685D01*
X7465194Y6374202D01*
X7464333Y6374719D01*
X7463300Y6375408D01*
X7461922Y6376096D01*
X7460372Y6376785D01*
X7458478Y6377646D01*
X7456411Y6378507D01*
X7454173Y6379196D01*
X7451762Y6379885D01*
X7449006Y6380574D01*
X7445906Y6381091D01*
X7442807Y6381607D01*
X7439190Y6381779D01*
X7435574Y6381952D01*
X7433507D01*
X7432129Y6381779D01*
X7430407D01*
X7428341Y6381607D01*
X7426102Y6381263D01*
X7423863Y6380918D01*
X7418697Y6380057D01*
X7413703Y6378680D01*
X7411120Y6377646D01*
X7408881Y6376613D01*
X7406642Y6375408D01*
X7404748Y6374030D01*
X7404575D01*
X7404403Y6373685D01*
X7403198Y6372652D01*
X7401648Y6370930D01*
X7399926Y6368864D01*
X7398204Y6366108D01*
X7396654Y6362836D01*
X7395448Y6359392D01*
X7395276Y6357498D01*
X7395104Y6355431D01*
Y6355259D01*
Y6355087D01*
Y6354570D01*
X7395276Y6353881D01*
X7395448Y6351987D01*
X7395965Y6349920D01*
X7396826Y6347337D01*
X7397859Y6344754D01*
X7399581Y6342171D01*
X7401820Y6339760D01*
X7401992D01*
X7402165Y6339415D01*
X7402681Y6339071D01*
X7403370Y6338726D01*
X7404231Y6338210D01*
X7405437Y6337521D01*
X7406986Y6336660D01*
X7408709Y6335799D01*
X7410947Y6334938D01*
X7413358Y6333905D01*
X7416286Y6332871D01*
X7419558Y6331838D01*
X7423174Y6330633D01*
X7427307Y6329427D01*
X7431957Y6328222D01*
X7436951Y6327016D01*
X7437296D01*
X7438157Y6326672D01*
X7439707Y6326327D01*
X7441601Y6325983D01*
X7443840Y6325466D01*
X7446595Y6324777D01*
X7449523Y6324088D01*
X7452623Y6323227D01*
X7459167Y6321505D01*
X7465539Y6319611D01*
X7468638Y6318578D01*
X7471394Y6317717D01*
X7473977Y6316683D01*
X7476216Y6315822D01*
X7476388D01*
X7476905Y6315478D01*
X7477766Y6315133D01*
X7478799Y6314617D01*
X7480004Y6313928D01*
X7481382Y6313067D01*
X7484826Y6311000D01*
X7488443Y6308417D01*
X7492231Y6305317D01*
X7495848Y6301873D01*
X7497398Y6299979D01*
X7498948Y6297912D01*
X7499120Y6297740D01*
X7499292Y6297396D01*
X7499637Y6296879D01*
X7500153Y6296018D01*
X7500670Y6294985D01*
X7501359Y6293779D01*
X7502047Y6292229D01*
X7502736Y6290679D01*
X7503942Y6287063D01*
X7505147Y6282758D01*
X7506008Y6277936D01*
X7506353Y6275352D01*
Y6272769D01*
Y6272597D01*
Y6272080D01*
Y6271392D01*
X7506181Y6270358D01*
Y6269153D01*
X7506008Y6267603D01*
X7505664Y6266053D01*
X7505320Y6264159D01*
X7504458Y6260026D01*
X7502909Y6255548D01*
X7501014Y6250898D01*
X7499637Y6248660D01*
X7498259Y6246249D01*
X7498087Y6246076D01*
X7497914Y6245732D01*
X7497398Y6245043D01*
X7496709Y6244182D01*
X7495848Y6243149D01*
X7494987Y6241943D01*
X7493781Y6240566D01*
X7492404Y6239188D01*
X7490681Y6237638D01*
X7488959Y6236088D01*
X7487065Y6234538D01*
X7484998Y6232816D01*
X7480349Y6229716D01*
X7475010Y6226961D01*
X7474838D01*
X7474321Y6226616D01*
X7473460Y6226272D01*
X7472427Y6225928D01*
X7470877Y6225411D01*
X7469327Y6224722D01*
X7467261Y6224205D01*
X7465194Y6223517D01*
X7462783Y6222828D01*
X7460200Y6222311D01*
X7457272Y6221622D01*
X7454345Y6221106D01*
X7447973Y6220417D01*
X7441084Y6220072D01*
X7438846D01*
X7437124Y6220245D01*
X7435057D01*
X7432646Y6220417D01*
X7430063Y6220589D01*
X7427135Y6220933D01*
X7424035Y6221278D01*
X7420763Y6221795D01*
X7414047Y6223000D01*
X7407331Y6224722D01*
X7404059Y6225755D01*
X7400959Y6226961D01*
X7400787Y6227133D01*
X7400270Y6227305D01*
X7399409Y6227650D01*
X7398376Y6228339D01*
X7396998Y6229027D01*
X7395276Y6229888D01*
X7393554Y6230922D01*
X7391660Y6232299D01*
X7387699Y6235227D01*
X7383393Y6238844D01*
X7379260Y6243149D01*
X7375472Y6247971D01*
X7375299Y6248143D01*
X7375127Y6248660D01*
X7374611Y6249348D01*
X7374094Y6250382D01*
X7373405Y6251759D01*
X7372544Y6253309D01*
X7371683Y6255204D01*
X7370822Y6257270D01*
X7369961Y6259509D01*
X7369100Y6261920D01*
X7368411Y6264503D01*
X7367550Y6267431D01*
X7366517Y6273458D01*
X7366172Y6276558D01*
X7366000Y6279830D01*
X7388043Y6281724D01*
Y6281552D01*
Y6281208D01*
X7388215Y6280519D01*
X7388388Y6279486D01*
X7388560Y6278280D01*
X7388904Y6277075D01*
X7389593Y6273975D01*
X7390454Y6270531D01*
X7391832Y6266914D01*
X7393382Y6263298D01*
X7395276Y6259853D01*
Y6259681D01*
X7395620Y6259509D01*
X7396309Y6258476D01*
X7397687Y6256926D01*
X7399581Y6255031D01*
X7401992Y6252793D01*
X7405092Y6250554D01*
X7408709Y6248143D01*
X7412842Y6246076D01*
X7413014D01*
X7413358Y6245904D01*
X7414047Y6245560D01*
X7414908Y6245215D01*
X7416114Y6244871D01*
X7417491Y6244526D01*
X7419041Y6244010D01*
X7420763Y6243493D01*
X7422658Y6242977D01*
X7424724Y6242632D01*
X7429374Y6241771D01*
X7434540Y6241082D01*
X7440051Y6240910D01*
X7442290D01*
X7443495Y6241082D01*
X7444873D01*
X7447973Y6241427D01*
X7451589Y6241943D01*
X7455550Y6242632D01*
X7459511Y6243493D01*
X7463472Y6244871D01*
X7463644D01*
X7463989Y6245043D01*
X7464505Y6245215D01*
X7465194Y6245560D01*
X7467088Y6246421D01*
X7469327Y6247799D01*
X7471738Y6249348D01*
X7474321Y6251071D01*
X7476732Y6253309D01*
X7478799Y6255720D01*
X7478971Y6256065D01*
X7479660Y6256926D01*
X7480349Y6258303D01*
X7481382Y6260198D01*
X7482243Y6262437D01*
X7483104Y6265020D01*
X7483621Y6267775D01*
X7483793Y6270875D01*
Y6271047D01*
Y6271219D01*
Y6272253D01*
X7483621Y6273803D01*
X7483276Y6275869D01*
X7482588Y6278108D01*
X7481726Y6280519D01*
X7480521Y6282930D01*
X7478971Y6285341D01*
X7478799Y6285685D01*
X7478110Y6286374D01*
X7476905Y6287579D01*
X7475182Y6288957D01*
X7472944Y6290679D01*
X7470188Y6292401D01*
X7466916Y6294124D01*
X7462955Y6295673D01*
X7462611Y6295846D01*
X7462094Y6296018D01*
X7461405Y6296190D01*
X7460544Y6296535D01*
X7459511Y6296879D01*
X7458133Y6297396D01*
X7456411Y6297912D01*
X7454517Y6298429D01*
X7452278Y6299118D01*
X7449695Y6299807D01*
X7446767Y6300495D01*
X7443495Y6301356D01*
X7439879Y6302218D01*
X7435918Y6303251D01*
X7431613Y6304284D01*
X7431268D01*
X7430579Y6304628D01*
X7429374Y6304801D01*
X7427652Y6305317D01*
X7425758Y6305834D01*
X7423347Y6306351D01*
X7420936Y6307039D01*
X7418180Y6307901D01*
X7412669Y6309623D01*
X7406986Y6311345D01*
X7404231Y6312378D01*
X7401820Y6313411D01*
X7399581Y6314272D01*
X7397515Y6315306D01*
X7397343D01*
X7396998Y6315650D01*
X7396309Y6315994D01*
X7395448Y6316511D01*
X7394415Y6317200D01*
X7393209Y6317889D01*
X7390454Y6319955D01*
X7387354Y6322366D01*
X7384254Y6325122D01*
X7381327Y6328394D01*
X7378744Y6331838D01*
Y6332010D01*
X7378399Y6332355D01*
X7378227Y6332871D01*
X7377710Y6333560D01*
X7377366Y6334421D01*
X7376849Y6335627D01*
X7375644Y6338210D01*
X7374438Y6341482D01*
X7373577Y6345271D01*
X7372888Y6349404D01*
X7372544Y6353881D01*
Y6354053D01*
Y6354398D01*
Y6355259D01*
X7372716Y6356120D01*
Y6357325D01*
X7372888Y6358703D01*
X7373233Y6360253D01*
X7373577Y6361975D01*
X7374438Y6365764D01*
X7375816Y6370069D01*
X7377710Y6374374D01*
X7378744Y6376613D01*
X7380121Y6378852D01*
X7380294Y6379024D01*
X7380466Y6379368D01*
X7380982Y6380057D01*
X7381499Y6380746D01*
X7382360Y6381779D01*
X7383221Y6382813D01*
X7385804Y6385396D01*
X7388904Y6388324D01*
X7392693Y6391251D01*
X7396998Y6394179D01*
X7402165Y6396590D01*
X7402337D01*
X7402853Y6396934D01*
X7403714Y6397106D01*
X7404748Y6397623D01*
X7406125Y6397967D01*
X7407675Y6398484D01*
X7409570Y6399001D01*
X7411636Y6399690D01*
X7414047Y6400206D01*
X7416458Y6400723D01*
X7419214Y6401239D01*
X7421969Y6401756D01*
X7427996Y6402445D01*
X7434540Y6402617D01*
X7436435D01*
X7437812Y6402445D01*
D02*
G37*
G36*
X9199713D02*
X9201263D01*
X9203330Y6402273D01*
X9205569Y6402100D01*
X9207980Y6401756D01*
X9210563Y6401412D01*
X9213318Y6401067D01*
X9219001Y6399862D01*
X9225029Y6398312D01*
X9230884Y6396245D01*
X9231056D01*
X9231573Y6395901D01*
X9232434Y6395556D01*
X9233467Y6395040D01*
X9234672Y6394523D01*
X9236222Y6393662D01*
X9239667Y6391768D01*
X9243627Y6389357D01*
X9247588Y6386429D01*
X9251549Y6382985D01*
X9255166Y6379024D01*
X9255338Y6378852D01*
X9255510Y6378507D01*
X9256027Y6377819D01*
X9256716Y6376958D01*
X9257404Y6375924D01*
X9258265Y6374547D01*
X9259127Y6372997D01*
X9260160Y6371275D01*
X9261365Y6369380D01*
X9262399Y6367141D01*
X9263432Y6364730D01*
X9264637Y6362147D01*
X9265671Y6359392D01*
X9266704Y6356464D01*
X9267737Y6353364D01*
X9268598Y6350092D01*
X9247588Y6344409D01*
Y6344582D01*
X9247416Y6344926D01*
X9247244Y6345787D01*
X9246899Y6346648D01*
X9246555Y6347681D01*
X9246038Y6349059D01*
X9244833Y6352159D01*
X9243455Y6355431D01*
X9241733Y6359047D01*
X9239839Y6362492D01*
X9237600Y6365592D01*
Y6365764D01*
X9237256Y6365936D01*
X9236567Y6366797D01*
X9235189Y6368347D01*
X9233295Y6370069D01*
X9230884Y6371963D01*
X9227956Y6374030D01*
X9224684Y6376096D01*
X9220723Y6377991D01*
X9220551D01*
X9220207Y6378163D01*
X9219690Y6378507D01*
X9218829Y6378680D01*
X9217796Y6379024D01*
X9216590Y6379541D01*
X9215212Y6379885D01*
X9213663Y6380402D01*
X9210046Y6381091D01*
X9205913Y6381952D01*
X9201263Y6382468D01*
X9196441Y6382641D01*
X9193686D01*
X9192308Y6382468D01*
X9190758D01*
X9189036Y6382296D01*
X9186970Y6381952D01*
X9182664Y6381435D01*
X9178015Y6380574D01*
X9173193Y6379368D01*
X9168715Y6377646D01*
X9168543D01*
X9168199Y6377474D01*
X9167682Y6377130D01*
X9166821Y6376785D01*
X9165788Y6376269D01*
X9164754Y6375752D01*
X9161999Y6374202D01*
X9159071Y6372308D01*
X9155972Y6370241D01*
X9152872Y6367658D01*
X9149944Y6364730D01*
X9149600Y6364386D01*
X9148739Y6363353D01*
X9147533Y6361803D01*
X9145983Y6359564D01*
X9144089Y6356981D01*
X9142367Y6354053D01*
X9140472Y6350781D01*
X9138923Y6347337D01*
Y6347165D01*
X9138578Y6346648D01*
X9138234Y6345787D01*
X9137889Y6344409D01*
X9137373Y6343032D01*
X9136856Y6341137D01*
X9136167Y6339071D01*
X9135651Y6336832D01*
X9134962Y6334249D01*
X9134273Y6331494D01*
X9133756Y6328566D01*
X9133240Y6325466D01*
X9132551Y6318922D01*
X9132206Y6311861D01*
Y6311517D01*
Y6310828D01*
Y6309623D01*
X9132378Y6307901D01*
Y6305834D01*
X9132723Y6303595D01*
X9132895Y6301012D01*
X9133240Y6298084D01*
X9133584Y6294985D01*
X9134273Y6291885D01*
X9135651Y6285169D01*
X9137717Y6278624D01*
X9138923Y6275352D01*
X9140300Y6272253D01*
X9140472Y6272080D01*
X9140645Y6271564D01*
X9141161Y6270703D01*
X9141850Y6269669D01*
X9142711Y6268292D01*
X9143744Y6266914D01*
X9144950Y6265192D01*
X9146328Y6263298D01*
X9147878Y6261403D01*
X9149600Y6259509D01*
X9151494Y6257615D01*
X9153733Y6255548D01*
X9155972Y6253654D01*
X9158382Y6251932D01*
X9161138Y6250209D01*
X9163893Y6248660D01*
X9164065D01*
X9164582Y6248315D01*
X9165443Y6247971D01*
X9166649Y6247454D01*
X9168026Y6246937D01*
X9169748Y6246249D01*
X9171643Y6245560D01*
X9173882Y6244871D01*
X9176120Y6244182D01*
X9178704Y6243493D01*
X9184387Y6242288D01*
X9190414Y6241427D01*
X9193514Y6241254D01*
X9196786Y6241082D01*
X9198336D01*
X9199369Y6241254D01*
X9200747D01*
X9202297Y6241427D01*
X9204191Y6241599D01*
X9206257Y6241771D01*
X9210735Y6242460D01*
X9215729Y6243493D01*
X9221068Y6244871D01*
X9226406Y6246765D01*
X9226578D01*
X9227095Y6247110D01*
X9227784Y6247282D01*
X9228817Y6247799D01*
X9230023Y6248315D01*
X9231400Y6249004D01*
X9234672Y6250554D01*
X9238117Y6252448D01*
X9241733Y6254515D01*
X9245350Y6256926D01*
X9248449Y6259337D01*
Y6292229D01*
X9196614D01*
Y6313067D01*
X9271354D01*
Y6247454D01*
X9271181Y6247282D01*
X9270665Y6246937D01*
X9269631Y6246076D01*
X9268426Y6245215D01*
X9266876Y6244010D01*
X9264982Y6242804D01*
X9262743Y6241427D01*
X9260504Y6239877D01*
X9257921Y6238155D01*
X9255166Y6236433D01*
X9249138Y6233161D01*
X9242594Y6229888D01*
X9235706Y6226961D01*
X9235533D01*
X9234845Y6226616D01*
X9233984Y6226272D01*
X9232606Y6225928D01*
X9230884Y6225411D01*
X9228989Y6224722D01*
X9226751Y6224205D01*
X9224167Y6223517D01*
X9221412Y6222828D01*
X9218484Y6222311D01*
X9215385Y6221622D01*
X9212113Y6221106D01*
X9205396Y6220417D01*
X9198163Y6220072D01*
X9195580D01*
X9193858Y6220245D01*
X9191447Y6220417D01*
X9188864Y6220589D01*
X9185764Y6220933D01*
X9182492Y6221450D01*
X9178876Y6221967D01*
X9175259Y6222828D01*
X9171298Y6223689D01*
X9167165Y6224722D01*
X9163032Y6225928D01*
X9158899Y6227478D01*
X9154938Y6229200D01*
X9150805Y6231094D01*
X9150633Y6231266D01*
X9149944Y6231611D01*
X9148739Y6232299D01*
X9147361Y6233161D01*
X9145639Y6234366D01*
X9143572Y6235744D01*
X9141334Y6237466D01*
X9138923Y6239360D01*
X9136339Y6241427D01*
X9133756Y6243838D01*
X9131001Y6246593D01*
X9128418Y6249348D01*
X9125834Y6252448D01*
X9123251Y6255892D01*
X9121012Y6259509D01*
X9118774Y6263298D01*
X9118602Y6263470D01*
X9118257Y6264331D01*
X9117740Y6265364D01*
X9117052Y6267086D01*
X9116363Y6268981D01*
X9115329Y6271392D01*
X9114468Y6274147D01*
X9113435Y6277075D01*
X9112402Y6280519D01*
X9111541Y6284135D01*
X9110508Y6288096D01*
X9109819Y6292229D01*
X9109130Y6296535D01*
X9108613Y6301012D01*
X9108269Y6305662D01*
X9108097Y6310484D01*
Y6310828D01*
Y6311689D01*
Y6313067D01*
X9108269Y6314789D01*
X9108441Y6317200D01*
X9108613Y6319783D01*
X9108958Y6322883D01*
X9109474Y6326155D01*
X9109991Y6329771D01*
X9110680Y6333560D01*
X9111541Y6337521D01*
X9112574Y6341654D01*
X9113780Y6345787D01*
X9115329Y6350092D01*
X9116879Y6354226D01*
X9118774Y6358531D01*
X9118946Y6358875D01*
X9119290Y6359564D01*
X9119979Y6360597D01*
X9120840Y6362147D01*
X9121874Y6364042D01*
X9123251Y6366108D01*
X9124801Y6368519D01*
X9126695Y6371102D01*
X9128762Y6373685D01*
X9131173Y6376441D01*
X9133584Y6379196D01*
X9136512Y6381952D01*
X9139439Y6384707D01*
X9142711Y6387290D01*
X9146155Y6389529D01*
X9149772Y6391768D01*
X9149944Y6391940D01*
X9150633Y6392284D01*
X9151838Y6392801D01*
X9153388Y6393490D01*
X9155283Y6394351D01*
X9157521Y6395212D01*
X9160277Y6396245D01*
X9163204Y6397279D01*
X9166476Y6398140D01*
X9170093Y6399173D01*
X9173882Y6400034D01*
X9178015Y6400895D01*
X9182320Y6401584D01*
X9186797Y6402100D01*
X9191619Y6402445D01*
X9196441Y6402617D01*
X9198336D01*
X9199713Y6402445D01*
D02*
G37*
G36*
X8528259D02*
X8529809D01*
X8531875Y6402273D01*
X8534114Y6402100D01*
X8536525Y6401756D01*
X8539108Y6401412D01*
X8541864Y6401067D01*
X8547547Y6399862D01*
X8553574Y6398312D01*
X8559429Y6396245D01*
X8559601D01*
X8560118Y6395901D01*
X8560979Y6395556D01*
X8562012Y6395040D01*
X8563218Y6394523D01*
X8564768Y6393662D01*
X8568212Y6391768D01*
X8572173Y6389357D01*
X8576134Y6386429D01*
X8580095Y6382985D01*
X8583711Y6379024D01*
X8583883Y6378852D01*
X8584055Y6378507D01*
X8584572Y6377819D01*
X8585261Y6376958D01*
X8585950Y6375924D01*
X8586811Y6374547D01*
X8587672Y6372997D01*
X8588705Y6371275D01*
X8589911Y6369380D01*
X8590944Y6367141D01*
X8591977Y6364730D01*
X8593183Y6362147D01*
X8594216Y6359392D01*
X8595249Y6356464D01*
X8596283Y6353364D01*
X8597144Y6350092D01*
X8576134Y6344409D01*
Y6344582D01*
X8575962Y6344926D01*
X8575789Y6345787D01*
X8575445Y6346648D01*
X8575100Y6347681D01*
X8574584Y6349059D01*
X8573378Y6352159D01*
X8572001Y6355431D01*
X8570279Y6359047D01*
X8568384Y6362492D01*
X8566145Y6365592D01*
Y6365764D01*
X8565801Y6365936D01*
X8565112Y6366797D01*
X8563734Y6368347D01*
X8561840Y6370069D01*
X8559429Y6371963D01*
X8556502Y6374030D01*
X8553230Y6376096D01*
X8549269Y6377991D01*
X8549096D01*
X8548752Y6378163D01*
X8548235Y6378507D01*
X8547374Y6378680D01*
X8546341Y6379024D01*
X8545136Y6379541D01*
X8543758Y6379885D01*
X8542208Y6380402D01*
X8538592Y6381091D01*
X8534458Y6381952D01*
X8529809Y6382468D01*
X8524987Y6382641D01*
X8522231D01*
X8520854Y6382468D01*
X8519304D01*
X8517582Y6382296D01*
X8515515Y6381952D01*
X8511210Y6381435D01*
X8506560Y6380574D01*
X8501738Y6379368D01*
X8497261Y6377646D01*
X8497088D01*
X8496744Y6377474D01*
X8496227Y6377130D01*
X8495366Y6376785D01*
X8494333Y6376269D01*
X8493300Y6375752D01*
X8490544Y6374202D01*
X8487617Y6372308D01*
X8484517Y6370241D01*
X8481417Y6367658D01*
X8478490Y6364730D01*
X8478145Y6364386D01*
X8477284Y6363353D01*
X8476079Y6361803D01*
X8474529Y6359564D01*
X8472634Y6356981D01*
X8470912Y6354053D01*
X8469018Y6350781D01*
X8467468Y6347337D01*
Y6347165D01*
X8467124Y6346648D01*
X8466779Y6345787D01*
X8466435Y6344409D01*
X8465918Y6343032D01*
X8465401Y6341137D01*
X8464713Y6339071D01*
X8464196Y6336832D01*
X8463507Y6334249D01*
X8462818Y6331494D01*
X8462302Y6328566D01*
X8461785Y6325466D01*
X8461096Y6318922D01*
X8460752Y6311861D01*
Y6311517D01*
Y6310828D01*
Y6309623D01*
X8460924Y6307901D01*
Y6305834D01*
X8461268Y6303595D01*
X8461441Y6301012D01*
X8461785Y6298084D01*
X8462129Y6294985D01*
X8462818Y6291885D01*
X8464196Y6285169D01*
X8466262Y6278624D01*
X8467468Y6275352D01*
X8468846Y6272253D01*
X8469018Y6272080D01*
X8469190Y6271564D01*
X8469707Y6270703D01*
X8470396Y6269669D01*
X8471257Y6268292D01*
X8472290Y6266914D01*
X8473495Y6265192D01*
X8474873Y6263298D01*
X8476423Y6261403D01*
X8478145Y6259509D01*
X8480039Y6257615D01*
X8482278Y6255548D01*
X8484517Y6253654D01*
X8486928Y6251932D01*
X8489683Y6250209D01*
X8492439Y6248660D01*
X8492611D01*
X8493128Y6248315D01*
X8493989Y6247971D01*
X8495194Y6247454D01*
X8496572Y6246937D01*
X8498294Y6246249D01*
X8500188Y6245560D01*
X8502427Y6244871D01*
X8504666Y6244182D01*
X8507249Y6243493D01*
X8512932Y6242288D01*
X8518959Y6241427D01*
X8522059Y6241254D01*
X8525331Y6241082D01*
X8526881D01*
X8527914Y6241254D01*
X8529292D01*
X8530842Y6241427D01*
X8532736Y6241599D01*
X8534803Y6241771D01*
X8539280Y6242460D01*
X8544275Y6243493D01*
X8549613Y6244871D01*
X8554952Y6246765D01*
X8555124D01*
X8555640Y6247110D01*
X8556329Y6247282D01*
X8557363Y6247799D01*
X8558568Y6248315D01*
X8559946Y6249004D01*
X8563218Y6250554D01*
X8566662Y6252448D01*
X8570279Y6254515D01*
X8573895Y6256926D01*
X8576995Y6259337D01*
Y6292229D01*
X8525159D01*
Y6313067D01*
X8599899D01*
Y6247454D01*
X8599727Y6247282D01*
X8599210Y6246937D01*
X8598177Y6246076D01*
X8596971Y6245215D01*
X8595421Y6244010D01*
X8593527Y6242804D01*
X8591288Y6241427D01*
X8589050Y6239877D01*
X8586466Y6238155D01*
X8583711Y6236433D01*
X8577684Y6233161D01*
X8571140Y6229888D01*
X8564251Y6226961D01*
X8564079D01*
X8563390Y6226616D01*
X8562529Y6226272D01*
X8561151Y6225928D01*
X8559429Y6225411D01*
X8557535Y6224722D01*
X8555296Y6224205D01*
X8552713Y6223517D01*
X8549957Y6222828D01*
X8547030Y6222311D01*
X8543930Y6221622D01*
X8540658Y6221106D01*
X8533942Y6220417D01*
X8526709Y6220072D01*
X8524126D01*
X8522404Y6220245D01*
X8519993Y6220417D01*
X8517409Y6220589D01*
X8514310Y6220933D01*
X8511038Y6221450D01*
X8507421Y6221967D01*
X8503805Y6222828D01*
X8499844Y6223689D01*
X8495711Y6224722D01*
X8491578Y6225928D01*
X8487445Y6227478D01*
X8483484Y6229200D01*
X8479351Y6231094D01*
X8479178Y6231266D01*
X8478490Y6231611D01*
X8477284Y6232299D01*
X8475906Y6233161D01*
X8474184Y6234366D01*
X8472118Y6235744D01*
X8469879Y6237466D01*
X8467468Y6239360D01*
X8464885Y6241427D01*
X8462302Y6243838D01*
X8459546Y6246593D01*
X8456963Y6249348D01*
X8454380Y6252448D01*
X8451797Y6255892D01*
X8449558Y6259509D01*
X8447319Y6263298D01*
X8447147Y6263470D01*
X8446803Y6264331D01*
X8446286Y6265364D01*
X8445597Y6267086D01*
X8444908Y6268981D01*
X8443875Y6271392D01*
X8443014Y6274147D01*
X8441981Y6277075D01*
X8440947Y6280519D01*
X8440086Y6284135D01*
X8439053Y6288096D01*
X8438364Y6292229D01*
X8437675Y6296535D01*
X8437159Y6301012D01*
X8436814Y6305662D01*
X8436642Y6310484D01*
Y6310828D01*
Y6311689D01*
Y6313067D01*
X8436814Y6314789D01*
X8436986Y6317200D01*
X8437159Y6319783D01*
X8437503Y6322883D01*
X8438020Y6326155D01*
X8438536Y6329771D01*
X8439225Y6333560D01*
X8440086Y6337521D01*
X8441120Y6341654D01*
X8442325Y6345787D01*
X8443875Y6350092D01*
X8445425Y6354226D01*
X8447319Y6358531D01*
X8447491Y6358875D01*
X8447836Y6359564D01*
X8448525Y6360597D01*
X8449386Y6362147D01*
X8450419Y6364042D01*
X8451797Y6366108D01*
X8453347Y6368519D01*
X8455241Y6371102D01*
X8457307Y6373685D01*
X8459718Y6376441D01*
X8462129Y6379196D01*
X8465057Y6381952D01*
X8467985Y6384707D01*
X8471257Y6387290D01*
X8474701Y6389529D01*
X8478317Y6391768D01*
X8478490Y6391940D01*
X8479178Y6392284D01*
X8480384Y6392801D01*
X8481934Y6393490D01*
X8483828Y6394351D01*
X8486067Y6395212D01*
X8488822Y6396245D01*
X8491750Y6397279D01*
X8495022Y6398140D01*
X8498638Y6399173D01*
X8502427Y6400034D01*
X8506560Y6400895D01*
X8510865Y6401584D01*
X8515343Y6402100D01*
X8520165Y6402445D01*
X8524987Y6402617D01*
X8526881D01*
X8528259Y6402445D01*
D02*
G37*
G36*
X9074860Y6223000D02*
X9050750D01*
X8958100Y6361458D01*
Y6223000D01*
X8935712D01*
Y6399517D01*
X8959650D01*
X9052472Y6260887D01*
Y6399517D01*
X9074860D01*
Y6223000D01*
D02*
G37*
G36*
X8403405D02*
X8379295D01*
X8286645Y6361458D01*
Y6223000D01*
X8264258D01*
Y6399517D01*
X8288195D01*
X8381018Y6260887D01*
Y6399517D01*
X8403405D01*
Y6223000D01*
D02*
G37*
G36*
X9571002Y6378680D02*
X9466814D01*
Y6324777D01*
X9564458D01*
Y6303940D01*
X9466814D01*
Y6243838D01*
X9575136D01*
Y6223000D01*
X9443393D01*
Y6399517D01*
X9571002D01*
Y6378680D01*
D02*
G37*
G36*
X9328356Y6243838D02*
X9415151D01*
Y6223000D01*
X9304935D01*
Y6399517D01*
X9328356D01*
Y6243838D01*
D02*
G37*
G36*
X8917286Y6223000D02*
X8890765D01*
X8870272Y6276386D01*
X8796221D01*
X8776933Y6223000D01*
X8752307D01*
X8819814Y6399517D01*
X8845129D01*
X8917286Y6223000D01*
D02*
G37*
G36*
X8223444D02*
X8200023D01*
Y6399517D01*
X8223444D01*
Y6223000D01*
D02*
G37*
G36*
X8102379Y6399345D02*
X8104617D01*
X8107200Y6399173D01*
X8109784Y6399001D01*
X8115639Y6398312D01*
X8121666Y6397451D01*
X8127349Y6396245D01*
X8129932Y6395556D01*
X8132343Y6394695D01*
X8132516D01*
X8132860Y6394523D01*
X8133549Y6394179D01*
X8134410Y6393834D01*
X8135443Y6393145D01*
X8136649Y6392457D01*
X8139404Y6390734D01*
X8142504Y6388496D01*
X8145776Y6385568D01*
X8149048Y6381952D01*
X8151976Y6377819D01*
X8152148Y6377646D01*
X8152320Y6377302D01*
X8152664Y6376613D01*
X8153181Y6375752D01*
X8153698Y6374547D01*
X8154387Y6373169D01*
X8155075Y6371791D01*
X8155764Y6370069D01*
X8156970Y6366108D01*
X8158175Y6361631D01*
X8159036Y6356637D01*
X8159381Y6354053D01*
Y6351298D01*
Y6351126D01*
Y6350437D01*
Y6349404D01*
X8159208Y6348198D01*
X8159036Y6346476D01*
X8158692Y6344754D01*
X8158347Y6342515D01*
X8157831Y6340276D01*
X8157142Y6337865D01*
X8156453Y6335282D01*
X8155420Y6332699D01*
X8154214Y6329944D01*
X8152837Y6327360D01*
X8151115Y6324605D01*
X8149392Y6322022D01*
X8147154Y6319611D01*
X8146981Y6319439D01*
X8146637Y6319094D01*
X8145948Y6318405D01*
X8144915Y6317544D01*
X8143537Y6316511D01*
X8141987Y6315306D01*
X8140093Y6314100D01*
X8137854Y6312722D01*
X8135443Y6311345D01*
X8132688Y6309967D01*
X8129588Y6308589D01*
X8126144Y6307212D01*
X8122527Y6306006D01*
X8118566Y6304973D01*
X8114261Y6303940D01*
X8109611Y6303251D01*
X8109784D01*
X8109956Y6303079D01*
X8110472Y6302734D01*
X8111161Y6302562D01*
X8112883Y6301529D01*
X8114950Y6300495D01*
X8117189Y6299118D01*
X8119428Y6297740D01*
X8121666Y6296018D01*
X8123733Y6294468D01*
X8123905Y6294296D01*
X8124249Y6294124D01*
X8124766Y6293435D01*
X8125455Y6292746D01*
X8126316Y6291885D01*
X8127349Y6290679D01*
X8128555Y6289474D01*
X8129932Y6287924D01*
X8132860Y6284480D01*
X8136132Y6280519D01*
X8139576Y6275869D01*
X8143021Y6270875D01*
X8173502Y6223000D01*
X8144398D01*
X8120977Y6259681D01*
X8120805Y6259853D01*
X8120461Y6260370D01*
X8119944Y6261231D01*
X8119255Y6262264D01*
X8118394Y6263642D01*
X8117361Y6265192D01*
X8115122Y6268636D01*
X8112367Y6272597D01*
X8109611Y6276558D01*
X8106684Y6280519D01*
X8105478Y6282241D01*
X8104101Y6283963D01*
Y6284135D01*
X8103756Y6284307D01*
X8103067Y6285341D01*
X8101690Y6286891D01*
X8100140Y6288613D01*
X8098245Y6290507D01*
X8096351Y6292401D01*
X8094285Y6294296D01*
X8092218Y6295673D01*
X8092046Y6295846D01*
X8091357Y6296190D01*
X8090324Y6296879D01*
X8088946Y6297568D01*
X8087396Y6298429D01*
X8085674Y6299118D01*
X8083780Y6299979D01*
X8081713Y6300495D01*
X8081541D01*
X8081024Y6300668D01*
X8079991Y6300840D01*
X8078613Y6301012D01*
X8076891D01*
X8074652Y6301184D01*
X8071897Y6301356D01*
X8041760D01*
Y6223000D01*
X8018339D01*
Y6399517D01*
X8100484D01*
X8102379Y6399345D01*
D02*
G37*
G36*
X7981486Y6378680D02*
X7877297D01*
Y6324777D01*
X7974942D01*
Y6303940D01*
X7877297D01*
Y6243838D01*
X7985619D01*
Y6223000D01*
X7853877D01*
Y6399517D01*
X7981486D01*
Y6378680D01*
D02*
G37*
G36*
X7817023D02*
X7712835D01*
Y6324777D01*
X7810479D01*
Y6303940D01*
X7712835D01*
Y6243838D01*
X7821156D01*
Y6223000D01*
X7689414D01*
Y6399517D01*
X7817023D01*
Y6378680D01*
D02*
G37*
G36*
X7664960D02*
X7606580D01*
Y6223000D01*
X7583159D01*
Y6378680D01*
X7524952D01*
Y6399517D01*
X7664960D01*
Y6378680D01*
D02*
G37*
G36*
X8755062Y6173920D02*
X8611609D01*
Y6189591D01*
X8755062D01*
Y6173920D01*
D02*
G37*
G36*
X5698505Y6350000D02*
X5682401D01*
Y6455479D01*
X5645643Y6350000D01*
X5630645D01*
X5594133Y6457323D01*
Y6350000D01*
X5578028D01*
Y6476009D01*
X5603107D01*
X5632980Y6386758D01*
Y6386635D01*
X5633226Y6386266D01*
X5633349Y6385529D01*
X5633718Y6384668D01*
X5633964Y6383684D01*
X5634456Y6382455D01*
X5634824Y6381103D01*
X5635316Y6379751D01*
X5636300Y6376677D01*
X5637283Y6373604D01*
X5638267Y6370653D01*
X5638635Y6369301D01*
X5639004Y6368072D01*
Y6368195D01*
X5639127Y6368440D01*
X5639250Y6368809D01*
X5639373Y6369301D01*
X5639619Y6370039D01*
X5639988Y6370899D01*
X5640234Y6372006D01*
X5640725Y6373235D01*
X5641094Y6374464D01*
X5641586Y6376062D01*
X5642201Y6377661D01*
X5642815Y6379505D01*
X5643430Y6381472D01*
X5644168Y6383562D01*
X5644905Y6385774D01*
X5645766Y6388233D01*
X5676008Y6476009D01*
X5698505D01*
Y6350000D01*
D02*
G37*
G36*
X6605773Y6394257D02*
X6622738D01*
Y6380120D01*
X6605773D01*
Y6350000D01*
X6590283D01*
Y6380120D01*
X6535576D01*
Y6394257D01*
X6593111Y6476010D01*
X6605773D01*
Y6394257D01*
D02*
G37*
G36*
X6529798Y6461134D02*
X6488123D01*
Y6350000D01*
X6471404D01*
Y6461134D01*
X6429852D01*
Y6476010D01*
X6529798D01*
Y6461134D01*
D02*
G37*
G36*
X6238071Y6475887D02*
X6239547D01*
X6242620Y6475764D01*
X6245816Y6475518D01*
X6248890Y6475149D01*
X6250365Y6475026D01*
X6251594Y6474780D01*
X6251717D01*
X6251963Y6474657D01*
X6252455D01*
X6253192Y6474411D01*
X6253930Y6474289D01*
X6254914Y6474043D01*
X6257003Y6473428D01*
X6259462Y6472690D01*
X6262167Y6471584D01*
X6264748Y6470355D01*
X6267207Y6468879D01*
X6267330D01*
X6267453Y6468633D01*
X6268191Y6468142D01*
X6269420Y6467158D01*
X6270772Y6465806D01*
X6272370Y6463962D01*
X6274092Y6461995D01*
X6275813Y6459536D01*
X6277288Y6456709D01*
Y6456586D01*
X6277411Y6456340D01*
X6277657Y6455971D01*
X6277903Y6455356D01*
X6278148Y6454619D01*
X6278517Y6453758D01*
X6278886Y6452775D01*
X6279255Y6451668D01*
X6279993Y6449087D01*
X6280607Y6446136D01*
X6281099Y6442940D01*
X6281222Y6439498D01*
Y6439375D01*
Y6438760D01*
X6281099Y6437899D01*
Y6436793D01*
X6280853Y6435441D01*
X6280730Y6433843D01*
X6280361Y6432122D01*
X6279993Y6430155D01*
X6279378Y6428065D01*
X6278763Y6425852D01*
X6277903Y6423639D01*
X6276919Y6421303D01*
X6275690Y6418967D01*
X6274337Y6416755D01*
X6272739Y6414542D01*
X6270895Y6412329D01*
X6270772Y6412206D01*
X6270404Y6411837D01*
X6269789Y6411345D01*
X6268928Y6410608D01*
X6267699Y6409747D01*
X6266224Y6408887D01*
X6264503Y6407780D01*
X6262413Y6406797D01*
X6260077Y6405813D01*
X6257372Y6404830D01*
X6254422Y6403846D01*
X6250980Y6402986D01*
X6247292Y6402248D01*
X6243235Y6401756D01*
X6238809Y6401388D01*
X6234014Y6401265D01*
X6201682D01*
Y6350000D01*
X6184963D01*
Y6476010D01*
X6236719D01*
X6238071Y6475887D01*
D02*
G37*
G36*
X6020352Y6475886D02*
X6021950D01*
X6023794Y6475764D01*
X6025638Y6475641D01*
X6029818Y6475149D01*
X6034121Y6474534D01*
X6038177Y6473674D01*
X6040021Y6473182D01*
X6041743Y6472567D01*
X6041865D01*
X6042111Y6472444D01*
X6042603Y6472198D01*
X6043218Y6471953D01*
X6043955Y6471461D01*
X6044816Y6470969D01*
X6046783Y6469740D01*
X6048996Y6468141D01*
X6051332Y6466052D01*
X6053667Y6463470D01*
X6055757Y6460519D01*
X6055880Y6460397D01*
X6056003Y6460151D01*
X6056249Y6459659D01*
X6056618Y6459044D01*
X6056987Y6458184D01*
X6057478Y6457200D01*
X6057970Y6456217D01*
X6058462Y6454987D01*
X6059322Y6452160D01*
X6060183Y6448963D01*
X6060798Y6445399D01*
X6061044Y6443555D01*
Y6441588D01*
Y6441465D01*
Y6440973D01*
Y6440235D01*
X6060921Y6439375D01*
X6060798Y6438145D01*
X6060552Y6436916D01*
X6060306Y6435318D01*
X6059937Y6433719D01*
X6059445Y6431998D01*
X6058954Y6430154D01*
X6058216Y6428310D01*
X6057355Y6426343D01*
X6056372Y6424499D01*
X6055143Y6422532D01*
X6053913Y6420688D01*
X6052315Y6418967D01*
X6052192Y6418844D01*
X6051946Y6418598D01*
X6051454Y6418107D01*
X6050717Y6417492D01*
X6049733Y6416754D01*
X6048627Y6415894D01*
X6047275Y6415033D01*
X6045677Y6414050D01*
X6043955Y6413066D01*
X6041988Y6412083D01*
X6039776Y6411099D01*
X6037317Y6410116D01*
X6034735Y6409255D01*
X6031908Y6408518D01*
X6028834Y6407780D01*
X6025515Y6407288D01*
X6025638D01*
X6025761Y6407165D01*
X6026130Y6406919D01*
X6026621Y6406796D01*
X6027851Y6406059D01*
X6029326Y6405321D01*
X6030924Y6404338D01*
X6032522Y6403354D01*
X6034121Y6402125D01*
X6035596Y6401018D01*
X6035719Y6400896D01*
X6035965Y6400773D01*
X6036333Y6400281D01*
X6036825Y6399789D01*
X6037440Y6399174D01*
X6038177Y6398314D01*
X6039038Y6397453D01*
X6040021Y6396347D01*
X6042111Y6393888D01*
X6044447Y6391061D01*
X6046906Y6387741D01*
X6049365Y6384176D01*
X6071124Y6350000D01*
X6050348Y6350000D01*
X6033629Y6376185D01*
X6033506Y6376308D01*
X6033260Y6376677D01*
X6032891Y6377292D01*
X6032399Y6378029D01*
X6031785Y6379013D01*
X6031047Y6380119D01*
X6029449Y6382578D01*
X6027482Y6385406D01*
X6025515Y6388233D01*
X6023425Y6391061D01*
X6022565Y6392290D01*
X6021581Y6393519D01*
Y6393642D01*
X6021335Y6393765D01*
X6020843Y6394503D01*
X6019860Y6395609D01*
X6018754Y6396839D01*
X6017401Y6398191D01*
X6016049Y6399543D01*
X6014574Y6400896D01*
X6013098Y6401879D01*
X6012976Y6402002D01*
X6012484Y6402248D01*
X6011746Y6402740D01*
X6010763Y6403231D01*
X6009656Y6403846D01*
X6008427Y6404338D01*
X6007075Y6404952D01*
X6005599Y6405321D01*
X6005476D01*
X6005108Y6405444D01*
X6004370Y6405567D01*
X6003387Y6405690D01*
X6002157D01*
X6000559Y6405813D01*
X5998592Y6405936D01*
X5977078D01*
Y6350000D01*
X5960359D01*
Y6476009D01*
X6018999D01*
X6020352Y6475886D01*
D02*
G37*
G36*
X5934051Y6461134D02*
X5859674D01*
Y6422655D01*
X5929379D01*
Y6407780D01*
X5859674D01*
Y6364875D01*
X5937001D01*
Y6350000D01*
X5842955D01*
Y6476009D01*
X5934051D01*
Y6461134D01*
D02*
G37*
G36*
X5778291Y6475886D02*
X5779766D01*
X5782839Y6475764D01*
X5786036Y6475518D01*
X5789109Y6475149D01*
X5790584Y6475026D01*
X5791814Y6474780D01*
X5791937D01*
X5792182Y6474657D01*
X5792674D01*
X5793412Y6474411D01*
X5794149Y6474288D01*
X5795133Y6474042D01*
X5797223Y6473428D01*
X5799682Y6472690D01*
X5802386Y6471584D01*
X5804968Y6470354D01*
X5807427Y6468879D01*
X5807549D01*
X5807672Y6468633D01*
X5808410Y6468141D01*
X5809639Y6467158D01*
X5810992Y6465806D01*
X5812590Y6463962D01*
X5814311Y6461995D01*
X5816032Y6459536D01*
X5817507Y6456708D01*
Y6456586D01*
X5817630Y6456340D01*
X5817876Y6455971D01*
X5818122Y6455356D01*
X5818368Y6454619D01*
X5818737Y6453758D01*
X5819105Y6452774D01*
X5819474Y6451668D01*
X5820212Y6449086D01*
X5820827Y6446136D01*
X5821318Y6442940D01*
X5821441Y6439497D01*
Y6439374D01*
Y6438760D01*
X5821318Y6437899D01*
Y6436793D01*
X5821072Y6435441D01*
X5820949Y6433842D01*
X5820581Y6432121D01*
X5820212Y6430154D01*
X5819597Y6428064D01*
X5818983Y6425852D01*
X5818122Y6423639D01*
X5817138Y6421303D01*
X5815909Y6418967D01*
X5814557Y6416754D01*
X5812959Y6414541D01*
X5811115Y6412329D01*
X5810992Y6412206D01*
X5810623Y6411837D01*
X5810008Y6411345D01*
X5809148Y6410607D01*
X5807918Y6409747D01*
X5806443Y6408886D01*
X5804722Y6407780D01*
X5802632Y6406796D01*
X5800296Y6405813D01*
X5797592Y6404829D01*
X5794641Y6403846D01*
X5791199Y6402985D01*
X5787511Y6402248D01*
X5783454Y6401756D01*
X5779028Y6401387D01*
X5774234Y6401264D01*
X5741902D01*
Y6350000D01*
X5725182D01*
Y6476009D01*
X5776938D01*
X5778291Y6475886D01*
D02*
G37*
G36*
X5565243Y6350000D02*
X5546310D01*
X5531681Y6388110D01*
X5478819D01*
X5465050Y6350000D01*
X5447470D01*
X5495661Y6476009D01*
X5513732D01*
X5565243Y6350000D01*
D02*
G37*
G36*
X5382437Y6475886D02*
X5384035D01*
X5385633Y6475764D01*
X5389321Y6475518D01*
X5393009Y6475272D01*
X5396574Y6474780D01*
X5398296Y6474534D01*
X5399771Y6474165D01*
X5399894D01*
X5400263Y6474042D01*
X5400877Y6473919D01*
X5401615Y6473674D01*
X5402598Y6473428D01*
X5403582Y6473059D01*
X5404811Y6472567D01*
X5406163Y6472075D01*
X5409114Y6470846D01*
X5412187Y6469248D01*
X5415384Y6467404D01*
X5418334Y6465068D01*
X5418457Y6464945D01*
X5418826Y6464699D01*
X5419318Y6464208D01*
X5419932Y6463593D01*
X5420793Y6462732D01*
X5421776Y6461749D01*
X5422760Y6460519D01*
X5423989Y6459290D01*
X5425096Y6457815D01*
X5426325Y6456094D01*
X5427554Y6454373D01*
X5428784Y6452529D01*
X5430013Y6450439D01*
X5431119Y6448226D01*
X5433209Y6443554D01*
Y6443431D01*
X5433455Y6442940D01*
X5433701Y6442202D01*
X5433947Y6441219D01*
X5434439Y6439989D01*
X5434808Y6438514D01*
X5435299Y6436793D01*
X5435791Y6434949D01*
X5436160Y6432859D01*
X5436652Y6430523D01*
X5437143Y6428064D01*
X5437512Y6425483D01*
X5437758Y6422655D01*
X5438004Y6419828D01*
X5438250Y6413681D01*
Y6413558D01*
Y6413066D01*
Y6412329D01*
Y6411222D01*
X5438127Y6409993D01*
Y6408518D01*
X5438004Y6406919D01*
X5437881Y6405075D01*
X5437635Y6403108D01*
X5437389Y6401141D01*
X5436774Y6396839D01*
X5435914Y6392413D01*
X5434808Y6388110D01*
Y6387987D01*
X5434685Y6387618D01*
X5434439Y6387004D01*
X5434193Y6386266D01*
X5433824Y6385283D01*
X5433455Y6384176D01*
X5432963Y6382947D01*
X5432472Y6381717D01*
X5431242Y6378767D01*
X5429767Y6375694D01*
X5428046Y6372620D01*
X5426202Y6369793D01*
Y6369670D01*
X5425956Y6369424D01*
X5425710Y6369055D01*
X5425341Y6368563D01*
X5424235Y6367334D01*
X5422883Y6365613D01*
X5421162Y6363769D01*
X5419195Y6361925D01*
X5417105Y6360081D01*
X5414769Y6358360D01*
X5414646D01*
X5414523Y6358237D01*
X5414154Y6357991D01*
X5413663Y6357622D01*
X5413048Y6357376D01*
X5412310Y6356884D01*
X5410589Y6356024D01*
X5408376Y6355040D01*
X5405795Y6353934D01*
X5402844Y6352950D01*
X5399648Y6352090D01*
X5399525D01*
X5399279Y6351967D01*
X5398787Y6351844D01*
X5398050Y6351721D01*
X5397312Y6351598D01*
X5396329Y6351475D01*
X5395099Y6351229D01*
X5393870Y6351106D01*
X5392395Y6350861D01*
X5390919Y6350615D01*
X5387477Y6350369D01*
X5383666Y6350123D01*
X5379486Y6350000D01*
X5334000D01*
Y6476009D01*
X5381084D01*
X5382437Y6475886D01*
D02*
G37*
G36*
X6360639Y6478100D02*
X6362114Y6477977D01*
X6363958Y6477731D01*
X6365925Y6477485D01*
X6368138Y6477239D01*
X6370596Y6476747D01*
X6373055Y6476133D01*
X6375637Y6475518D01*
X6378341Y6474657D01*
X6381046Y6473797D01*
X6383751Y6472567D01*
X6386455Y6471338D01*
X6389160Y6469863D01*
X6389283Y6469740D01*
X6389774Y6469494D01*
X6390512Y6469002D01*
X6391495Y6468388D01*
X6392602Y6467527D01*
X6393954Y6466421D01*
X6395429Y6465191D01*
X6397151Y6463839D01*
X6398749Y6462241D01*
X6400593Y6460520D01*
X6402314Y6458553D01*
X6404158Y6456463D01*
X6405879Y6454250D01*
X6407477Y6451791D01*
X6409075Y6449210D01*
X6410551Y6446505D01*
X6410673Y6446382D01*
X6410919Y6445890D01*
X6411288Y6445030D01*
X6411657Y6443923D01*
X6412272Y6442448D01*
X6412886Y6440850D01*
X6413501Y6438883D01*
X6414239Y6436670D01*
X6414976Y6434334D01*
X6415591Y6431753D01*
X6416206Y6428925D01*
X6416820Y6425975D01*
X6417189Y6422901D01*
X6417558Y6419705D01*
X6417804Y6416263D01*
X6417927Y6412821D01*
Y6412575D01*
Y6411960D01*
Y6410977D01*
X6417804Y6409624D01*
X6417681Y6407903D01*
X6417558Y6405936D01*
X6417312Y6403723D01*
X6416943Y6401388D01*
X6416574Y6398806D01*
X6416083Y6395978D01*
X6415468Y6393151D01*
X6414607Y6390323D01*
X6413747Y6387250D01*
X6412763Y6384299D01*
X6411534Y6381349D01*
X6410182Y6378521D01*
X6410059Y6378398D01*
X6409813Y6377907D01*
X6409321Y6377046D01*
X6408707Y6376063D01*
X6407969Y6374833D01*
X6406985Y6373358D01*
X6405879Y6371760D01*
X6404527Y6370039D01*
X6403051Y6368195D01*
X6401453Y6366351D01*
X6399609Y6364384D01*
X6397642Y6362540D01*
X6395552Y6360696D01*
X6393217Y6358852D01*
X6390758Y6357253D01*
X6388176Y6355655D01*
X6388053Y6355532D01*
X6387562Y6355287D01*
X6386824Y6354918D01*
X6385717Y6354426D01*
X6384365Y6353811D01*
X6382890Y6353197D01*
X6381046Y6352459D01*
X6379079Y6351844D01*
X6376866Y6351107D01*
X6374530Y6350369D01*
X6371949Y6349754D01*
X6369244Y6349140D01*
X6366539Y6348648D01*
X6363589Y6348279D01*
X6360639Y6348033D01*
X6357565Y6347910D01*
X6355844D01*
X6354615Y6348033D01*
X6353017Y6348156D01*
X6351172Y6348402D01*
X6349205Y6348648D01*
X6346870Y6349017D01*
X6344534Y6349386D01*
X6341952Y6350000D01*
X6339371Y6350615D01*
X6336666Y6351475D01*
X6333838Y6352459D01*
X6331134Y6353565D01*
X6328429Y6354918D01*
X6325725Y6356393D01*
X6325602Y6356516D01*
X6325110Y6356762D01*
X6324372Y6357253D01*
X6323389Y6357991D01*
X6322283Y6358852D01*
X6320930Y6359958D01*
X6319455Y6361187D01*
X6317857Y6362540D01*
X6316136Y6364138D01*
X6314415Y6365859D01*
X6312571Y6367826D01*
X6310849Y6369916D01*
X6309128Y6372129D01*
X6307407Y6374587D01*
X6305932Y6377169D01*
X6304457Y6379874D01*
X6304334Y6379997D01*
X6304211Y6380488D01*
X6303842Y6381349D01*
X6303350Y6382455D01*
X6302859Y6383808D01*
X6302244Y6385406D01*
X6301506Y6387373D01*
X6300892Y6389340D01*
X6300277Y6391676D01*
X6299539Y6394134D01*
X6298925Y6396716D01*
X6298433Y6399421D01*
X6297941Y6402248D01*
X6297695Y6405199D01*
X6297449Y6408272D01*
X6297326Y6411345D01*
Y6411468D01*
Y6411714D01*
Y6412083D01*
Y6412698D01*
X6297449Y6413435D01*
Y6414419D01*
Y6415402D01*
X6297572Y6416509D01*
X6297818Y6419213D01*
X6298187Y6422164D01*
X6298802Y6425606D01*
X6299416Y6429294D01*
X6300277Y6433105D01*
X6301383Y6437162D01*
X6302859Y6441219D01*
X6304457Y6445276D01*
X6306424Y6449333D01*
X6308637Y6453266D01*
X6311218Y6456955D01*
X6314169Y6460397D01*
X6314415Y6460643D01*
X6314906Y6461134D01*
X6315890Y6461995D01*
X6317242Y6463224D01*
X6318840Y6464577D01*
X6320930Y6466052D01*
X6323266Y6467650D01*
X6325971Y6469371D01*
X6328921Y6470969D01*
X6332240Y6472567D01*
X6335805Y6474043D01*
X6339616Y6475395D01*
X6343796Y6476624D01*
X6348222Y6477485D01*
X6352771Y6477977D01*
X6357688Y6478223D01*
X6359409D01*
X6360639Y6478100D01*
D02*
G37*
G36*
X6173284Y6314963D02*
X6070878D01*
Y6326151D01*
X6173284D01*
Y6314963D01*
D02*
G37*
G36*
X6327923Y6730378D02*
X6328907D01*
X6329890Y6730256D01*
X6331120Y6730133D01*
X6332472Y6730010D01*
X6335422Y6729395D01*
X6338496Y6728657D01*
X6341815Y6727551D01*
X6345134Y6726076D01*
X6345257D01*
X6345503Y6725830D01*
X6345995Y6725584D01*
X6346610Y6725215D01*
X6347347Y6724846D01*
X6348085Y6724232D01*
X6350052Y6722879D01*
X6352265Y6721158D01*
X6354478Y6719068D01*
X6356567Y6716610D01*
X6358411Y6713905D01*
Y6713782D01*
X6358657Y6713536D01*
X6358903Y6713167D01*
X6359149Y6712553D01*
X6359518Y6711938D01*
X6359887Y6711078D01*
X6360747Y6708988D01*
X6361608Y6706652D01*
X6362345Y6703824D01*
X6362837Y6700874D01*
X6363083Y6697677D01*
Y6697555D01*
Y6697309D01*
Y6696940D01*
X6362960Y6696325D01*
Y6695588D01*
X6362837Y6694727D01*
X6362591Y6692760D01*
X6361977Y6690424D01*
X6361239Y6687966D01*
X6360133Y6685384D01*
X6358657Y6682802D01*
Y6682679D01*
X6358411Y6682556D01*
X6358166Y6682188D01*
X6357797Y6681696D01*
X6356813Y6680466D01*
X6355338Y6678991D01*
X6353494Y6677270D01*
X6351281Y6675549D01*
X6348700Y6673828D01*
X6345626Y6672230D01*
X6345749D01*
X6346118Y6672107D01*
X6346733Y6671984D01*
X6347470Y6671738D01*
X6348454Y6671369D01*
X6349437Y6671000D01*
X6352019Y6669894D01*
X6354723Y6668542D01*
X6357674Y6666575D01*
X6360501Y6664362D01*
X6361731Y6663010D01*
X6362960Y6661534D01*
X6363083Y6661411D01*
X6363206Y6661165D01*
X6363575Y6660674D01*
X6363944Y6660059D01*
X6364435Y6659321D01*
X6364927Y6658338D01*
X6365542Y6657232D01*
X6366156Y6656002D01*
X6366648Y6654527D01*
X6367263Y6653052D01*
X6367755Y6651331D01*
X6368246Y6649610D01*
X6368984Y6645676D01*
X6369107Y6643463D01*
X6369230Y6641250D01*
Y6641127D01*
Y6640512D01*
X6369107Y6639652D01*
Y6638545D01*
X6368861Y6637070D01*
X6368615Y6635472D01*
X6368246Y6633628D01*
X6367755Y6631538D01*
X6367140Y6629448D01*
X6366279Y6627235D01*
X6365296Y6624899D01*
X6364189Y6622564D01*
X6362714Y6620228D01*
X6361116Y6617769D01*
X6359272Y6615556D01*
X6357182Y6613343D01*
X6357059Y6613220D01*
X6356690Y6612852D01*
X6355953Y6612237D01*
X6354969Y6611622D01*
X6353863Y6610639D01*
X6352388Y6609778D01*
X6350789Y6608672D01*
X6348822Y6607688D01*
X6346733Y6606582D01*
X6344397Y6605475D01*
X6341938Y6604615D01*
X6339233Y6603754D01*
X6336406Y6603017D01*
X6333333Y6602402D01*
X6330136Y6602033D01*
X6326694Y6601910D01*
X6325956D01*
X6325096Y6602033D01*
X6323989D01*
X6322514Y6602156D01*
X6320916Y6602402D01*
X6319072Y6602771D01*
X6316982Y6603140D01*
X6314892Y6603631D01*
X6312679Y6604369D01*
X6310343Y6605107D01*
X6308131Y6606090D01*
X6305795Y6607197D01*
X6303459Y6608549D01*
X6301246Y6610024D01*
X6299156Y6611745D01*
X6299033Y6611868D01*
X6298665Y6612237D01*
X6298173Y6612729D01*
X6297435Y6613589D01*
X6296575Y6614573D01*
X6295591Y6615679D01*
X6294608Y6617031D01*
X6293501Y6618630D01*
X6292395Y6620351D01*
X6291288Y6622318D01*
X6290305Y6624408D01*
X6289321Y6626743D01*
X6288461Y6629202D01*
X6287723Y6631784D01*
X6287109Y6634488D01*
X6286740Y6637439D01*
X6302230Y6639529D01*
Y6639406D01*
X6302353Y6638914D01*
X6302476Y6638299D01*
X6302721Y6637316D01*
X6302967Y6636332D01*
X6303336Y6634980D01*
X6303828Y6633628D01*
X6304320Y6632153D01*
X6305549Y6629079D01*
X6307147Y6625883D01*
X6308991Y6622932D01*
X6310098Y6621703D01*
X6311204Y6620474D01*
X6311327D01*
X6311450Y6620228D01*
X6311819Y6619982D01*
X6312310Y6619613D01*
X6312925Y6619121D01*
X6313663Y6618630D01*
X6315507Y6617646D01*
X6317843Y6616540D01*
X6320547Y6615556D01*
X6323498Y6614942D01*
X6325096Y6614819D01*
X6326817Y6614696D01*
X6327923D01*
X6328661Y6614819D01*
X6329644Y6614942D01*
X6330628Y6615064D01*
X6331857Y6615310D01*
X6333210Y6615679D01*
X6336160Y6616540D01*
X6337635Y6617154D01*
X6339233Y6617892D01*
X6340832Y6618753D01*
X6342307Y6619736D01*
X6343782Y6620842D01*
X6345257Y6622195D01*
X6345380Y6622318D01*
X6345626Y6622564D01*
X6345995Y6622932D01*
X6346487Y6623547D01*
X6346978Y6624285D01*
X6347593Y6625145D01*
X6348331Y6626129D01*
X6349068Y6627358D01*
X6349683Y6628587D01*
X6350421Y6630063D01*
X6351650Y6633259D01*
X6352019Y6634980D01*
X6352388Y6636824D01*
X6352633Y6638791D01*
X6352756Y6640881D01*
Y6641004D01*
Y6641373D01*
Y6641865D01*
X6352633Y6642725D01*
X6352511Y6643586D01*
X6352388Y6644692D01*
X6352142Y6645798D01*
X6351896Y6647151D01*
X6351035Y6649855D01*
X6350544Y6651331D01*
X6349806Y6652806D01*
X6348945Y6654281D01*
X6348085Y6655756D01*
X6346978Y6657109D01*
X6345749Y6658461D01*
X6345626Y6658584D01*
X6345380Y6658707D01*
X6345011Y6659076D01*
X6344520Y6659567D01*
X6343782Y6660059D01*
X6342922Y6660674D01*
X6342061Y6661288D01*
X6340955Y6661903D01*
X6339725Y6662518D01*
X6338373Y6663132D01*
X6335299Y6664239D01*
X6331857Y6665099D01*
X6330013Y6665222D01*
X6328046Y6665345D01*
X6327309D01*
X6326325Y6665222D01*
X6325096Y6665099D01*
X6323498Y6664977D01*
X6321654Y6664731D01*
X6319564Y6664239D01*
X6317228Y6663747D01*
X6318949Y6677270D01*
X6319195D01*
X6319810Y6677147D01*
X6320670Y6677024D01*
X6322391D01*
X6323129Y6677147D01*
X6323989D01*
X6324973Y6677270D01*
X6326079Y6677516D01*
X6327309Y6677639D01*
X6330136Y6678254D01*
X6333087Y6679237D01*
X6336160Y6680466D01*
X6339233Y6682188D01*
X6339356Y6682310D01*
X6339602Y6682433D01*
X6339971Y6682679D01*
X6340463Y6683171D01*
X6341077Y6683663D01*
X6341815Y6684400D01*
X6342430Y6685138D01*
X6343290Y6686122D01*
X6344028Y6687105D01*
X6344643Y6688334D01*
X6345380Y6689687D01*
X6345995Y6691039D01*
X6346487Y6692637D01*
X6346855Y6694358D01*
X6347101Y6696079D01*
X6347224Y6698046D01*
Y6698169D01*
Y6698415D01*
Y6698907D01*
X6347101Y6699522D01*
Y6700259D01*
X6346978Y6701120D01*
X6346487Y6703087D01*
X6345872Y6705300D01*
X6344766Y6707635D01*
X6343413Y6709971D01*
X6342430Y6711078D01*
X6341446Y6712184D01*
X6341323Y6712307D01*
X6341200Y6712430D01*
X6340832Y6712676D01*
X6340463Y6713044D01*
X6339111Y6714028D01*
X6337389Y6715011D01*
X6335299Y6715995D01*
X6332718Y6716978D01*
X6329767Y6717593D01*
X6328292Y6717839D01*
X6325710D01*
X6325096Y6717716D01*
X6324235D01*
X6323375Y6717593D01*
X6321285Y6717101D01*
X6318826Y6716487D01*
X6316367Y6715380D01*
X6313786Y6714028D01*
X6312556Y6713044D01*
X6311450Y6712061D01*
X6311327Y6711938D01*
X6311204Y6711815D01*
X6310835Y6711446D01*
X6310466Y6710955D01*
X6309975Y6710463D01*
X6309483Y6709725D01*
X6308868Y6708865D01*
X6308254Y6707881D01*
X6307639Y6706652D01*
X6306901Y6705422D01*
X6306287Y6704070D01*
X6305672Y6702472D01*
X6305180Y6700874D01*
X6304565Y6699030D01*
X6304197Y6697186D01*
X6303828Y6695096D01*
X6288338Y6697800D01*
Y6697923D01*
X6288461Y6698538D01*
X6288707Y6699276D01*
X6288953Y6700382D01*
X6289321Y6701611D01*
X6289813Y6703210D01*
X6290305Y6704808D01*
X6291043Y6706652D01*
X6291780Y6708496D01*
X6292764Y6710463D01*
X6293747Y6712553D01*
X6294976Y6714520D01*
X6296206Y6716487D01*
X6297681Y6718454D01*
X6299402Y6720175D01*
X6301123Y6721896D01*
X6301246Y6722019D01*
X6301615Y6722265D01*
X6302107Y6722633D01*
X6302967Y6723248D01*
X6303951Y6723863D01*
X6305057Y6724600D01*
X6306532Y6725461D01*
X6308008Y6726199D01*
X6309729Y6727059D01*
X6311696Y6727797D01*
X6313786Y6728534D01*
X6315999Y6729149D01*
X6318334Y6729764D01*
X6320793Y6730133D01*
X6323498Y6730378D01*
X6326202Y6730501D01*
X6327186D01*
X6327923Y6730378D01*
D02*
G37*
G36*
X5444505Y6604000D02*
X5428401D01*
Y6709479D01*
X5391643Y6604000D01*
X5376645D01*
X5340133Y6711323D01*
Y6604000D01*
X5324028D01*
Y6730009D01*
X5349107D01*
X5378980Y6640758D01*
Y6640635D01*
X5379226Y6640266D01*
X5379349Y6639529D01*
X5379718Y6638668D01*
X5379964Y6637684D01*
X5380456Y6636455D01*
X5380824Y6635103D01*
X5381316Y6633751D01*
X5382300Y6630677D01*
X5383283Y6627604D01*
X5384267Y6624653D01*
X5384635Y6623301D01*
X5385004Y6622072D01*
Y6622195D01*
X5385127Y6622440D01*
X5385250Y6622809D01*
X5385373Y6623301D01*
X5385619Y6624039D01*
X5385988Y6624899D01*
X5386234Y6626006D01*
X5386725Y6627235D01*
X5387094Y6628464D01*
X5387586Y6630062D01*
X5388201Y6631661D01*
X5388815Y6633505D01*
X5389430Y6635472D01*
X5390168Y6637562D01*
X5390905Y6639774D01*
X5391766Y6642233D01*
X5422008Y6730009D01*
X5444505D01*
Y6604000D01*
D02*
G37*
G36*
X6275798Y6715134D02*
X6234123D01*
Y6604000D01*
X6217404D01*
Y6715134D01*
X6175852D01*
Y6730010D01*
X6275798D01*
Y6715134D01*
D02*
G37*
G36*
X5984071Y6729887D02*
X5985547D01*
X5988620Y6729764D01*
X5991816Y6729518D01*
X5994890Y6729149D01*
X5996365Y6729026D01*
X5997594Y6728780D01*
X5997717D01*
X5997963Y6728657D01*
X5998455D01*
X5999192Y6728411D01*
X5999930Y6728289D01*
X6000914Y6728043D01*
X6003003Y6727428D01*
X6005462Y6726690D01*
X6008167Y6725584D01*
X6010748Y6724355D01*
X6013207Y6722879D01*
X6013330D01*
X6013453Y6722633D01*
X6014191Y6722142D01*
X6015420Y6721158D01*
X6016772Y6719806D01*
X6018370Y6717962D01*
X6020092Y6715995D01*
X6021813Y6713536D01*
X6023288Y6710709D01*
Y6710586D01*
X6023411Y6710340D01*
X6023657Y6709971D01*
X6023903Y6709356D01*
X6024148Y6708619D01*
X6024517Y6707758D01*
X6024886Y6706775D01*
X6025255Y6705668D01*
X6025993Y6703087D01*
X6026607Y6700136D01*
X6027099Y6696940D01*
X6027222Y6693498D01*
Y6693375D01*
Y6692760D01*
X6027099Y6691899D01*
Y6690793D01*
X6026853Y6689441D01*
X6026730Y6687843D01*
X6026361Y6686122D01*
X6025993Y6684155D01*
X6025378Y6682065D01*
X6024763Y6679852D01*
X6023903Y6677639D01*
X6022919Y6675303D01*
X6021690Y6672967D01*
X6020337Y6670755D01*
X6018739Y6668542D01*
X6016895Y6666329D01*
X6016772Y6666206D01*
X6016404Y6665837D01*
X6015789Y6665345D01*
X6014928Y6664608D01*
X6013699Y6663747D01*
X6012224Y6662887D01*
X6010503Y6661780D01*
X6008413Y6660797D01*
X6006077Y6659813D01*
X6003372Y6658830D01*
X6000422Y6657846D01*
X5996980Y6656986D01*
X5993292Y6656248D01*
X5989235Y6655756D01*
X5984809Y6655388D01*
X5980014Y6655265D01*
X5947682D01*
Y6604000D01*
X5930963D01*
Y6730010D01*
X5982719D01*
X5984071Y6729887D01*
D02*
G37*
G36*
X5766352Y6729886D02*
X5767950D01*
X5769794Y6729764D01*
X5771638Y6729641D01*
X5775818Y6729149D01*
X5780121Y6728534D01*
X5784177Y6727674D01*
X5786021Y6727182D01*
X5787743Y6726567D01*
X5787865D01*
X5788111Y6726444D01*
X5788603Y6726198D01*
X5789218Y6725953D01*
X5789955Y6725461D01*
X5790816Y6724969D01*
X5792783Y6723740D01*
X5794996Y6722141D01*
X5797332Y6720052D01*
X5799667Y6717470D01*
X5801757Y6714519D01*
X5801880Y6714397D01*
X5802003Y6714151D01*
X5802249Y6713659D01*
X5802618Y6713044D01*
X5802987Y6712184D01*
X5803478Y6711200D01*
X5803970Y6710217D01*
X5804462Y6708987D01*
X5805322Y6706160D01*
X5806183Y6702963D01*
X5806798Y6699399D01*
X5807044Y6697555D01*
Y6695588D01*
Y6695465D01*
Y6694973D01*
Y6694235D01*
X5806921Y6693375D01*
X5806798Y6692145D01*
X5806552Y6690916D01*
X5806306Y6689318D01*
X5805937Y6687719D01*
X5805445Y6685998D01*
X5804954Y6684154D01*
X5804216Y6682310D01*
X5803355Y6680343D01*
X5802372Y6678499D01*
X5801143Y6676532D01*
X5799913Y6674688D01*
X5798315Y6672967D01*
X5798192Y6672844D01*
X5797946Y6672598D01*
X5797454Y6672107D01*
X5796717Y6671492D01*
X5795733Y6670754D01*
X5794627Y6669894D01*
X5793275Y6669033D01*
X5791677Y6668050D01*
X5789955Y6667066D01*
X5787988Y6666083D01*
X5785776Y6665099D01*
X5783317Y6664116D01*
X5780735Y6663255D01*
X5777908Y6662518D01*
X5774834Y6661780D01*
X5771515Y6661288D01*
X5771638D01*
X5771761Y6661165D01*
X5772130Y6660919D01*
X5772621Y6660796D01*
X5773851Y6660059D01*
X5775326Y6659321D01*
X5776924Y6658338D01*
X5778522Y6657354D01*
X5780121Y6656125D01*
X5781596Y6655018D01*
X5781719Y6654896D01*
X5781965Y6654773D01*
X5782333Y6654281D01*
X5782825Y6653789D01*
X5783440Y6653174D01*
X5784177Y6652314D01*
X5785038Y6651453D01*
X5786021Y6650347D01*
X5788111Y6647888D01*
X5790447Y6645061D01*
X5792906Y6641741D01*
X5795365Y6638176D01*
X5817124Y6604000D01*
X5796348Y6604000D01*
X5779629Y6630185D01*
X5779506Y6630308D01*
X5779260Y6630677D01*
X5778891Y6631292D01*
X5778399Y6632029D01*
X5777785Y6633013D01*
X5777047Y6634119D01*
X5775449Y6636578D01*
X5773482Y6639406D01*
X5771515Y6642233D01*
X5769425Y6645061D01*
X5768565Y6646290D01*
X5767581Y6647519D01*
Y6647642D01*
X5767335Y6647765D01*
X5766843Y6648503D01*
X5765860Y6649609D01*
X5764754Y6650839D01*
X5763401Y6652191D01*
X5762049Y6653543D01*
X5760574Y6654896D01*
X5759098Y6655879D01*
X5758976Y6656002D01*
X5758484Y6656248D01*
X5757746Y6656740D01*
X5756763Y6657231D01*
X5755656Y6657846D01*
X5754427Y6658338D01*
X5753075Y6658952D01*
X5751599Y6659321D01*
X5751476D01*
X5751108Y6659444D01*
X5750370Y6659567D01*
X5749387Y6659690D01*
X5748157D01*
X5746559Y6659813D01*
X5744592Y6659936D01*
X5723078D01*
Y6604000D01*
X5706359D01*
Y6730009D01*
X5764999D01*
X5766352Y6729886D01*
D02*
G37*
G36*
X5680051Y6715134D02*
X5605674D01*
Y6676655D01*
X5675379D01*
Y6661780D01*
X5605674D01*
Y6618875D01*
X5683001D01*
Y6604000D01*
X5588955D01*
Y6730009D01*
X5680051D01*
Y6715134D01*
D02*
G37*
G36*
X5524291Y6729886D02*
X5525766D01*
X5528839Y6729764D01*
X5532036Y6729518D01*
X5535109Y6729149D01*
X5536584Y6729026D01*
X5537814Y6728780D01*
X5537937D01*
X5538182Y6728657D01*
X5538674D01*
X5539412Y6728411D01*
X5540149Y6728288D01*
X5541133Y6728042D01*
X5543223Y6727428D01*
X5545682Y6726690D01*
X5548386Y6725584D01*
X5550968Y6724354D01*
X5553427Y6722879D01*
X5553549D01*
X5553672Y6722633D01*
X5554410Y6722141D01*
X5555639Y6721158D01*
X5556992Y6719806D01*
X5558590Y6717962D01*
X5560311Y6715995D01*
X5562032Y6713536D01*
X5563507Y6710708D01*
Y6710586D01*
X5563630Y6710340D01*
X5563876Y6709971D01*
X5564122Y6709356D01*
X5564368Y6708619D01*
X5564737Y6707758D01*
X5565105Y6706774D01*
X5565474Y6705668D01*
X5566212Y6703086D01*
X5566827Y6700136D01*
X5567318Y6696940D01*
X5567441Y6693497D01*
Y6693374D01*
Y6692760D01*
X5567318Y6691899D01*
Y6690793D01*
X5567072Y6689441D01*
X5566949Y6687842D01*
X5566581Y6686121D01*
X5566212Y6684154D01*
X5565597Y6682064D01*
X5564983Y6679852D01*
X5564122Y6677639D01*
X5563138Y6675303D01*
X5561909Y6672967D01*
X5560557Y6670754D01*
X5558959Y6668541D01*
X5557115Y6666329D01*
X5556992Y6666206D01*
X5556623Y6665837D01*
X5556008Y6665345D01*
X5555148Y6664607D01*
X5553918Y6663747D01*
X5552443Y6662886D01*
X5550722Y6661780D01*
X5548632Y6660796D01*
X5546296Y6659813D01*
X5543592Y6658829D01*
X5540641Y6657846D01*
X5537199Y6656985D01*
X5533511Y6656248D01*
X5529454Y6655756D01*
X5525028Y6655387D01*
X5520234Y6655264D01*
X5487902D01*
Y6604000D01*
X5471182D01*
Y6730009D01*
X5522938D01*
X5524291Y6729886D01*
D02*
G37*
G36*
X5311243Y6604000D02*
X5292310D01*
X5277681Y6642110D01*
X5224819D01*
X5211050Y6604000D01*
X5193470D01*
X5241661Y6730009D01*
X5259732D01*
X5311243Y6604000D01*
D02*
G37*
G36*
X5128437Y6729886D02*
X5130035D01*
X5131633Y6729764D01*
X5135321Y6729518D01*
X5139009Y6729272D01*
X5142574Y6728780D01*
X5144296Y6728534D01*
X5145771Y6728165D01*
X5145894D01*
X5146263Y6728042D01*
X5146877Y6727919D01*
X5147615Y6727674D01*
X5148598Y6727428D01*
X5149582Y6727059D01*
X5150811Y6726567D01*
X5152163Y6726075D01*
X5155114Y6724846D01*
X5158187Y6723248D01*
X5161384Y6721404D01*
X5164334Y6719068D01*
X5164457Y6718945D01*
X5164826Y6718699D01*
X5165318Y6718208D01*
X5165932Y6717593D01*
X5166793Y6716732D01*
X5167776Y6715749D01*
X5168760Y6714519D01*
X5169989Y6713290D01*
X5171096Y6711815D01*
X5172325Y6710094D01*
X5173554Y6708373D01*
X5174784Y6706529D01*
X5176013Y6704439D01*
X5177119Y6702226D01*
X5179209Y6697554D01*
Y6697431D01*
X5179455Y6696940D01*
X5179701Y6696202D01*
X5179947Y6695219D01*
X5180439Y6693989D01*
X5180808Y6692514D01*
X5181299Y6690793D01*
X5181791Y6688949D01*
X5182160Y6686859D01*
X5182652Y6684523D01*
X5183143Y6682064D01*
X5183512Y6679483D01*
X5183758Y6676655D01*
X5184004Y6673828D01*
X5184250Y6667681D01*
Y6667558D01*
Y6667066D01*
Y6666329D01*
Y6665222D01*
X5184127Y6663993D01*
Y6662518D01*
X5184004Y6660919D01*
X5183881Y6659075D01*
X5183635Y6657108D01*
X5183389Y6655141D01*
X5182774Y6650839D01*
X5181914Y6646413D01*
X5180808Y6642110D01*
Y6641987D01*
X5180685Y6641618D01*
X5180439Y6641004D01*
X5180193Y6640266D01*
X5179824Y6639283D01*
X5179455Y6638176D01*
X5178963Y6636947D01*
X5178472Y6635717D01*
X5177242Y6632767D01*
X5175767Y6629694D01*
X5174046Y6626620D01*
X5172202Y6623793D01*
Y6623670D01*
X5171956Y6623424D01*
X5171710Y6623055D01*
X5171341Y6622563D01*
X5170235Y6621334D01*
X5168883Y6619613D01*
X5167162Y6617769D01*
X5165195Y6615925D01*
X5163105Y6614081D01*
X5160769Y6612360D01*
X5160646D01*
X5160523Y6612237D01*
X5160154Y6611991D01*
X5159663Y6611622D01*
X5159048Y6611376D01*
X5158310Y6610884D01*
X5156589Y6610024D01*
X5154376Y6609040D01*
X5151795Y6607934D01*
X5148844Y6606950D01*
X5145648Y6606090D01*
X5145525D01*
X5145279Y6605967D01*
X5144787Y6605844D01*
X5144050Y6605721D01*
X5143312Y6605598D01*
X5142329Y6605475D01*
X5141099Y6605229D01*
X5139870Y6605106D01*
X5138395Y6604861D01*
X5136919Y6604615D01*
X5133477Y6604369D01*
X5129666Y6604123D01*
X5125486Y6604000D01*
X5080000D01*
Y6730009D01*
X5127084D01*
X5128437Y6729886D01*
D02*
G37*
G36*
X6106639Y6732100D02*
X6108114Y6731977D01*
X6109958Y6731731D01*
X6111925Y6731485D01*
X6114138Y6731239D01*
X6116596Y6730747D01*
X6119055Y6730133D01*
X6121637Y6729518D01*
X6124341Y6728657D01*
X6127046Y6727797D01*
X6129751Y6726567D01*
X6132455Y6725338D01*
X6135160Y6723863D01*
X6135283Y6723740D01*
X6135774Y6723494D01*
X6136512Y6723002D01*
X6137495Y6722388D01*
X6138602Y6721527D01*
X6139954Y6720421D01*
X6141429Y6719191D01*
X6143151Y6717839D01*
X6144749Y6716241D01*
X6146593Y6714520D01*
X6148314Y6712553D01*
X6150158Y6710463D01*
X6151879Y6708250D01*
X6153477Y6705791D01*
X6155075Y6703210D01*
X6156551Y6700505D01*
X6156673Y6700382D01*
X6156919Y6699890D01*
X6157288Y6699030D01*
X6157657Y6697923D01*
X6158272Y6696448D01*
X6158886Y6694850D01*
X6159501Y6692883D01*
X6160239Y6690670D01*
X6160976Y6688334D01*
X6161591Y6685753D01*
X6162206Y6682925D01*
X6162820Y6679975D01*
X6163189Y6676901D01*
X6163558Y6673705D01*
X6163804Y6670263D01*
X6163927Y6666821D01*
Y6666575D01*
Y6665960D01*
Y6664977D01*
X6163804Y6663624D01*
X6163681Y6661903D01*
X6163558Y6659936D01*
X6163312Y6657723D01*
X6162943Y6655388D01*
X6162574Y6652806D01*
X6162083Y6649978D01*
X6161468Y6647151D01*
X6160607Y6644323D01*
X6159747Y6641250D01*
X6158763Y6638299D01*
X6157534Y6635349D01*
X6156182Y6632521D01*
X6156059Y6632398D01*
X6155813Y6631907D01*
X6155321Y6631046D01*
X6154707Y6630063D01*
X6153969Y6628833D01*
X6152985Y6627358D01*
X6151879Y6625760D01*
X6150527Y6624039D01*
X6149051Y6622195D01*
X6147453Y6620351D01*
X6145609Y6618384D01*
X6143642Y6616540D01*
X6141552Y6614696D01*
X6139217Y6612852D01*
X6136758Y6611253D01*
X6134176Y6609655D01*
X6134053Y6609532D01*
X6133562Y6609287D01*
X6132824Y6608918D01*
X6131717Y6608426D01*
X6130365Y6607811D01*
X6128890Y6607197D01*
X6127046Y6606459D01*
X6125079Y6605844D01*
X6122866Y6605107D01*
X6120530Y6604369D01*
X6117949Y6603754D01*
X6115244Y6603140D01*
X6112539Y6602648D01*
X6109589Y6602279D01*
X6106639Y6602033D01*
X6103565Y6601910D01*
X6101844D01*
X6100615Y6602033D01*
X6099017Y6602156D01*
X6097172Y6602402D01*
X6095205Y6602648D01*
X6092870Y6603017D01*
X6090534Y6603386D01*
X6087952Y6604000D01*
X6085371Y6604615D01*
X6082666Y6605475D01*
X6079838Y6606459D01*
X6077134Y6607565D01*
X6074429Y6608918D01*
X6071725Y6610393D01*
X6071602Y6610516D01*
X6071110Y6610762D01*
X6070372Y6611253D01*
X6069389Y6611991D01*
X6068283Y6612852D01*
X6066930Y6613958D01*
X6065455Y6615187D01*
X6063857Y6616540D01*
X6062136Y6618138D01*
X6060415Y6619859D01*
X6058571Y6621826D01*
X6056849Y6623916D01*
X6055128Y6626129D01*
X6053407Y6628587D01*
X6051932Y6631169D01*
X6050457Y6633874D01*
X6050334Y6633997D01*
X6050211Y6634488D01*
X6049842Y6635349D01*
X6049350Y6636455D01*
X6048859Y6637808D01*
X6048244Y6639406D01*
X6047506Y6641373D01*
X6046892Y6643340D01*
X6046277Y6645676D01*
X6045539Y6648134D01*
X6044925Y6650716D01*
X6044433Y6653421D01*
X6043941Y6656248D01*
X6043695Y6659199D01*
X6043449Y6662272D01*
X6043326Y6665345D01*
Y6665468D01*
Y6665714D01*
Y6666083D01*
Y6666698D01*
X6043449Y6667435D01*
Y6668419D01*
Y6669402D01*
X6043572Y6670509D01*
X6043818Y6673213D01*
X6044187Y6676164D01*
X6044802Y6679606D01*
X6045416Y6683294D01*
X6046277Y6687105D01*
X6047383Y6691162D01*
X6048859Y6695219D01*
X6050457Y6699276D01*
X6052424Y6703333D01*
X6054637Y6707266D01*
X6057218Y6710955D01*
X6060169Y6714397D01*
X6060415Y6714643D01*
X6060906Y6715134D01*
X6061890Y6715995D01*
X6063242Y6717224D01*
X6064840Y6718577D01*
X6066930Y6720052D01*
X6069266Y6721650D01*
X6071971Y6723371D01*
X6074921Y6724969D01*
X6078240Y6726567D01*
X6081805Y6728043D01*
X6085616Y6729395D01*
X6089796Y6730624D01*
X6094222Y6731485D01*
X6098771Y6731977D01*
X6103688Y6732223D01*
X6105409D01*
X6106639Y6732100D01*
D02*
G37*
G36*
X5919284Y6568963D02*
X5816878D01*
Y6580151D01*
X5919284D01*
Y6568963D01*
D02*
G37*
%LPC*%
G36*
X4815864Y2697056D02*
X4776279Y2640137D01*
X4815864D01*
Y2697056D01*
D02*
G37*
G36*
X4707927Y2707014D02*
X4671783D01*
Y2662020D01*
X4705837D01*
X4706943Y2662143D01*
X4708295D01*
X4709771Y2662388D01*
X4711492Y2662511D01*
X4713213Y2662757D01*
X4717024Y2663495D01*
X4720835Y2664478D01*
X4722556Y2665216D01*
X4724277Y2665954D01*
X4725875Y2666937D01*
X4727228Y2667920D01*
X4727350Y2668043D01*
X4727473Y2668166D01*
X4727842Y2668535D01*
X4728334Y2669027D01*
X4728826Y2669642D01*
X4729440Y2670379D01*
X4730055Y2671240D01*
X4730670Y2672346D01*
X4731284Y2673453D01*
X4731899Y2674682D01*
X4732514Y2676157D01*
X4733006Y2677632D01*
X4733866Y2681075D01*
X4733989Y2682919D01*
X4734112Y2684886D01*
Y2685009D01*
Y2685254D01*
Y2685623D01*
Y2686238D01*
X4733989Y2686853D01*
X4733866Y2687713D01*
X4733620Y2689557D01*
X4733128Y2691647D01*
X4732391Y2693860D01*
X4731407Y2696196D01*
X4730055Y2698409D01*
Y2698532D01*
X4729932Y2698654D01*
X4729317Y2699269D01*
X4728457Y2700253D01*
X4727228Y2701482D01*
X4725752Y2702711D01*
X4723908Y2703941D01*
X4721818Y2704924D01*
X4719483Y2705785D01*
X4719237D01*
X4718622Y2706031D01*
X4718130D01*
X4717516Y2706154D01*
X4716778Y2706277D01*
X4716040Y2706399D01*
X4714934Y2706522D01*
X4713828Y2706645D01*
X4712598Y2706768D01*
X4711246D01*
X4709648Y2706891D01*
X4707927Y2707014D01*
D02*
G37*
G36*
X6493547Y2524134D02*
X6457403D01*
Y2479140D01*
X6491457D01*
X6492563Y2479263D01*
X6493915D01*
X6495391Y2479508D01*
X6497112Y2479631D01*
X6498833Y2479877D01*
X6502644Y2480615D01*
X6506455Y2481598D01*
X6508176Y2482336D01*
X6509897Y2483074D01*
X6511495Y2484057D01*
X6512848Y2485040D01*
X6512970Y2485163D01*
X6513093Y2485286D01*
X6513462Y2485655D01*
X6513954Y2486147D01*
X6514446Y2486762D01*
X6515060Y2487499D01*
X6515675Y2488360D01*
X6516290Y2489466D01*
X6516904Y2490573D01*
X6517519Y2491802D01*
X6518134Y2493277D01*
X6518626Y2494752D01*
X6519486Y2498195D01*
X6519609Y2500039D01*
X6519732Y2502006D01*
Y2502129D01*
Y2502374D01*
Y2502743D01*
Y2503358D01*
X6519609Y2503973D01*
X6519486Y2504833D01*
X6519240Y2506677D01*
X6518748Y2508767D01*
X6518011Y2510980D01*
X6517027Y2513316D01*
X6515675Y2515529D01*
Y2515652D01*
X6515552Y2515774D01*
X6514937Y2516389D01*
X6514077Y2517373D01*
X6512848Y2518602D01*
X6511372Y2519831D01*
X6509528Y2521061D01*
X6507438Y2522044D01*
X6505103Y2522905D01*
X6504857D01*
X6504242Y2523151D01*
X6503750D01*
X6503136Y2523274D01*
X6502398Y2523397D01*
X6501660Y2523519D01*
X6500554Y2523642D01*
X6499448Y2523765D01*
X6498218Y2523888D01*
X6496866D01*
X6495268Y2524011D01*
X6493547Y2524134D01*
D02*
G37*
G36*
X2802300Y6684996D02*
X2802177D01*
X2801562D01*
X2800824D01*
X2799718Y6684873D01*
X2798366D01*
X2796891Y6684750D01*
X2795046Y6684504D01*
X2793202Y6684381D01*
X2791113Y6684012D01*
X2789023Y6683766D01*
X2784474Y6682783D01*
X2779925Y6681430D01*
X2777713Y6680693D01*
X2775500Y6679709D01*
X2775377D01*
X2775008Y6679463D01*
X2774393Y6679218D01*
X2773533Y6678726D01*
X2772672Y6678234D01*
X2771566Y6677496D01*
X2768984Y6675898D01*
X2766034Y6673685D01*
X2763083Y6671104D01*
X2760256Y6668030D01*
X2758903Y6666309D01*
X2757674Y6664465D01*
X2757551Y6664342D01*
X2757428Y6663973D01*
X2757059Y6663482D01*
X2756690Y6662744D01*
X2756199Y6661761D01*
X2755707Y6660654D01*
X2755092Y6659425D01*
X2754478Y6657950D01*
X2753863Y6656351D01*
X2753248Y6654630D01*
X2752756Y6652786D01*
X2752265Y6650819D01*
X2751527Y6646517D01*
X2751404Y6644304D01*
X2751281Y6641968D01*
Y6641230D01*
X2751404Y6640247D01*
X2751527Y6639017D01*
X2751650Y6637419D01*
X2751896Y6635698D01*
X2752265Y6633731D01*
X2752756Y6631518D01*
X2753494Y6629183D01*
X2754232Y6626724D01*
X2755215Y6624265D01*
X2756445Y6621683D01*
X2757797Y6619102D01*
X2759395Y6616520D01*
X2761362Y6613939D01*
X2763452Y6611480D01*
X2763575Y6611357D01*
X2764067Y6610988D01*
X2764804Y6610373D01*
X2765788Y6609513D01*
X2767140Y6608529D01*
X2768738Y6607423D01*
X2770828Y6606316D01*
X2773041Y6605210D01*
X2775746Y6603981D01*
X2778696Y6602874D01*
X2782015Y6601768D01*
X2785703Y6600784D01*
X2789760Y6600047D01*
X2794063Y6599309D01*
X2798857Y6598940D01*
X2804021Y6598817D01*
X2804144D01*
X2804267D01*
X2805004D01*
X2806234Y6598940D01*
X2807832Y6599063D01*
X2809676Y6599186D01*
X2811889Y6599432D01*
X2814347Y6599801D01*
X2817052Y6600293D01*
X2819880Y6601030D01*
X2822830Y6601768D01*
X2825780Y6602751D01*
X2828731Y6603981D01*
X2831681Y6605333D01*
X2834632Y6606931D01*
X2837336Y6608898D01*
X2839918Y6610988D01*
X2840041Y6611111D01*
X2840533Y6611603D01*
X2841147Y6612217D01*
X2842008Y6613201D01*
X2842992Y6614430D01*
X2844098Y6615905D01*
X2845204Y6617504D01*
X2846434Y6619471D01*
X2847663Y6621561D01*
X2848770Y6623896D01*
X2849876Y6626478D01*
X2850859Y6629183D01*
X2851720Y6632010D01*
X2852335Y6635084D01*
X2852826Y6638403D01*
X2852949Y6641722D01*
Y6642583D01*
X2852826Y6643566D01*
X2852703Y6644918D01*
X2852581Y6646517D01*
X2852212Y6648361D01*
X2851843Y6650451D01*
X2851351Y6652663D01*
X2850614Y6655122D01*
X2849753Y6657581D01*
X2848647Y6660162D01*
X2847417Y6662867D01*
X2845942Y6665449D01*
X2844098Y6668030D01*
X2842131Y6670489D01*
X2839795Y6672825D01*
X2839672Y6672948D01*
X2839181Y6673317D01*
X2838443Y6673931D01*
X2837336Y6674792D01*
X2835984Y6675652D01*
X2834263Y6676636D01*
X2832419Y6677742D01*
X2830083Y6678972D01*
X2827625Y6680078D01*
X2824797Y6681185D01*
X2821724Y6682168D01*
X2818404Y6683151D01*
X2814716Y6683889D01*
X2810905Y6684504D01*
X2806725Y6684873D01*
X2802300Y6684996D01*
D02*
G37*
G36*
X2773533Y6543373D02*
X2773410D01*
X2773164D01*
X2772672D01*
X2772057Y6543250D01*
X2771320Y6543127D01*
X2770336Y6543004D01*
X2768369Y6542513D01*
X2766034Y6541775D01*
X2763575Y6540669D01*
X2762223Y6539931D01*
X2761116Y6539070D01*
X2759887Y6537964D01*
X2758780Y6536858D01*
X2758657Y6536735D01*
X2758534Y6536612D01*
X2758289Y6536120D01*
X2757920Y6535628D01*
X2757428Y6534891D01*
X2756936Y6534030D01*
X2756445Y6533047D01*
X2755830Y6531817D01*
X2755338Y6530465D01*
X2754846Y6528990D01*
X2754355Y6527392D01*
X2753863Y6525548D01*
X2753494Y6523458D01*
X2753248Y6521368D01*
X2753002Y6519032D01*
Y6476619D01*
X2794801D01*
Y6514237D01*
X2794678Y6515221D01*
Y6516327D01*
X2794555Y6517557D01*
Y6518909D01*
X2794186Y6521737D01*
X2793817Y6524687D01*
X2793202Y6527637D01*
X2792465Y6530219D01*
Y6530342D01*
X2792342Y6530465D01*
X2791973Y6531326D01*
X2791481Y6532432D01*
X2790621Y6533784D01*
X2789637Y6535382D01*
X2788285Y6536981D01*
X2786810Y6538579D01*
X2784966Y6539931D01*
X2784843D01*
X2784720Y6540054D01*
X2783982Y6540423D01*
X2782999Y6541037D01*
X2781524Y6541652D01*
X2779802Y6542267D01*
X2777958Y6542882D01*
X2775746Y6543250D01*
X2773533Y6543373D01*
D02*
G37*
G36*
X3691300Y6430996D02*
X3691177D01*
X3690562D01*
X3689824D01*
X3688718Y6430873D01*
X3687366D01*
X3685891Y6430750D01*
X3684046Y6430504D01*
X3682202Y6430381D01*
X3680113Y6430012D01*
X3678023Y6429766D01*
X3673474Y6428783D01*
X3668925Y6427430D01*
X3666713Y6426693D01*
X3664500Y6425709D01*
X3664377D01*
X3664008Y6425463D01*
X3663393Y6425218D01*
X3662533Y6424726D01*
X3661672Y6424234D01*
X3660566Y6423496D01*
X3657984Y6421898D01*
X3655034Y6419685D01*
X3652083Y6417104D01*
X3649256Y6414030D01*
X3647903Y6412309D01*
X3646674Y6410465D01*
X3646551Y6410342D01*
X3646428Y6409973D01*
X3646059Y6409482D01*
X3645690Y6408744D01*
X3645199Y6407761D01*
X3644707Y6406654D01*
X3644092Y6405425D01*
X3643478Y6403950D01*
X3642863Y6402351D01*
X3642248Y6400630D01*
X3641756Y6398786D01*
X3641265Y6396819D01*
X3640527Y6392517D01*
X3640404Y6390304D01*
X3640281Y6387968D01*
Y6387230D01*
X3640404Y6386247D01*
X3640527Y6385017D01*
X3640650Y6383419D01*
X3640896Y6381698D01*
X3641265Y6379731D01*
X3641756Y6377518D01*
X3642494Y6375183D01*
X3643232Y6372724D01*
X3644215Y6370265D01*
X3645445Y6367683D01*
X3646797Y6365102D01*
X3648395Y6362520D01*
X3650362Y6359939D01*
X3652452Y6357480D01*
X3652575Y6357357D01*
X3653067Y6356988D01*
X3653804Y6356373D01*
X3654788Y6355513D01*
X3656140Y6354529D01*
X3657738Y6353423D01*
X3659828Y6352316D01*
X3662041Y6351210D01*
X3664746Y6349981D01*
X3667696Y6348874D01*
X3671015Y6347768D01*
X3674703Y6346784D01*
X3678760Y6346047D01*
X3683063Y6345309D01*
X3687857Y6344940D01*
X3693021Y6344817D01*
X3693144D01*
X3693267D01*
X3694004D01*
X3695234Y6344940D01*
X3696832Y6345063D01*
X3698676Y6345186D01*
X3700889Y6345432D01*
X3703347Y6345801D01*
X3706052Y6346293D01*
X3708880Y6347030D01*
X3711830Y6347768D01*
X3714780Y6348751D01*
X3717731Y6349981D01*
X3720681Y6351333D01*
X3723632Y6352931D01*
X3726336Y6354898D01*
X3728918Y6356988D01*
X3729041Y6357111D01*
X3729533Y6357603D01*
X3730147Y6358217D01*
X3731008Y6359201D01*
X3731992Y6360430D01*
X3733098Y6361905D01*
X3734204Y6363504D01*
X3735434Y6365471D01*
X3736663Y6367561D01*
X3737770Y6369896D01*
X3738876Y6372478D01*
X3739859Y6375183D01*
X3740720Y6378010D01*
X3741335Y6381084D01*
X3741826Y6384403D01*
X3741949Y6387722D01*
Y6388583D01*
X3741826Y6389566D01*
X3741703Y6390918D01*
X3741581Y6392517D01*
X3741212Y6394361D01*
X3740843Y6396451D01*
X3740351Y6398663D01*
X3739614Y6401122D01*
X3738753Y6403581D01*
X3737647Y6406162D01*
X3736417Y6408867D01*
X3734942Y6411449D01*
X3733098Y6414030D01*
X3731131Y6416489D01*
X3728795Y6418825D01*
X3728672Y6418948D01*
X3728181Y6419317D01*
X3727443Y6419931D01*
X3726336Y6420792D01*
X3724984Y6421652D01*
X3723263Y6422636D01*
X3721419Y6423742D01*
X3719083Y6424972D01*
X3716625Y6426078D01*
X3713797Y6427185D01*
X3710724Y6428168D01*
X3707404Y6429151D01*
X3703716Y6429889D01*
X3699905Y6430504D01*
X3695725Y6430873D01*
X3691300Y6430996D01*
D02*
G37*
G36*
X3662533Y6289373D02*
X3662410D01*
X3662164D01*
X3661672D01*
X3661057Y6289250D01*
X3660320Y6289127D01*
X3659336Y6289004D01*
X3657369Y6288513D01*
X3655034Y6287775D01*
X3652575Y6286669D01*
X3651223Y6285931D01*
X3650116Y6285070D01*
X3648887Y6283964D01*
X3647780Y6282858D01*
X3647657Y6282735D01*
X3647534Y6282612D01*
X3647289Y6282120D01*
X3646920Y6281628D01*
X3646428Y6280891D01*
X3645936Y6280030D01*
X3645445Y6279047D01*
X3644830Y6277817D01*
X3644338Y6276465D01*
X3643846Y6274990D01*
X3643355Y6273392D01*
X3642863Y6271548D01*
X3642494Y6269458D01*
X3642248Y6267368D01*
X3642002Y6265032D01*
Y6222619D01*
X3683801D01*
Y6260237D01*
X3683678Y6261221D01*
Y6262327D01*
X3683555Y6263557D01*
Y6264909D01*
X3683186Y6267737D01*
X3682817Y6270687D01*
X3682202Y6273637D01*
X3681465Y6276219D01*
Y6276342D01*
X3681342Y6276465D01*
X3680973Y6277326D01*
X3680481Y6278432D01*
X3679621Y6279784D01*
X3678637Y6281382D01*
X3677285Y6282981D01*
X3675810Y6284579D01*
X3673966Y6285931D01*
X3673843D01*
X3673720Y6286054D01*
X3672982Y6286423D01*
X3671999Y6287037D01*
X3670524Y6287652D01*
X3668802Y6288267D01*
X3666958Y6288882D01*
X3664746Y6289250D01*
X3662533Y6289373D01*
D02*
G37*
G36*
X8831869Y6380918D02*
Y6380746D01*
X8831696Y6380230D01*
X8831524Y6379196D01*
X8831180Y6377991D01*
X8830835Y6376441D01*
X8830491Y6374719D01*
X8829974Y6372652D01*
X8829458Y6370413D01*
X8828769Y6367830D01*
X8828080Y6365247D01*
X8826358Y6359564D01*
X8824463Y6353537D01*
X8822397Y6347165D01*
X8802765Y6295329D01*
X8863039D01*
X8844440Y6344237D01*
X8844268Y6344582D01*
X8844096Y6345271D01*
X8843579Y6346476D01*
X8843062Y6348026D01*
X8842373Y6349920D01*
X8841512Y6352159D01*
X8840651Y6354570D01*
X8839790Y6357153D01*
X8837724Y6363008D01*
X8835657Y6369208D01*
X8833591Y6375235D01*
X8832730Y6378163D01*
X8831869Y6380918D01*
D02*
G37*
G36*
X8101173Y6380057D02*
X8041760D01*
Y6321505D01*
X8094457D01*
X8095834Y6321677D01*
X8097384D01*
X8099106Y6321850D01*
X8101001D01*
X8104962Y6322366D01*
X8109095Y6322883D01*
X8113228Y6323744D01*
X8116844Y6324777D01*
X8117017D01*
X8117189Y6324950D01*
X8118394Y6325466D01*
X8119944Y6326155D01*
X8121838Y6327360D01*
X8124077Y6328738D01*
X8126316Y6330633D01*
X8128555Y6332699D01*
X8130449Y6335282D01*
Y6335454D01*
X8130621Y6335627D01*
X8131138Y6336660D01*
X8131999Y6338038D01*
X8132860Y6340104D01*
X8133721Y6342515D01*
X8134582Y6345098D01*
X8135099Y6348198D01*
X8135271Y6351298D01*
Y6351470D01*
Y6351815D01*
Y6352503D01*
X8135099Y6353364D01*
X8134927Y6354398D01*
X8134754Y6355775D01*
X8134066Y6358531D01*
X8133032Y6361803D01*
X8131482Y6365247D01*
X8130449Y6367141D01*
X8129244Y6368691D01*
X8127694Y6370413D01*
X8126144Y6371963D01*
X8125972Y6372136D01*
X8125799Y6372308D01*
X8125110Y6372652D01*
X8124422Y6373169D01*
X8123388Y6373858D01*
X8122183Y6374547D01*
X8120805Y6375235D01*
X8119083Y6376096D01*
X8117189Y6376785D01*
X8115122Y6377474D01*
X8112883Y6378163D01*
X8110300Y6378852D01*
X8107373Y6379368D01*
X8104445Y6379713D01*
X8101173Y6380057D01*
D02*
G37*
G36*
X6590283Y6451177D02*
X6550698Y6394257D01*
X6590283D01*
Y6451177D01*
D02*
G37*
G36*
X6237825Y6461134D02*
X6201682D01*
Y6416140D01*
X6235736D01*
X6236842Y6416263D01*
X6238194D01*
X6239670Y6416509D01*
X6241391Y6416632D01*
X6243112Y6416877D01*
X6246923Y6417615D01*
X6250734Y6418599D01*
X6252455Y6419336D01*
X6254176Y6420074D01*
X6255774Y6421057D01*
X6257126Y6422041D01*
X6257249Y6422164D01*
X6257372Y6422287D01*
X6257741Y6422655D01*
X6258233Y6423147D01*
X6258725Y6423762D01*
X6259339Y6424499D01*
X6259954Y6425360D01*
X6260569Y6426466D01*
X6261183Y6427573D01*
X6261798Y6428802D01*
X6262413Y6430277D01*
X6262904Y6431753D01*
X6263765Y6435195D01*
X6263888Y6437039D01*
X6264011Y6439006D01*
Y6439129D01*
Y6439375D01*
Y6439744D01*
Y6440358D01*
X6263888Y6440973D01*
X6263765Y6441833D01*
X6263519Y6443677D01*
X6263027Y6445767D01*
X6262290Y6447980D01*
X6261306Y6450316D01*
X6259954Y6452529D01*
Y6452652D01*
X6259831Y6452775D01*
X6259216Y6453389D01*
X6258356Y6454373D01*
X6257126Y6455602D01*
X6255651Y6456832D01*
X6253807Y6458061D01*
X6251717Y6459044D01*
X6249381Y6459905D01*
X6249136D01*
X6248521Y6460151D01*
X6248029D01*
X6247414Y6460274D01*
X6246677Y6460397D01*
X6245939Y6460520D01*
X6244833Y6460643D01*
X6243726Y6460766D01*
X6242497Y6460889D01*
X6241145D01*
X6239547Y6461011D01*
X6237825Y6461134D01*
D02*
G37*
G36*
X6019491Y6462118D02*
X5977078D01*
Y6420319D01*
X6014697D01*
X6015680Y6420442D01*
X6016787D01*
X6018016Y6420565D01*
X6019368D01*
X6022196Y6420934D01*
X6025146Y6421303D01*
X6028097Y6421918D01*
X6030678Y6422655D01*
X6030801D01*
X6030924Y6422778D01*
X6031785Y6423147D01*
X6032891Y6423639D01*
X6034243Y6424499D01*
X6035842Y6425483D01*
X6037440Y6426835D01*
X6039038Y6428310D01*
X6040390Y6430154D01*
Y6430277D01*
X6040513Y6430400D01*
X6040882Y6431138D01*
X6041497Y6432121D01*
X6042111Y6433596D01*
X6042726Y6435318D01*
X6043341Y6437162D01*
X6043710Y6439374D01*
X6043832Y6441587D01*
Y6441710D01*
Y6441956D01*
Y6442448D01*
X6043710Y6443063D01*
X6043587Y6443800D01*
X6043464Y6444784D01*
X6042972Y6446751D01*
X6042234Y6449086D01*
X6041128Y6451545D01*
X6040390Y6452897D01*
X6039530Y6454004D01*
X6038423Y6455233D01*
X6037317Y6456340D01*
X6037194Y6456463D01*
X6037071Y6456586D01*
X6036579Y6456831D01*
X6036087Y6457200D01*
X6035350Y6457692D01*
X6034489Y6458184D01*
X6033506Y6458675D01*
X6032276Y6459290D01*
X6030924Y6459782D01*
X6029449Y6460274D01*
X6027851Y6460765D01*
X6026007Y6461257D01*
X6023917Y6461626D01*
X6021827Y6461872D01*
X6019491Y6462118D01*
D02*
G37*
G36*
X5778045Y6461134D02*
X5741902D01*
Y6416140D01*
X5775955D01*
X5777061Y6416263D01*
X5778414D01*
X5779889Y6416508D01*
X5781610Y6416631D01*
X5783331Y6416877D01*
X5787142Y6417615D01*
X5790953Y6418598D01*
X5792674Y6419336D01*
X5794395Y6420074D01*
X5795993Y6421057D01*
X5797346Y6422040D01*
X5797469Y6422163D01*
X5797592Y6422286D01*
X5797960Y6422655D01*
X5798452Y6423147D01*
X5798944Y6423762D01*
X5799559Y6424499D01*
X5800173Y6425360D01*
X5800788Y6426466D01*
X5801403Y6427573D01*
X5802017Y6428802D01*
X5802632Y6430277D01*
X5803124Y6431752D01*
X5803984Y6435195D01*
X5804107Y6437039D01*
X5804230Y6439006D01*
Y6439129D01*
Y6439374D01*
Y6439743D01*
Y6440358D01*
X5804107Y6440973D01*
X5803984Y6441833D01*
X5803738Y6443677D01*
X5803247Y6445767D01*
X5802509Y6447980D01*
X5801526Y6450316D01*
X5800173Y6452529D01*
Y6452652D01*
X5800050Y6452774D01*
X5799436Y6453389D01*
X5798575Y6454373D01*
X5797346Y6455602D01*
X5795871Y6456831D01*
X5794027Y6458061D01*
X5791937Y6459044D01*
X5789601Y6459905D01*
X5789355D01*
X5788740Y6460151D01*
X5788249D01*
X5787634Y6460274D01*
X5786896Y6460397D01*
X5786159Y6460519D01*
X5785052Y6460642D01*
X5783946Y6460765D01*
X5782716Y6460888D01*
X5781364D01*
X5779766Y6461011D01*
X5778045Y6461134D01*
D02*
G37*
G36*
X5504266Y6462732D02*
Y6462609D01*
X5504143Y6462241D01*
X5504020Y6461503D01*
X5503775Y6460642D01*
X5503529Y6459536D01*
X5503283Y6458307D01*
X5502914Y6456831D01*
X5502545Y6455233D01*
X5502054Y6453389D01*
X5501562Y6451545D01*
X5500332Y6447488D01*
X5498980Y6443185D01*
X5497505Y6438637D01*
X5483490Y6401633D01*
X5526518D01*
X5513241Y6436547D01*
X5513118Y6436793D01*
X5512995Y6437285D01*
X5512626Y6438145D01*
X5512257Y6439252D01*
X5511765Y6440604D01*
X5511151Y6442202D01*
X5510536Y6443923D01*
X5509921Y6445767D01*
X5508446Y6449947D01*
X5506971Y6454373D01*
X5505496Y6458675D01*
X5504881Y6460765D01*
X5504266Y6462732D01*
D02*
G37*
G36*
X5379855Y6461134D02*
X5350719D01*
Y6364875D01*
X5379609D01*
X5380593Y6364998D01*
X5381822D01*
X5383174Y6365121D01*
X5384650D01*
X5387846Y6365367D01*
X5391042Y6365859D01*
X5394239Y6366350D01*
X5395714Y6366719D01*
X5397066Y6367088D01*
X5397189D01*
X5397435Y6367211D01*
X5397804Y6367334D01*
X5398296Y6367580D01*
X5399525Y6368072D01*
X5401123Y6368809D01*
X5402967Y6369793D01*
X5404811Y6370899D01*
X5406655Y6372251D01*
X5408376Y6373727D01*
X5408499Y6373850D01*
X5408622Y6373973D01*
X5408991Y6374341D01*
X5409360Y6374833D01*
X5409852Y6375448D01*
X5410466Y6376062D01*
X5411818Y6377906D01*
X5413294Y6380242D01*
X5414892Y6382947D01*
X5416367Y6386020D01*
X5417719Y6389585D01*
Y6389708D01*
X5417842Y6390077D01*
X5418088Y6390569D01*
X5418211Y6391429D01*
X5418457Y6392413D01*
X5418826Y6393519D01*
X5419072Y6394872D01*
X5419441Y6396470D01*
X5419686Y6398068D01*
X5419932Y6399912D01*
X5420301Y6402002D01*
X5420547Y6404092D01*
X5420793Y6406428D01*
X5420916Y6408763D01*
X5421039Y6413927D01*
Y6414173D01*
Y6414787D01*
Y6415771D01*
X5420916Y6417123D01*
X5420793Y6418844D01*
X5420670Y6420688D01*
X5420547Y6422778D01*
X5420178Y6425114D01*
X5419932Y6427450D01*
X5419441Y6429908D01*
X5418334Y6434949D01*
X5417596Y6437407D01*
X5416736Y6439866D01*
X5415630Y6442079D01*
X5414523Y6444169D01*
X5414400Y6444292D01*
X5414277Y6444661D01*
X5413908Y6445152D01*
X5413417Y6445890D01*
X5412679Y6446751D01*
X5411941Y6447734D01*
X5410097Y6449947D01*
X5407762Y6452406D01*
X5405057Y6454741D01*
X5401984Y6456831D01*
X5400385Y6457815D01*
X5398664Y6458552D01*
X5398541D01*
X5398296Y6458675D01*
X5397927Y6458798D01*
X5397435Y6458921D01*
X5396697Y6459167D01*
X5395837Y6459413D01*
X5394730Y6459659D01*
X5393501Y6459905D01*
X5392026Y6460028D01*
X5390551Y6460274D01*
X5388707Y6460519D01*
X5386740Y6460765D01*
X5384650Y6460888D01*
X5382314Y6461011D01*
X5379855Y6461134D01*
D02*
G37*
G36*
X6357688Y6463839D02*
X6356950D01*
X6355967Y6463716D01*
X6354738Y6463593D01*
X6353139Y6463470D01*
X6351418Y6463224D01*
X6349451Y6462856D01*
X6347239Y6462364D01*
X6344903Y6461626D01*
X6342444Y6460889D01*
X6339985Y6459905D01*
X6337404Y6458676D01*
X6334822Y6457323D01*
X6332240Y6455725D01*
X6329659Y6453758D01*
X6327200Y6451668D01*
X6327077Y6451545D01*
X6326708Y6451054D01*
X6326094Y6450316D01*
X6325233Y6449333D01*
X6324249Y6447980D01*
X6323143Y6446382D01*
X6322037Y6444292D01*
X6320930Y6442079D01*
X6319701Y6439375D01*
X6318594Y6436424D01*
X6317488Y6433105D01*
X6316505Y6429417D01*
X6315767Y6425360D01*
X6315029Y6421057D01*
X6314660Y6416263D01*
X6314538Y6411099D01*
Y6410977D01*
Y6410854D01*
Y6410116D01*
X6314660Y6408887D01*
X6314783Y6407288D01*
X6314906Y6405444D01*
X6315152Y6403232D01*
X6315521Y6400773D01*
X6316013Y6398068D01*
X6316750Y6395241D01*
X6317488Y6392290D01*
X6318471Y6389340D01*
X6319701Y6386389D01*
X6321053Y6383439D01*
X6322651Y6380488D01*
X6324618Y6377784D01*
X6326708Y6375202D01*
X6326831Y6375079D01*
X6327323Y6374587D01*
X6327938Y6373973D01*
X6328921Y6373112D01*
X6330150Y6372129D01*
X6331626Y6371022D01*
X6333224Y6369916D01*
X6335191Y6368687D01*
X6337281Y6367457D01*
X6339616Y6366351D01*
X6342198Y6365244D01*
X6344903Y6364261D01*
X6347730Y6363400D01*
X6350804Y6362786D01*
X6354123Y6362294D01*
X6357442Y6362171D01*
X6358303D01*
X6359286Y6362294D01*
X6360639Y6362417D01*
X6362237Y6362540D01*
X6364081Y6362909D01*
X6366171Y6363277D01*
X6368384Y6363769D01*
X6370842Y6364507D01*
X6373301Y6365367D01*
X6375883Y6366474D01*
X6378587Y6367703D01*
X6381169Y6369178D01*
X6383751Y6371022D01*
X6386209Y6372989D01*
X6388545Y6375325D01*
X6388668Y6375448D01*
X6389037Y6375940D01*
X6389651Y6376677D01*
X6390512Y6377784D01*
X6391373Y6379136D01*
X6392356Y6380857D01*
X6393462Y6382701D01*
X6394692Y6385037D01*
X6395798Y6387496D01*
X6396905Y6390323D01*
X6397888Y6393397D01*
X6398872Y6396716D01*
X6399609Y6400404D01*
X6400224Y6404215D01*
X6400593Y6408395D01*
X6400716Y6412821D01*
Y6412943D01*
Y6413558D01*
Y6414296D01*
X6400593Y6415402D01*
Y6416755D01*
X6400470Y6418230D01*
X6400224Y6420074D01*
X6400101Y6421918D01*
X6399732Y6424008D01*
X6399486Y6426098D01*
X6398503Y6430646D01*
X6397151Y6435195D01*
X6396413Y6437408D01*
X6395429Y6439621D01*
Y6439744D01*
X6395184Y6440112D01*
X6394938Y6440727D01*
X6394446Y6441588D01*
X6393954Y6442448D01*
X6393217Y6443555D01*
X6391618Y6446136D01*
X6389406Y6449087D01*
X6386824Y6452037D01*
X6383751Y6454865D01*
X6382029Y6456217D01*
X6380185Y6457446D01*
X6380062Y6457569D01*
X6379694Y6457692D01*
X6379202Y6458061D01*
X6378464Y6458430D01*
X6377481Y6458922D01*
X6376374Y6459413D01*
X6375145Y6460028D01*
X6373670Y6460643D01*
X6372072Y6461257D01*
X6370350Y6461872D01*
X6368506Y6462364D01*
X6366539Y6462856D01*
X6362237Y6463593D01*
X6360024Y6463716D01*
X6357688Y6463839D01*
D02*
G37*
G36*
X5983825Y6715134D02*
X5947682D01*
Y6670140D01*
X5981736D01*
X5982842Y6670263D01*
X5984194D01*
X5985670Y6670509D01*
X5987391Y6670632D01*
X5989112Y6670877D01*
X5992923Y6671615D01*
X5996734Y6672599D01*
X5998455Y6673336D01*
X6000176Y6674074D01*
X6001774Y6675057D01*
X6003126Y6676041D01*
X6003249Y6676164D01*
X6003372Y6676287D01*
X6003741Y6676655D01*
X6004233Y6677147D01*
X6004725Y6677762D01*
X6005339Y6678499D01*
X6005954Y6679360D01*
X6006569Y6680466D01*
X6007183Y6681573D01*
X6007798Y6682802D01*
X6008413Y6684277D01*
X6008904Y6685753D01*
X6009765Y6689195D01*
X6009888Y6691039D01*
X6010011Y6693006D01*
Y6693129D01*
Y6693375D01*
Y6693744D01*
Y6694358D01*
X6009888Y6694973D01*
X6009765Y6695833D01*
X6009519Y6697677D01*
X6009027Y6699767D01*
X6008290Y6701980D01*
X6007306Y6704316D01*
X6005954Y6706529D01*
Y6706652D01*
X6005831Y6706775D01*
X6005216Y6707389D01*
X6004356Y6708373D01*
X6003126Y6709602D01*
X6001651Y6710832D01*
X5999807Y6712061D01*
X5997717Y6713044D01*
X5995381Y6713905D01*
X5995136D01*
X5994521Y6714151D01*
X5994029D01*
X5993414Y6714274D01*
X5992677Y6714397D01*
X5991939Y6714520D01*
X5990833Y6714643D01*
X5989726Y6714766D01*
X5988497Y6714889D01*
X5987145D01*
X5985547Y6715011D01*
X5983825Y6715134D01*
D02*
G37*
G36*
X5765491Y6716118D02*
X5723078D01*
Y6674319D01*
X5760697D01*
X5761680Y6674442D01*
X5762787D01*
X5764016Y6674565D01*
X5765368D01*
X5768196Y6674934D01*
X5771146Y6675303D01*
X5774097Y6675918D01*
X5776678Y6676655D01*
X5776801D01*
X5776924Y6676778D01*
X5777785Y6677147D01*
X5778891Y6677639D01*
X5780243Y6678499D01*
X5781842Y6679483D01*
X5783440Y6680835D01*
X5785038Y6682310D01*
X5786390Y6684154D01*
Y6684277D01*
X5786513Y6684400D01*
X5786882Y6685138D01*
X5787497Y6686121D01*
X5788111Y6687596D01*
X5788726Y6689318D01*
X5789341Y6691162D01*
X5789710Y6693374D01*
X5789832Y6695587D01*
Y6695710D01*
Y6695956D01*
Y6696448D01*
X5789710Y6697063D01*
X5789587Y6697800D01*
X5789464Y6698784D01*
X5788972Y6700751D01*
X5788234Y6703086D01*
X5787128Y6705545D01*
X5786390Y6706897D01*
X5785530Y6708004D01*
X5784423Y6709233D01*
X5783317Y6710340D01*
X5783194Y6710463D01*
X5783071Y6710586D01*
X5782579Y6710831D01*
X5782087Y6711200D01*
X5781350Y6711692D01*
X5780489Y6712184D01*
X5779506Y6712675D01*
X5778276Y6713290D01*
X5776924Y6713782D01*
X5775449Y6714274D01*
X5773851Y6714765D01*
X5772007Y6715257D01*
X5769917Y6715626D01*
X5767827Y6715872D01*
X5765491Y6716118D01*
D02*
G37*
G36*
X5524045Y6715134D02*
X5487902D01*
Y6670140D01*
X5521955D01*
X5523061Y6670263D01*
X5524414D01*
X5525889Y6670508D01*
X5527610Y6670631D01*
X5529331Y6670877D01*
X5533142Y6671615D01*
X5536953Y6672598D01*
X5538674Y6673336D01*
X5540395Y6674074D01*
X5541993Y6675057D01*
X5543346Y6676040D01*
X5543469Y6676163D01*
X5543592Y6676286D01*
X5543960Y6676655D01*
X5544452Y6677147D01*
X5544944Y6677762D01*
X5545559Y6678499D01*
X5546173Y6679360D01*
X5546788Y6680466D01*
X5547403Y6681573D01*
X5548017Y6682802D01*
X5548632Y6684277D01*
X5549124Y6685752D01*
X5549984Y6689195D01*
X5550107Y6691039D01*
X5550230Y6693006D01*
Y6693129D01*
Y6693374D01*
Y6693743D01*
Y6694358D01*
X5550107Y6694973D01*
X5549984Y6695833D01*
X5549738Y6697677D01*
X5549247Y6699767D01*
X5548509Y6701980D01*
X5547526Y6704316D01*
X5546173Y6706529D01*
Y6706652D01*
X5546050Y6706774D01*
X5545436Y6707389D01*
X5544575Y6708373D01*
X5543346Y6709602D01*
X5541871Y6710831D01*
X5540027Y6712061D01*
X5537937Y6713044D01*
X5535601Y6713905D01*
X5535355D01*
X5534740Y6714151D01*
X5534249D01*
X5533634Y6714274D01*
X5532896Y6714397D01*
X5532159Y6714519D01*
X5531052Y6714642D01*
X5529946Y6714765D01*
X5528716Y6714888D01*
X5527364D01*
X5525766Y6715011D01*
X5524045Y6715134D01*
D02*
G37*
G36*
X5250266Y6716732D02*
Y6716609D01*
X5250143Y6716241D01*
X5250020Y6715503D01*
X5249775Y6714642D01*
X5249529Y6713536D01*
X5249283Y6712307D01*
X5248914Y6710831D01*
X5248545Y6709233D01*
X5248054Y6707389D01*
X5247562Y6705545D01*
X5246332Y6701488D01*
X5244980Y6697185D01*
X5243505Y6692637D01*
X5229490Y6655633D01*
X5272518D01*
X5259241Y6690547D01*
X5259118Y6690793D01*
X5258995Y6691285D01*
X5258626Y6692145D01*
X5258257Y6693252D01*
X5257765Y6694604D01*
X5257151Y6696202D01*
X5256536Y6697923D01*
X5255921Y6699767D01*
X5254446Y6703947D01*
X5252971Y6708373D01*
X5251496Y6712675D01*
X5250881Y6714765D01*
X5250266Y6716732D01*
D02*
G37*
G36*
X5125855Y6715134D02*
X5096719D01*
Y6618875D01*
X5125609D01*
X5126593Y6618998D01*
X5127822D01*
X5129174Y6619121D01*
X5130650D01*
X5133846Y6619367D01*
X5137042Y6619859D01*
X5140239Y6620350D01*
X5141714Y6620719D01*
X5143066Y6621088D01*
X5143189D01*
X5143435Y6621211D01*
X5143804Y6621334D01*
X5144296Y6621580D01*
X5145525Y6622072D01*
X5147123Y6622809D01*
X5148967Y6623793D01*
X5150811Y6624899D01*
X5152655Y6626251D01*
X5154376Y6627727D01*
X5154499Y6627850D01*
X5154622Y6627973D01*
X5154991Y6628341D01*
X5155360Y6628833D01*
X5155852Y6629448D01*
X5156466Y6630062D01*
X5157818Y6631906D01*
X5159294Y6634242D01*
X5160892Y6636947D01*
X5162367Y6640020D01*
X5163719Y6643585D01*
Y6643708D01*
X5163842Y6644077D01*
X5164088Y6644569D01*
X5164211Y6645429D01*
X5164457Y6646413D01*
X5164826Y6647519D01*
X5165072Y6648872D01*
X5165441Y6650470D01*
X5165686Y6652068D01*
X5165932Y6653912D01*
X5166301Y6656002D01*
X5166547Y6658092D01*
X5166793Y6660428D01*
X5166916Y6662763D01*
X5167039Y6667927D01*
Y6668173D01*
Y6668787D01*
Y6669771D01*
X5166916Y6671123D01*
X5166793Y6672844D01*
X5166670Y6674688D01*
X5166547Y6676778D01*
X5166178Y6679114D01*
X5165932Y6681450D01*
X5165441Y6683908D01*
X5164334Y6688949D01*
X5163596Y6691407D01*
X5162736Y6693866D01*
X5161630Y6696079D01*
X5160523Y6698169D01*
X5160400Y6698292D01*
X5160277Y6698661D01*
X5159908Y6699152D01*
X5159417Y6699890D01*
X5158679Y6700751D01*
X5157941Y6701734D01*
X5156097Y6703947D01*
X5153762Y6706406D01*
X5151057Y6708741D01*
X5147984Y6710831D01*
X5146385Y6711815D01*
X5144664Y6712552D01*
X5144541D01*
X5144296Y6712675D01*
X5143927Y6712798D01*
X5143435Y6712921D01*
X5142697Y6713167D01*
X5141837Y6713413D01*
X5140730Y6713659D01*
X5139501Y6713905D01*
X5138026Y6714028D01*
X5136551Y6714274D01*
X5134707Y6714519D01*
X5132740Y6714765D01*
X5130650Y6714888D01*
X5128314Y6715011D01*
X5125855Y6715134D01*
D02*
G37*
G36*
X6103688Y6717839D02*
X6102950D01*
X6101967Y6717716D01*
X6100738Y6717593D01*
X6099139Y6717470D01*
X6097418Y6717224D01*
X6095451Y6716856D01*
X6093239Y6716364D01*
X6090903Y6715626D01*
X6088444Y6714889D01*
X6085985Y6713905D01*
X6083404Y6712676D01*
X6080822Y6711323D01*
X6078240Y6709725D01*
X6075659Y6707758D01*
X6073200Y6705668D01*
X6073077Y6705545D01*
X6072708Y6705054D01*
X6072094Y6704316D01*
X6071233Y6703333D01*
X6070249Y6701980D01*
X6069143Y6700382D01*
X6068037Y6698292D01*
X6066930Y6696079D01*
X6065701Y6693375D01*
X6064594Y6690424D01*
X6063488Y6687105D01*
X6062505Y6683417D01*
X6061767Y6679360D01*
X6061029Y6675057D01*
X6060660Y6670263D01*
X6060538Y6665099D01*
Y6664977D01*
Y6664854D01*
Y6664116D01*
X6060660Y6662887D01*
X6060783Y6661288D01*
X6060906Y6659444D01*
X6061152Y6657232D01*
X6061521Y6654773D01*
X6062013Y6652068D01*
X6062750Y6649241D01*
X6063488Y6646290D01*
X6064471Y6643340D01*
X6065701Y6640389D01*
X6067053Y6637439D01*
X6068651Y6634488D01*
X6070618Y6631784D01*
X6072708Y6629202D01*
X6072831Y6629079D01*
X6073323Y6628587D01*
X6073938Y6627973D01*
X6074921Y6627112D01*
X6076150Y6626129D01*
X6077626Y6625022D01*
X6079224Y6623916D01*
X6081191Y6622687D01*
X6083281Y6621457D01*
X6085616Y6620351D01*
X6088198Y6619244D01*
X6090903Y6618261D01*
X6093730Y6617400D01*
X6096804Y6616786D01*
X6100123Y6616294D01*
X6103442Y6616171D01*
X6104303D01*
X6105286Y6616294D01*
X6106639Y6616417D01*
X6108237Y6616540D01*
X6110081Y6616909D01*
X6112171Y6617277D01*
X6114384Y6617769D01*
X6116842Y6618507D01*
X6119301Y6619367D01*
X6121883Y6620474D01*
X6124587Y6621703D01*
X6127169Y6623178D01*
X6129751Y6625022D01*
X6132209Y6626989D01*
X6134545Y6629325D01*
X6134668Y6629448D01*
X6135037Y6629940D01*
X6135651Y6630677D01*
X6136512Y6631784D01*
X6137373Y6633136D01*
X6138356Y6634857D01*
X6139462Y6636701D01*
X6140692Y6639037D01*
X6141798Y6641496D01*
X6142905Y6644323D01*
X6143888Y6647397D01*
X6144872Y6650716D01*
X6145609Y6654404D01*
X6146224Y6658215D01*
X6146593Y6662395D01*
X6146716Y6666821D01*
Y6666943D01*
Y6667558D01*
Y6668296D01*
X6146593Y6669402D01*
Y6670755D01*
X6146470Y6672230D01*
X6146224Y6674074D01*
X6146101Y6675918D01*
X6145732Y6678008D01*
X6145486Y6680098D01*
X6144503Y6684646D01*
X6143151Y6689195D01*
X6142413Y6691408D01*
X6141429Y6693621D01*
Y6693744D01*
X6141184Y6694112D01*
X6140938Y6694727D01*
X6140446Y6695588D01*
X6139954Y6696448D01*
X6139217Y6697555D01*
X6137618Y6700136D01*
X6135406Y6703087D01*
X6132824Y6706037D01*
X6129751Y6708865D01*
X6128029Y6710217D01*
X6126185Y6711446D01*
X6126062Y6711569D01*
X6125694Y6711692D01*
X6125202Y6712061D01*
X6124464Y6712430D01*
X6123481Y6712922D01*
X6122374Y6713413D01*
X6121145Y6714028D01*
X6119670Y6714643D01*
X6118072Y6715257D01*
X6116350Y6715872D01*
X6114506Y6716364D01*
X6112539Y6716856D01*
X6108237Y6717593D01*
X6106024Y6717716D01*
X6103688Y6717839D01*
D02*
G37*
%LPD*%
D26*
X3429000Y6714500D02*
Y6787000D01*
Y7437000D02*
Y7509500D01*
X3304000Y7437000D02*
X3554000D01*
X3304000Y6787000D02*
Y7437000D01*
Y6787000D02*
X3554000D01*
Y7437000D01*
X4555500Y3048000D02*
X4628000D01*
X5278000D02*
X5350500D01*
X5278000Y2923000D02*
Y3173000D01*
X4628000D02*
X5278000D01*
X4628000Y2923000D02*
Y3173000D01*
Y2923000D02*
X5278000D01*
X7857500Y2794000D02*
X7930000D01*
X8580000D02*
X8652500D01*
X8580000Y2669000D02*
Y2919000D01*
X7930000D02*
X8580000D01*
X7930000Y2669000D02*
Y2919000D01*
Y2669000D02*
X8580000D01*
X5952500Y2794000D02*
X6025000D01*
X6675000D02*
X6747500D01*
X6675000Y2669000D02*
Y2919000D01*
X6025000D02*
X6675000D01*
X6025000Y2669000D02*
Y2919000D01*
Y2669000D02*
X6675000D01*
X4428500Y6223000D02*
X4501000D01*
X5151000D02*
X5223500D01*
X5151000Y6098000D02*
Y6348000D01*
X4501000D02*
X5151000D01*
X4501000Y6098000D02*
Y6348000D01*
Y6098000D02*
X5151000D01*
X9750000Y2372000D02*
Y2962000D01*
X9300000D02*
X9750000D01*
X9300000Y2372000D02*
X9750000D01*
X9300000D02*
Y2962000D01*
X3444000Y2278500D02*
Y2547500D01*
X2652000D02*
X3444000D01*
X2652000Y2278500D02*
Y2547500D01*
Y2278500D02*
X3444000D01*
D27*
X4269740Y6443980D02*
Y6596331D01*
X4345915D01*
X4371307Y6570939D01*
Y6520155D01*
X4345915Y6494763D01*
X4269740D01*
X4320523D02*
X4371307Y6443980D01*
X4523658D02*
X4422091D01*
X4523658Y6545547D01*
Y6570939D01*
X4498266Y6596331D01*
X4447483D01*
X4422091Y6570939D01*
X3309620Y7769860D02*
Y7922211D01*
X3385795D01*
X3411187Y7896819D01*
Y7846035D01*
X3385795Y7820643D01*
X3309620D01*
X3360403D02*
X3411187Y7769860D01*
X3461971Y7896819D02*
X3487363Y7922211D01*
X3538146D01*
X3563538Y7896819D01*
Y7871427D01*
X3512754Y7820643D01*
Y7795252D02*
Y7769860D01*
X4396740Y3268980D02*
Y3421331D01*
X4472915D01*
X4498307Y3395939D01*
Y3345155D01*
X4472915Y3319763D01*
X4396740D01*
X4447523D02*
X4498307Y3268980D01*
X4650658Y3421331D02*
X4549091D01*
Y3345155D01*
X4599874Y3370547D01*
X4625266D01*
X4650658Y3345155D01*
Y3294372D01*
X4625266Y3268980D01*
X4574483D01*
X4549091Y3294372D01*
X7698740Y3014980D02*
Y3167331D01*
X7774915D01*
X7800307Y3141939D01*
Y3091155D01*
X7774915Y3065763D01*
X7698740D01*
X7749523D02*
X7800307Y3014980D01*
X7927266D02*
Y3167331D01*
X7851091Y3091155D01*
X7952658D01*
X5793740Y3014980D02*
Y3167331D01*
X5869915D01*
X5895307Y3141939D01*
Y3091155D01*
X5869915Y3065763D01*
X5793740D01*
X5844523D02*
X5895307Y3014980D01*
X5946091Y3141939D02*
X5971483Y3167331D01*
X6022266D01*
X6047658Y3141939D01*
Y3116547D01*
X6022266Y3091155D01*
X5996874D01*
X6022266D01*
X6047658Y3065763D01*
Y3040372D01*
X6022266Y3014980D01*
X5971483D01*
X5946091Y3040372D01*
X9413207Y3202891D02*
X9362423D01*
X9387815D01*
Y3075932D01*
X9362423Y3050540D01*
X9337032D01*
X9311640Y3075932D01*
X9463991Y3050540D02*
X9514774D01*
X9489383D01*
Y3202891D01*
X9463991Y3177499D01*
X2654300Y2646680D02*
Y2799031D01*
X2730475D01*
X2755867Y2773639D01*
Y2722855D01*
X2730475Y2697463D01*
X2654300D01*
X2806651Y2646680D02*
X2857434D01*
X2832043D01*
Y2799031D01*
X2806651Y2773639D01*
%TF.MD5,ee3abc4657169da34953b78d62f83ab1*%
M02*
