G04*
G04 #@! TF.GenerationSoftware,Altium Limited,Altium Designer,23.10.1 (27)*
G04*
G04 Layer_Physical_Order=1*
G04 Layer_Color=255*
%FSLAX25Y25*%
%MOIN*%
G70*
G04*
G04 #@! TF.SameCoordinates,A0C2110B-B731-4F6D-BDA8-CD75CFEE95BB*
G04*
G04*
G04 #@! TF.FilePolarity,Positive*
G04*
G01*
G75*
G04:AMPARAMS|DCode=23|XSize=66mil|YSize=66mil|CornerRadius=0mil|HoleSize=0mil|Usage=FLASHONLY|Rotation=270.000|XOffset=0mil|YOffset=0mil|HoleType=Round|Shape=Octagon|*
%AMOCTAGOND23*
4,1,8,-0.01650,-0.03300,0.01650,-0.03300,0.03300,-0.01650,0.03300,0.01650,0.01650,0.03300,-0.01650,0.03300,-0.03300,0.01650,-0.03300,-0.01650,-0.01650,-0.03300,0.0*
%
%ADD23OCTAGOND23*%

%ADD24O,0.04362X0.08724*%
G04:AMPARAMS|DCode=25|XSize=52mil|YSize=52mil|CornerRadius=0mil|HoleSize=0mil|Usage=FLASHONLY|Rotation=90.000|XOffset=0mil|YOffset=0mil|HoleType=Round|Shape=Octagon|*
%AMOCTAGOND25*
4,1,8,0.01300,0.02600,-0.01300,0.02600,-0.02600,0.01300,-0.02600,-0.01300,-0.01300,-0.02600,0.01300,-0.02600,0.02600,-0.01300,0.02600,0.01300,0.01300,0.02600,0.0*
%
%ADD25OCTAGOND25*%

%ADD26O,0.06000X0.12000*%
%ADD27O,0.04000X0.08000*%
%ADD28O,0.08724X0.04362*%
%ADD29C,0.04362*%
%ADD30C,0.05937*%
%ADD31R,0.05937X0.05937*%
G04:AMPARAMS|DCode=32|XSize=59.37mil|YSize=59.37mil|CornerRadius=0mil|HoleSize=0mil|Usage=FLASHONLY|Rotation=90.000|XOffset=0mil|YOffset=0mil|HoleType=Round|Shape=Octagon|*
%AMOCTAGOND32*
4,1,8,0.01484,0.02969,-0.01484,0.02969,-0.02969,0.01484,-0.02969,-0.01484,-0.01484,-0.02969,0.01484,-0.02969,0.02969,-0.01484,0.02969,0.01484,0.01484,0.02969,0.0*
%
%ADD32OCTAGOND32*%

%ADD33C,0.06600*%
%ADD34R,0.05937X0.05937*%
G04:AMPARAMS|DCode=35|XSize=52mil|YSize=52mil|CornerRadius=0mil|HoleSize=0mil|Usage=FLASHONLY|Rotation=0.000|XOffset=0mil|YOffset=0mil|HoleType=Round|Shape=Octagon|*
%AMOCTAGOND35*
4,1,8,0.02600,-0.01300,0.02600,0.01300,0.01300,0.02600,-0.01300,0.02600,-0.02600,0.01300,-0.02600,-0.01300,-0.01300,-0.02600,0.01300,-0.02600,0.02600,-0.01300,0.0*
%
%ADD35OCTAGOND35*%

D23*
X45000Y105000D02*
D03*
Y115000D02*
D03*
X115000Y60000D02*
D03*
Y50000D02*
D03*
X265000Y95000D02*
D03*
Y105000D02*
D03*
X180000Y70000D02*
D03*
Y80000D02*
D03*
X65000Y95000D02*
D03*
Y105000D02*
D03*
X260000Y55000D02*
D03*
Y65000D02*
D03*
X170000Y90000D02*
D03*
Y100000D02*
D03*
X240000Y60000D02*
D03*
Y70000D02*
D03*
X130000Y30000D02*
D03*
Y40000D02*
D03*
X305000Y125000D02*
D03*
Y135000D02*
D03*
X215000Y55000D02*
D03*
Y65000D02*
D03*
X285000Y115000D02*
D03*
Y125000D02*
D03*
X190000Y50000D02*
D03*
Y60000D02*
D03*
X100000Y70000D02*
D03*
Y80000D02*
D03*
X25000Y115000D02*
D03*
Y125000D02*
D03*
D24*
X135000Y255000D02*
D03*
X145000D02*
D03*
X155000D02*
D03*
X165000D02*
D03*
X175000D02*
D03*
X40000Y225000D02*
D03*
X35000D02*
D03*
D25*
X205000Y15000D02*
D03*
Y45000D02*
D03*
X45000Y75000D02*
D03*
Y45000D02*
D03*
X250000D02*
D03*
Y15000D02*
D03*
X160000Y80000D02*
D03*
Y50000D02*
D03*
X30000Y90000D02*
D03*
Y60000D02*
D03*
X230000Y50000D02*
D03*
Y20000D02*
D03*
X15000Y105000D02*
D03*
Y75000D02*
D03*
X320000Y110000D02*
D03*
Y80000D02*
D03*
X300000Y100000D02*
D03*
Y70000D02*
D03*
X180000Y40000D02*
D03*
Y10000D02*
D03*
X280000Y80000D02*
D03*
Y50000D02*
D03*
X170000Y60000D02*
D03*
Y30000D02*
D03*
D26*
X180000Y290000D02*
D03*
X170000D02*
D03*
X160000D02*
D03*
D27*
X110000Y255000D02*
D03*
X105000D02*
D03*
X100000D02*
D03*
X95000D02*
D03*
D28*
X240000Y245000D02*
D03*
Y255000D02*
D03*
Y265000D02*
D03*
Y275000D02*
D03*
Y285000D02*
D03*
D29*
X128937Y189409D02*
D03*
Y197283D02*
D03*
Y205157D02*
D03*
X121063Y189409D02*
D03*
Y197283D02*
D03*
Y205157D02*
D03*
D30*
X70906Y181063D02*
D03*
Y188937D02*
D03*
X220000Y155000D02*
D03*
X135000Y166811D02*
D03*
X125000D02*
D03*
X115000D02*
D03*
X105000D02*
D03*
X95000D02*
D03*
X300000Y215000D02*
D03*
X290000D02*
D03*
X280000D02*
D03*
X270000D02*
D03*
X260000D02*
D03*
X250000D02*
D03*
X240000D02*
D03*
X230000D02*
D03*
X220000D02*
D03*
X300000Y155000D02*
D03*
X290000D02*
D03*
X280000D02*
D03*
X270000D02*
D03*
X260000D02*
D03*
X250000D02*
D03*
X240000D02*
D03*
X230000D02*
D03*
X100000Y215000D02*
D03*
X110000D02*
D03*
X120000D02*
D03*
X130000D02*
D03*
X140000D02*
D03*
X150000D02*
D03*
X160000D02*
D03*
X170000D02*
D03*
X180000D02*
D03*
X190000D02*
D03*
X80000Y205000D02*
D03*
X190000Y155000D02*
D03*
X180000D02*
D03*
X170000D02*
D03*
X160000D02*
D03*
X150000D02*
D03*
X140000D02*
D03*
X130000D02*
D03*
X120000D02*
D03*
X110000D02*
D03*
X100000D02*
D03*
X90000D02*
D03*
X80000D02*
D03*
X200000D02*
D03*
Y215000D02*
D03*
X250000Y205000D02*
D03*
Y195000D02*
D03*
Y165000D02*
D03*
D31*
X210000Y215000D02*
D03*
X250000Y185000D02*
D03*
X70000Y155000D02*
D03*
D32*
X210000D02*
D03*
X250000Y175000D02*
D03*
X90000Y215000D02*
D03*
D33*
X70000D02*
D03*
D34*
X80000D02*
D03*
D35*
X120000Y20000D02*
D03*
X90000D02*
D03*
X105000Y40000D02*
D03*
X75000D02*
D03*
X90000Y60000D02*
D03*
X60000D02*
D03*
M02*
