%TF.GenerationSoftware,Altium Limited,Altium Designer,23.10.1 (27)*%
G04 Layer_Color=0*
%FSLAX45Y45*%
%MOMM*%
%TF.SameCoordinates,F86A89F4-389E-4F6C-A475-7AF67203D636*%
%TF.FilePolarity,Positive*%
%TF.FileFunction,Plated,1,2,PTH,Drill*%
%TF.Part,Single*%
G01*
G75*
%TA.AperFunction,ComponentDrill*%
%ADD26C,0.81280*%
%ADD27C,0.59995*%
%ADD28C,1.01600*%
%ADD29C,0.59995*%
%ADD30C,1.00000*%
%ADD31C,1.00000*%
%ADD32C,0.81280*%
D26*
X1143000Y2667000D02*
D03*
Y2921000D02*
D03*
X5207000Y381000D02*
D03*
Y1143000D02*
D03*
X2921000Y1524000D02*
D03*
Y1270000D02*
D03*
X1143000Y1905000D02*
D03*
Y1143000D02*
D03*
X6350000D02*
D03*
Y381000D02*
D03*
X4064000Y2032000D02*
D03*
Y1270000D02*
D03*
X762000Y2286000D02*
D03*
Y1524000D02*
D03*
X5842000Y1270000D02*
D03*
Y508000D02*
D03*
X381000Y2667000D02*
D03*
Y1905000D02*
D03*
X8128000Y2794000D02*
D03*
Y2032000D02*
D03*
X7620000Y2540000D02*
D03*
Y1778000D02*
D03*
X4572000Y1016000D02*
D03*
Y254000D02*
D03*
X7112000Y2032000D02*
D03*
Y1270000D02*
D03*
X4318000Y1524000D02*
D03*
Y762000D02*
D03*
X6731000Y2413000D02*
D03*
Y2667000D02*
D03*
X4572000Y1778000D02*
D03*
Y2032000D02*
D03*
X1651000Y2413000D02*
D03*
Y2667000D02*
D03*
X6604000Y1397000D02*
D03*
Y1651000D02*
D03*
X4318000Y2286000D02*
D03*
Y2540000D02*
D03*
X6096000Y1524000D02*
D03*
Y1778000D02*
D03*
X3302000Y762000D02*
D03*
Y1016000D02*
D03*
X7747000Y3175000D02*
D03*
Y3429000D02*
D03*
X5461000Y1397000D02*
D03*
Y1651000D02*
D03*
X7239000Y2921000D02*
D03*
Y3175000D02*
D03*
X4826000Y1270000D02*
D03*
Y1524000D02*
D03*
X2540000Y1778000D02*
D03*
Y2032000D02*
D03*
X635000Y2921000D02*
D03*
Y3175000D02*
D03*
D27*
X3429000Y6477000D02*
D03*
X3683000D02*
D03*
X3937000D02*
D03*
X4191000D02*
D03*
X4445000D02*
D03*
X2794000D02*
D03*
X2667000D02*
D03*
X2540000D02*
D03*
X2413000D02*
D03*
X1016000Y5715000D02*
D03*
X889000D02*
D03*
D28*
X4572000Y7366000D02*
D03*
X4318000D02*
D03*
X4064000D02*
D03*
D29*
X6096000Y6223000D02*
D03*
Y6477000D02*
D03*
Y6731000D02*
D03*
Y6985000D02*
D03*
Y7239000D02*
D03*
X3275000Y4810989D02*
D03*
Y5010988D02*
D03*
Y5210988D02*
D03*
X3075000Y4810989D02*
D03*
Y5010988D02*
D03*
Y5210988D02*
D03*
D30*
X1801012Y4599000D02*
D03*
Y4799000D02*
D03*
X5334000Y5461000D02*
D03*
X3302000Y3937000D02*
D03*
X6350000Y5207000D02*
D03*
Y4953000D02*
D03*
X1778000Y5461000D02*
D03*
X6350000Y4699000D02*
D03*
X1778000Y3937000D02*
D03*
D31*
X5588000D02*
D03*
X3429000Y4236999D02*
D03*
X3175000D02*
D03*
X2921000D02*
D03*
X2667000D02*
D03*
X2413000D02*
D03*
X7620000Y5461000D02*
D03*
X7366000D02*
D03*
X7112000D02*
D03*
X6858000D02*
D03*
X6604000D02*
D03*
X6350000D02*
D03*
X6096000D02*
D03*
X5842000D02*
D03*
X5588000D02*
D03*
X7620000Y3937000D02*
D03*
X7366000D02*
D03*
X7112000D02*
D03*
X6858000D02*
D03*
X6604000D02*
D03*
X6350000D02*
D03*
X6096000D02*
D03*
X5842000D02*
D03*
X5334000D02*
D03*
X2540000Y5461000D02*
D03*
X2794000D02*
D03*
X3048000D02*
D03*
X3302000D02*
D03*
X3556000D02*
D03*
X3810000D02*
D03*
X4064000D02*
D03*
X4318000D02*
D03*
X4572000D02*
D03*
X4826000D02*
D03*
X2032000Y5207000D02*
D03*
X4826000Y3937000D02*
D03*
X4572000D02*
D03*
X4318000D02*
D03*
X4064000D02*
D03*
X3810000D02*
D03*
X3556000D02*
D03*
X3048000D02*
D03*
X2794000D02*
D03*
X2540000D02*
D03*
X2286000D02*
D03*
X2032000D02*
D03*
X5080000D02*
D03*
Y5461000D02*
D03*
X6350000Y4191000D02*
D03*
Y4445000D02*
D03*
X2286000Y5461000D02*
D03*
X2032000D02*
D03*
D32*
X3048000Y508000D02*
D03*
X2286000D02*
D03*
X2667000Y1016000D02*
D03*
X1905000D02*
D03*
X2286000Y1524000D02*
D03*
X1524000D02*
D03*
%TF.MD5,b10f969d458cd52f52c61be545978cdf*%
M02*
