%TF.GenerationSoftware,Altium Limited,Altium Designer,23.10.1 (27)*%
G04 Layer_Physical_Order=1*
G04 Layer_Color=255*
%FSLAX45Y45*%
%MOMM*%
%TF.SameCoordinates,F86A89F4-389E-4F6C-A475-7AF67203D636*%
%TF.FilePolarity,Positive*%
%TF.FileFunction,Copper,L1,Top,Signal*%
%TF.Part,Single*%
G01*
G75*
%TA.AperFunction,ComponentPad*%
G04:AMPARAMS|DCode=10|XSize=1.6764mm|YSize=1.6764mm|CornerRadius=0mm|HoleSize=0mm|Usage=FLASHONLY|Rotation=270.000|XOffset=0mm|YOffset=0mm|HoleType=Round|Shape=Octagon|*
%AMOCTAGOND10*
4,1,8,-0.41910,-0.83820,0.41910,-0.83820,0.83820,-0.41910,0.83820,0.41910,0.41910,0.83820,-0.41910,0.83820,-0.83820,0.41910,-0.83820,-0.41910,-0.41910,-0.83820,0.0*
%
%ADD10OCTAGOND10*%

%ADD11O,1.10795X2.21590*%
G04:AMPARAMS|DCode=12|XSize=1.3208mm|YSize=1.3208mm|CornerRadius=0mm|HoleSize=0mm|Usage=FLASHONLY|Rotation=90.000|XOffset=0mm|YOffset=0mm|HoleType=Round|Shape=Octagon|*
%AMOCTAGOND12*
4,1,8,0.33020,0.66040,-0.33020,0.66040,-0.66040,0.33020,-0.66040,-0.33020,-0.33020,-0.66040,0.33020,-0.66040,0.66040,-0.33020,0.66040,0.33020,0.33020,0.66040,0.0*
%
%ADD12OCTAGOND12*%

%ADD13O,1.52400X3.04800*%
%ADD14O,1.01600X2.03200*%
%ADD15O,2.21590X1.10795*%
%ADD16C,1.10795*%
%ADD17C,1.50800*%
%ADD18R,1.50800X1.50800*%
G04:AMPARAMS|DCode=19|XSize=1.508mm|YSize=1.508mm|CornerRadius=0mm|HoleSize=0mm|Usage=FLASHONLY|Rotation=90.000|XOffset=0mm|YOffset=0mm|HoleType=Round|Shape=Octagon|*
%AMOCTAGOND19*
4,1,8,0.37700,0.75400,-0.37700,0.75400,-0.75400,0.37700,-0.75400,-0.37700,-0.37700,-0.75400,0.37700,-0.75400,0.75400,-0.37700,0.75400,0.37700,0.37700,0.75400,0.0*
%
%ADD19OCTAGOND19*%

%ADD20C,1.67640*%
%ADD21R,1.50800X1.50800*%
G04:AMPARAMS|DCode=22|XSize=1.3208mm|YSize=1.3208mm|CornerRadius=0mm|HoleSize=0mm|Usage=FLASHONLY|Rotation=0.000|XOffset=0mm|YOffset=0mm|HoleType=Round|Shape=Octagon|*
%AMOCTAGOND22*
4,1,8,0.66040,-0.33020,0.66040,0.33020,0.33020,0.66040,-0.33020,0.66040,-0.66040,0.33020,-0.66040,-0.33020,-0.33020,-0.66040,0.33020,-0.66040,0.66040,-0.33020,0.0*
%
%ADD22OCTAGOND22*%

D10*
X1143000Y2667000D02*
D03*
Y2921000D02*
D03*
X2921000Y1524000D02*
D03*
Y1270000D02*
D03*
X6731000Y2413000D02*
D03*
Y2667000D02*
D03*
X4572000Y1778000D02*
D03*
Y2032000D02*
D03*
X1651000Y2413000D02*
D03*
Y2667000D02*
D03*
X6604000Y1397000D02*
D03*
Y1651000D02*
D03*
X4318000Y2286000D02*
D03*
Y2540000D02*
D03*
X6096000Y1524000D02*
D03*
Y1778000D02*
D03*
X3302000Y762000D02*
D03*
Y1016000D02*
D03*
X7747000Y3175000D02*
D03*
Y3429000D02*
D03*
X5461000Y1397000D02*
D03*
Y1651000D02*
D03*
X7239000Y2921000D02*
D03*
Y3175000D02*
D03*
X4826000Y1270000D02*
D03*
Y1524000D02*
D03*
X2540000Y1778000D02*
D03*
Y2032000D02*
D03*
X635000Y2921000D02*
D03*
Y3175000D02*
D03*
D11*
X3429000Y6477000D02*
D03*
X3683000D02*
D03*
X3937000D02*
D03*
X4191000D02*
D03*
X4445000D02*
D03*
X1016000Y5715000D02*
D03*
X889000D02*
D03*
D12*
X5207000Y381000D02*
D03*
Y1143000D02*
D03*
X1143000Y1905000D02*
D03*
Y1143000D02*
D03*
X6350000D02*
D03*
Y381000D02*
D03*
X4064000Y2032000D02*
D03*
Y1270000D02*
D03*
X762000Y2286000D02*
D03*
Y1524000D02*
D03*
X5842000Y1270000D02*
D03*
Y508000D02*
D03*
X381000Y2667000D02*
D03*
Y1905000D02*
D03*
X8128000Y2794000D02*
D03*
Y2032000D02*
D03*
X7620000Y2540000D02*
D03*
Y1778000D02*
D03*
X4572000Y1016000D02*
D03*
Y254000D02*
D03*
X7112000Y2032000D02*
D03*
Y1270000D02*
D03*
X4318000Y1524000D02*
D03*
Y762000D02*
D03*
D13*
X4572000Y7366000D02*
D03*
X4318000D02*
D03*
X4064000D02*
D03*
D14*
X2794000Y6477000D02*
D03*
X2667000D02*
D03*
X2540000D02*
D03*
X2413000D02*
D03*
D15*
X6096000Y6223000D02*
D03*
Y6477000D02*
D03*
Y6731000D02*
D03*
Y6985000D02*
D03*
Y7239000D02*
D03*
D16*
X3275000Y4810989D02*
D03*
Y5010988D02*
D03*
Y5210988D02*
D03*
X3075000Y4810989D02*
D03*
Y5010988D02*
D03*
Y5210988D02*
D03*
D17*
X1801012Y4599000D02*
D03*
Y4799000D02*
D03*
X5588000Y3937000D02*
D03*
X3429000Y4236999D02*
D03*
X3175000D02*
D03*
X2921000D02*
D03*
X2667000D02*
D03*
X2413000D02*
D03*
X7620000Y5461000D02*
D03*
X7366000D02*
D03*
X7112000D02*
D03*
X6858000D02*
D03*
X6604000D02*
D03*
X6350000D02*
D03*
X6096000D02*
D03*
X5842000D02*
D03*
X5588000D02*
D03*
X7620000Y3937000D02*
D03*
X7366000D02*
D03*
X7112000D02*
D03*
X6858000D02*
D03*
X6604000D02*
D03*
X6350000D02*
D03*
X6096000D02*
D03*
X5842000D02*
D03*
X2540000Y5461000D02*
D03*
X2794000D02*
D03*
X3048000D02*
D03*
X3302000D02*
D03*
X3556000D02*
D03*
X3810000D02*
D03*
X4064000D02*
D03*
X4318000D02*
D03*
X4572000D02*
D03*
X4826000D02*
D03*
X2032000Y5207000D02*
D03*
X4826000Y3937000D02*
D03*
X4572000D02*
D03*
X4318000D02*
D03*
X4064000D02*
D03*
X3810000D02*
D03*
X3556000D02*
D03*
X3302000D02*
D03*
X3048000D02*
D03*
X2794000D02*
D03*
X2540000D02*
D03*
X2286000D02*
D03*
X2032000D02*
D03*
X5080000D02*
D03*
Y5461000D02*
D03*
X6350000Y5207000D02*
D03*
Y4953000D02*
D03*
Y4191000D02*
D03*
D18*
X5334000Y5461000D02*
D03*
X6350000Y4699000D02*
D03*
X1778000Y3937000D02*
D03*
D19*
X5334000D02*
D03*
X6350000Y4445000D02*
D03*
X2286000Y5461000D02*
D03*
D20*
X1778000D02*
D03*
D21*
X2032000D02*
D03*
D22*
X3048000Y508000D02*
D03*
X2286000D02*
D03*
X2667000Y1016000D02*
D03*
X1905000D02*
D03*
X2286000Y1524000D02*
D03*
X1524000D02*
D03*
%TF.MD5,62d3f6e0cb539560877227029dd912fe*%
M02*
