%TF.GenerationSoftware,Altium Limited,Altium Designer,23.10.1 (27)*%
G04 Layer_Physical_Order=2*
G04 Layer_Color=16711680*
%FSLAX45Y45*%
%MOMM*%
%TF.SameCoordinates,F86A89F4-389E-4F6C-A475-7AF67203D636*%
%TF.FilePolarity,Positive*%
%TF.FileFunction,Copper,L2,Bot,Signal*%
%TF.Part,Single*%
G01*
G75*
%TA.AperFunction,ComponentPad*%
G04:AMPARAMS|DCode=10|XSize=1.6764mm|YSize=1.6764mm|CornerRadius=0mm|HoleSize=0mm|Usage=FLASHONLY|Rotation=270.000|XOffset=0mm|YOffset=0mm|HoleType=Round|Shape=Octagon|*
%AMOCTAGOND10*
4,1,8,-0.41910,-0.83820,0.41910,-0.83820,0.83820,-0.41910,0.83820,0.41910,0.41910,0.83820,-0.41910,0.83820,-0.83820,0.41910,-0.83820,-0.41910,-0.41910,-0.83820,0.0*
%
%ADD10OCTAGOND10*%

%ADD11O,1.10795X2.21590*%
G04:AMPARAMS|DCode=12|XSize=1.3208mm|YSize=1.3208mm|CornerRadius=0mm|HoleSize=0mm|Usage=FLASHONLY|Rotation=90.000|XOffset=0mm|YOffset=0mm|HoleType=Round|Shape=Octagon|*
%AMOCTAGOND12*
4,1,8,0.33020,0.66040,-0.33020,0.66040,-0.66040,0.33020,-0.66040,-0.33020,-0.33020,-0.66040,0.33020,-0.66040,0.66040,-0.33020,0.66040,0.33020,0.33020,0.66040,0.0*
%
%ADD12OCTAGOND12*%

%ADD13O,1.52400X3.04800*%
%ADD14O,1.01600X2.03200*%
%ADD15O,2.21590X1.10795*%
%ADD16C,1.10795*%
%ADD17C,1.50800*%
%ADD18R,1.50800X1.50800*%
G04:AMPARAMS|DCode=19|XSize=1.508mm|YSize=1.508mm|CornerRadius=0mm|HoleSize=0mm|Usage=FLASHONLY|Rotation=90.000|XOffset=0mm|YOffset=0mm|HoleType=Round|Shape=Octagon|*
%AMOCTAGOND19*
4,1,8,0.37700,0.75400,-0.37700,0.75400,-0.75400,0.37700,-0.75400,-0.37700,-0.37700,-0.75400,0.37700,-0.75400,0.75400,-0.37700,0.75400,0.37700,0.37700,0.75400,0.0*
%
%ADD19OCTAGOND19*%

%ADD20C,1.67640*%
%ADD21R,1.50800X1.50800*%
G04:AMPARAMS|DCode=22|XSize=1.3208mm|YSize=1.3208mm|CornerRadius=0mm|HoleSize=0mm|Usage=FLASHONLY|Rotation=0.000|XOffset=0mm|YOffset=0mm|HoleType=Round|Shape=Octagon|*
%AMOCTAGOND22*
4,1,8,0.66040,-0.33020,0.66040,0.33020,0.33020,0.66040,-0.33020,0.66040,-0.66040,0.33020,-0.66040,-0.33020,-0.33020,-0.66040,0.33020,-0.66040,0.66040,-0.33020,0.0*
%
%ADD22OCTAGOND22*%

%TA.AperFunction,Conductor*%
%ADD23C,0.25400*%
G36*
X8382000Y127000D02*
X127000D01*
Y7738529D01*
X8382000D01*
Y127000D01*
D02*
G37*
%LPC*%
G36*
X4572000Y7544677D02*
X4545477Y7541185D01*
X4520762Y7530948D01*
X4499538Y7514662D01*
X4483252Y7493438D01*
X4473015Y7468723D01*
X4469523Y7442200D01*
Y7289800D01*
X4473015Y7263277D01*
X4483252Y7238562D01*
X4499538Y7217338D01*
X4520762Y7201052D01*
X4545477Y7190815D01*
X4572000Y7187323D01*
X4598523Y7190815D01*
X4623238Y7201052D01*
X4644462Y7217338D01*
X4660748Y7238562D01*
X4670985Y7263277D01*
X4674477Y7289800D01*
Y7442200D01*
X4670985Y7468723D01*
X4660748Y7493438D01*
X4644462Y7514662D01*
X4623238Y7530948D01*
X4598523Y7541185D01*
X4572000Y7544677D01*
D02*
G37*
G36*
X6151397Y7320495D02*
X6040603D01*
X6019510Y7317718D01*
X5999855Y7309576D01*
X5982977Y7296625D01*
X5970026Y7279747D01*
X5969239Y7277847D01*
X5588000D01*
X5573134Y7274889D01*
X5560531Y7266469D01*
X5190909Y6896847D01*
X4572000D01*
X4557134Y6893889D01*
X4544531Y6885469D01*
X4417531Y6758469D01*
X4409111Y6745866D01*
X4406153Y6731000D01*
Y6603761D01*
X4404253Y6602974D01*
X4387375Y6590023D01*
X4374424Y6573145D01*
X4366282Y6553490D01*
X4363505Y6532397D01*
Y6421603D01*
X4366282Y6400510D01*
X4367070Y6398610D01*
X4230307Y6261847D01*
X3953091D01*
X3848847Y6366091D01*
Y6604000D01*
X3845889Y6618866D01*
X3837469Y6631469D01*
X3456469Y7012469D01*
X3443866Y7020889D01*
X3429000Y7023847D01*
X2667000D01*
X2652134Y7020889D01*
X2639531Y7012469D01*
X2385531Y6758469D01*
X2377111Y6745866D01*
X2374153Y6731000D01*
Y6594040D01*
X2358653Y6582147D01*
X2346439Y6566229D01*
X2338761Y6547692D01*
X2336142Y6527800D01*
Y6426200D01*
X2338761Y6406308D01*
X2346439Y6387771D01*
X2358653Y6371853D01*
X2374571Y6359639D01*
X2393108Y6351961D01*
X2413000Y6349342D01*
X2432892Y6351961D01*
X2451429Y6359639D01*
X2467347Y6371853D01*
X2479561Y6387771D01*
X2487239Y6406308D01*
X2489858Y6426200D01*
Y6527800D01*
X2487239Y6547692D01*
X2479561Y6566229D01*
X2467347Y6582147D01*
X2451847Y6594040D01*
Y6714909D01*
X2683091Y6946153D01*
X3412909D01*
X3771153Y6587909D01*
Y6563897D01*
X3758453Y6561370D01*
X3753576Y6573145D01*
X3740625Y6590023D01*
X3723747Y6602974D01*
X3704092Y6611115D01*
X3683000Y6613892D01*
X3661908Y6611115D01*
X3642253Y6602974D01*
X3625375Y6590023D01*
X3612424Y6573145D01*
X3604282Y6553490D01*
X3601505Y6532397D01*
Y6421603D01*
X3604282Y6400510D01*
X3612424Y6380855D01*
X3625375Y6363977D01*
X3642253Y6351026D01*
X3644153Y6350239D01*
Y5969000D01*
X3647111Y5954134D01*
X3655531Y5941531D01*
X3771153Y5825909D01*
Y5554947D01*
X3771093Y5554930D01*
X3748108Y5541660D01*
X3729340Y5522892D01*
X3716070Y5499907D01*
X3709200Y5474270D01*
Y5447730D01*
X3716070Y5422093D01*
X3729340Y5399108D01*
X3748108Y5380340D01*
X3771093Y5367070D01*
X3796730Y5360200D01*
X3823270D01*
X3848907Y5367070D01*
X3871892Y5380340D01*
X3890660Y5399108D01*
X3903930Y5422093D01*
X3910800Y5447730D01*
Y5474270D01*
X3903930Y5499907D01*
X3890660Y5522892D01*
X3871892Y5541660D01*
X3848907Y5554930D01*
X3848847Y5554947D01*
Y5842000D01*
X3845889Y5856866D01*
X3837469Y5869469D01*
X3721847Y5985091D01*
Y6350239D01*
X3723747Y6351026D01*
X3740625Y6363977D01*
X3753576Y6380855D01*
X3758453Y6392630D01*
X3771153Y6390103D01*
Y6350000D01*
X3774111Y6335134D01*
X3782531Y6322531D01*
X3909531Y6195531D01*
X3922134Y6187111D01*
X3937000Y6184153D01*
X4246397D01*
X4261263Y6187111D01*
X4273866Y6195531D01*
X4422007Y6343672D01*
X4423908Y6342885D01*
X4445000Y6340108D01*
X4466092Y6342885D01*
X4485747Y6351026D01*
X4502625Y6363977D01*
X4515576Y6380855D01*
X4523718Y6400510D01*
X4526495Y6421603D01*
Y6532397D01*
X4523718Y6553490D01*
X4515576Y6573145D01*
X4502625Y6590023D01*
X4485747Y6602974D01*
X4483847Y6603761D01*
Y6714909D01*
X4588091Y6819153D01*
X5207000D01*
X5221866Y6822111D01*
X5234469Y6830531D01*
X5604091Y7200153D01*
X5969239D01*
X5970026Y7198253D01*
X5982977Y7181375D01*
X5999855Y7168424D01*
X6019510Y7160282D01*
X6040603Y7157505D01*
X6151397D01*
X6172490Y7160282D01*
X6192145Y7168424D01*
X6209023Y7181375D01*
X6221974Y7198253D01*
X6230115Y7217908D01*
X6232892Y7239000D01*
X6230115Y7260092D01*
X6221974Y7279747D01*
X6209023Y7296625D01*
X6192145Y7309576D01*
X6172490Y7317718D01*
X6151397Y7320495D01*
D02*
G37*
G36*
X6349999Y7658847D02*
X4396400D01*
X4381534Y7655889D01*
X4368931Y7647469D01*
X4290531Y7569069D01*
X4282111Y7556466D01*
X4279153Y7541600D01*
Y7536080D01*
X4266762Y7530948D01*
X4245538Y7514662D01*
X4229252Y7493438D01*
X4219015Y7468723D01*
X4215523Y7442200D01*
Y7289800D01*
X4219015Y7263277D01*
X4229252Y7238562D01*
X4245538Y7217338D01*
X4266762Y7201052D01*
X4279153Y7195920D01*
Y7128091D01*
X4163531Y7012469D01*
X4155111Y6999866D01*
X4152153Y6985000D01*
Y6603761D01*
X4150253Y6602974D01*
X4133375Y6590023D01*
X4120424Y6573145D01*
X4112282Y6553490D01*
X4109505Y6532397D01*
Y6421603D01*
X4112282Y6400510D01*
X4120424Y6380855D01*
X4133375Y6363977D01*
X4150253Y6351026D01*
X4169908Y6342885D01*
X4191000Y6340108D01*
X4212092Y6342885D01*
X4231747Y6351026D01*
X4248625Y6363977D01*
X4261576Y6380855D01*
X4269718Y6400510D01*
X4272495Y6421603D01*
Y6532397D01*
X4269718Y6553490D01*
X4261576Y6573145D01*
X4248625Y6590023D01*
X4231747Y6602974D01*
X4229847Y6603761D01*
Y6968909D01*
X4345469Y7084531D01*
X4353889Y7097134D01*
X4356847Y7112000D01*
Y7195920D01*
X4369238Y7201052D01*
X4390462Y7217338D01*
X4406748Y7238562D01*
X4416985Y7263277D01*
X4420477Y7289800D01*
Y7442200D01*
X4416985Y7468723D01*
X4406748Y7493438D01*
X4390462Y7514662D01*
X4375466Y7526169D01*
X4373334Y7541997D01*
X4412490Y7581153D01*
X6333909D01*
X6565153Y7349909D01*
Y7128091D01*
X6460909Y7023847D01*
X6222761D01*
X6221974Y7025747D01*
X6209023Y7042625D01*
X6192145Y7055576D01*
X6172490Y7063718D01*
X6151397Y7066495D01*
X6040603D01*
X6019510Y7063718D01*
X5999855Y7055576D01*
X5982977Y7042625D01*
X5970026Y7025747D01*
X5961885Y7006092D01*
X5959108Y6985000D01*
X5961885Y6963908D01*
X5970026Y6944253D01*
X5982977Y6927375D01*
X5999855Y6914424D01*
X6019510Y6906282D01*
X6040603Y6903505D01*
X6151397D01*
X6172490Y6906282D01*
X6192145Y6914424D01*
X6209023Y6927375D01*
X6221974Y6944253D01*
X6222761Y6946153D01*
X6477000D01*
X6491866Y6949111D01*
X6504469Y6957531D01*
X6631469Y7084531D01*
X6639889Y7097134D01*
X6642847Y7112000D01*
Y7366000D01*
X6639889Y7380866D01*
X6631469Y7393469D01*
X6383420Y7641517D01*
X6383420Y7641517D01*
X6377468Y7647469D01*
X6364865Y7655889D01*
X6349999Y7658847D01*
D02*
G37*
G36*
X2794000Y6604658D02*
X2774108Y6602039D01*
X2755571Y6594361D01*
X2739653Y6582147D01*
X2736850Y6578493D01*
X2724150D01*
X2721347Y6582147D01*
X2705429Y6594361D01*
X2686892Y6602039D01*
X2667000Y6604658D01*
X2647108Y6602039D01*
X2628571Y6594361D01*
X2612653Y6582147D01*
X2600439Y6566229D01*
X2592761Y6547692D01*
X2590142Y6527800D01*
Y6426200D01*
X2592761Y6406308D01*
X2600439Y6387771D01*
X2612653Y6371853D01*
X2628153Y6359960D01*
Y5858091D01*
X2512531Y5742469D01*
X2504111Y5729866D01*
X2501153Y5715000D01*
Y5554947D01*
X2501093Y5554930D01*
X2478108Y5541660D01*
X2459340Y5522892D01*
X2446070Y5499907D01*
X2439200Y5474270D01*
Y5447730D01*
X2446070Y5422093D01*
X2459340Y5399108D01*
X2478108Y5380340D01*
X2501093Y5367070D01*
X2526730Y5360200D01*
X2553270D01*
X2578907Y5367070D01*
X2601892Y5380340D01*
X2620660Y5399108D01*
X2633930Y5422093D01*
X2640800Y5447730D01*
Y5474270D01*
X2633930Y5499907D01*
X2620660Y5522892D01*
X2601892Y5541660D01*
X2578907Y5554930D01*
X2578847Y5554947D01*
Y5698909D01*
X2694469Y5814531D01*
X2702889Y5827134D01*
X2705847Y5842000D01*
Y6359960D01*
X2721347Y6371853D01*
X2724150Y6375507D01*
X2736850D01*
X2739653Y6371853D01*
X2755153Y6359960D01*
Y5554947D01*
X2755093Y5554930D01*
X2732108Y5541660D01*
X2713340Y5522892D01*
X2700070Y5499907D01*
X2693200Y5474270D01*
Y5447730D01*
X2700070Y5422093D01*
X2713340Y5399108D01*
X2732108Y5380340D01*
X2755093Y5367070D01*
X2780730Y5360200D01*
X2807270D01*
X2832907Y5367070D01*
X2855892Y5380340D01*
X2874660Y5399108D01*
X2887930Y5422093D01*
X2894800Y5447730D01*
Y5474270D01*
X2887930Y5499907D01*
X2874660Y5522892D01*
X2855892Y5541660D01*
X2832907Y5554930D01*
X2832847Y5554947D01*
Y6359960D01*
X2848347Y6371853D01*
X2860561Y6387771D01*
X2868239Y6406308D01*
X2870858Y6426200D01*
Y6527800D01*
X2868239Y6547692D01*
X2860561Y6566229D01*
X2848347Y6582147D01*
X2832429Y6594361D01*
X2813892Y6602039D01*
X2794000Y6604658D01*
D02*
G37*
G36*
X6151397Y6558495D02*
X6040603D01*
X6019510Y6555718D01*
X5999855Y6547576D01*
X5982977Y6534625D01*
X5970026Y6517747D01*
X5969239Y6515847D01*
X5461000D01*
X5446134Y6512889D01*
X5433531Y6504469D01*
X5063909Y6134847D01*
X4318000D01*
X4303134Y6131889D01*
X4290531Y6123469D01*
X4036531Y5869469D01*
X4028111Y5856866D01*
X4025153Y5842000D01*
Y5554947D01*
X4025093Y5554930D01*
X4002108Y5541660D01*
X3983340Y5522892D01*
X3970070Y5499907D01*
X3963200Y5474270D01*
Y5447730D01*
X3970070Y5422093D01*
X3983340Y5399108D01*
X4002108Y5380340D01*
X4025093Y5367070D01*
X4050730Y5360200D01*
X4077270D01*
X4102907Y5367070D01*
X4125892Y5380340D01*
X4144660Y5399108D01*
X4157930Y5422093D01*
X4164800Y5447730D01*
Y5474270D01*
X4157930Y5499907D01*
X4144660Y5522892D01*
X4125892Y5541660D01*
X4102907Y5554930D01*
X4102847Y5554947D01*
Y5825909D01*
X4334091Y6057153D01*
X5080000D01*
X5094866Y6060111D01*
X5107469Y6068531D01*
X5477091Y6438153D01*
X5969239D01*
X5970026Y6436253D01*
X5982977Y6419375D01*
X5999855Y6406424D01*
X6019510Y6398282D01*
X6040603Y6395505D01*
X6151397D01*
X6172490Y6398282D01*
X6192145Y6406424D01*
X6209023Y6419375D01*
X6221974Y6436253D01*
X6230115Y6455908D01*
X6232892Y6477000D01*
X6230115Y6498092D01*
X6221974Y6517747D01*
X6209023Y6534625D01*
X6192145Y6547576D01*
X6172490Y6555718D01*
X6151397Y6558495D01*
D02*
G37*
G36*
Y6304495D02*
X6040603D01*
X6019510Y6301718D01*
X5999855Y6293576D01*
X5982977Y6280625D01*
X5970026Y6263747D01*
X5969239Y6261847D01*
X5588000D01*
X5573134Y6258889D01*
X5560531Y6250469D01*
X5190909Y5880847D01*
X4572000D01*
X4557134Y5877889D01*
X4544531Y5869469D01*
X4290531Y5615469D01*
X4282111Y5602866D01*
X4279153Y5588000D01*
Y5554947D01*
X4279093Y5554930D01*
X4256108Y5541660D01*
X4237340Y5522892D01*
X4224070Y5499907D01*
X4217200Y5474270D01*
Y5447730D01*
X4224070Y5422093D01*
X4237340Y5399108D01*
X4256108Y5380340D01*
X4279093Y5367070D01*
X4304730Y5360200D01*
X4331270D01*
X4356907Y5367070D01*
X4379892Y5380340D01*
X4398660Y5399108D01*
X4411930Y5422093D01*
X4418800Y5447730D01*
Y5474270D01*
X4411930Y5499907D01*
X4398660Y5522892D01*
X4379892Y5541660D01*
X4356907Y5554930D01*
X4356847Y5554947D01*
Y5571909D01*
X4588091Y5803153D01*
X5207000D01*
X5221866Y5806111D01*
X5234469Y5814531D01*
X5604091Y6184153D01*
X5969239D01*
X5970026Y6182253D01*
X5982977Y6165375D01*
X5999855Y6152424D01*
X6019510Y6144282D01*
X6040603Y6141505D01*
X6151397D01*
X6172490Y6144282D01*
X6192145Y6152424D01*
X6209023Y6165375D01*
X6221974Y6182253D01*
X6230115Y6201908D01*
X6232892Y6223000D01*
X6230115Y6244092D01*
X6221974Y6263747D01*
X6209023Y6280625D01*
X6192145Y6293576D01*
X6172490Y6301718D01*
X6151397Y6304495D01*
D02*
G37*
G36*
X1016000Y5851892D02*
X994908Y5849115D01*
X975253Y5840974D01*
X961055Y5830080D01*
X952500Y5828860D01*
X943945Y5830080D01*
X929747Y5840974D01*
X910092Y5849115D01*
X889000Y5851892D01*
X867908Y5849115D01*
X848253Y5840974D01*
X831375Y5828023D01*
X818424Y5811145D01*
X810282Y5791490D01*
X807505Y5770397D01*
Y5659603D01*
X810282Y5638510D01*
X818424Y5618855D01*
X831375Y5601977D01*
X848253Y5589026D01*
X867908Y5580885D01*
X889000Y5578108D01*
X910092Y5580885D01*
X929747Y5589026D01*
X943945Y5599920D01*
X952500Y5601140D01*
X961055Y5599920D01*
X975253Y5589026D01*
X994908Y5580885D01*
X1016000Y5578108D01*
X1037092Y5580885D01*
X1056747Y5589026D01*
X1073625Y5601977D01*
X1086576Y5618855D01*
X1094718Y5638510D01*
X1097495Y5659603D01*
Y5770397D01*
X1094718Y5791490D01*
X1086576Y5811145D01*
X1073625Y5828023D01*
X1056747Y5840974D01*
X1037092Y5849115D01*
X1016000Y5851892D01*
D02*
G37*
G36*
X7633270Y5561800D02*
X7606730D01*
X7581093Y5554930D01*
X7558108Y5541660D01*
X7539340Y5522892D01*
X7526070Y5499907D01*
X7519200Y5474270D01*
Y5447730D01*
X7526070Y5422093D01*
X7539340Y5399108D01*
X7558108Y5380340D01*
X7581093Y5367070D01*
X7606730Y5360200D01*
X7633270D01*
X7658907Y5367070D01*
X7681892Y5380340D01*
X7700660Y5399108D01*
X7713930Y5422093D01*
X7720800Y5447730D01*
Y5474270D01*
X7713930Y5499907D01*
X7700660Y5522892D01*
X7681892Y5541660D01*
X7658907Y5554930D01*
X7633270Y5561800D01*
D02*
G37*
G36*
X7379270D02*
X7352730D01*
X7327093Y5554930D01*
X7304108Y5541660D01*
X7285340Y5522892D01*
X7272070Y5499907D01*
X7265200Y5474270D01*
Y5447730D01*
X7272070Y5422093D01*
X7285340Y5399108D01*
X7304108Y5380340D01*
X7327093Y5367070D01*
X7352730Y5360200D01*
X7379270D01*
X7404907Y5367070D01*
X7427892Y5380340D01*
X7446660Y5399108D01*
X7459930Y5422093D01*
X7466800Y5447730D01*
Y5474270D01*
X7459930Y5499907D01*
X7446660Y5522892D01*
X7427892Y5541660D01*
X7404907Y5554930D01*
X7379270Y5561800D01*
D02*
G37*
G36*
X7125270D02*
X7098730D01*
X7073093Y5554930D01*
X7050108Y5541660D01*
X7031340Y5522892D01*
X7018070Y5499907D01*
X7011200Y5474270D01*
Y5447730D01*
X7018070Y5422093D01*
X7031340Y5399108D01*
X7050108Y5380340D01*
X7073093Y5367070D01*
X7098730Y5360200D01*
X7125270D01*
X7150907Y5367070D01*
X7173892Y5380340D01*
X7192660Y5399108D01*
X7205930Y5422093D01*
X7212800Y5447730D01*
Y5474270D01*
X7205930Y5499907D01*
X7192660Y5522892D01*
X7173892Y5541660D01*
X7150907Y5554930D01*
X7125270Y5561800D01*
D02*
G37*
G36*
X6871270D02*
X6844730D01*
X6819093Y5554930D01*
X6796108Y5541660D01*
X6777340Y5522892D01*
X6764070Y5499907D01*
X6757200Y5474270D01*
Y5447730D01*
X6764070Y5422093D01*
X6777340Y5399108D01*
X6796108Y5380340D01*
X6819093Y5367070D01*
X6844730Y5360200D01*
X6871270D01*
X6896907Y5367070D01*
X6919892Y5380340D01*
X6938660Y5399108D01*
X6951930Y5422093D01*
X6958800Y5447730D01*
Y5474270D01*
X6951930Y5499907D01*
X6938660Y5522892D01*
X6919892Y5541660D01*
X6896907Y5554930D01*
X6871270Y5561800D01*
D02*
G37*
G36*
X6617270D02*
X6590730D01*
X6565093Y5554930D01*
X6542108Y5541660D01*
X6523340Y5522892D01*
X6510070Y5499907D01*
X6503200Y5474270D01*
Y5447730D01*
X6510070Y5422093D01*
X6523340Y5399108D01*
X6542108Y5380340D01*
X6565093Y5367070D01*
X6590730Y5360200D01*
X6617270D01*
X6642907Y5367070D01*
X6665892Y5380340D01*
X6684660Y5399108D01*
X6697930Y5422093D01*
X6704800Y5447730D01*
Y5474270D01*
X6697930Y5499907D01*
X6684660Y5522892D01*
X6665892Y5541660D01*
X6642907Y5554930D01*
X6617270Y5561800D01*
D02*
G37*
G36*
X6363270D02*
X6336730D01*
X6311093Y5554930D01*
X6288108Y5541660D01*
X6269340Y5522892D01*
X6256070Y5499907D01*
X6249200Y5474270D01*
Y5447730D01*
X6256070Y5422093D01*
X6269340Y5399108D01*
X6288108Y5380340D01*
X6311093Y5367070D01*
X6336730Y5360200D01*
X6363270D01*
X6388907Y5367070D01*
X6411892Y5380340D01*
X6430660Y5399108D01*
X6443930Y5422093D01*
X6450800Y5447730D01*
Y5474270D01*
X6443930Y5499907D01*
X6430660Y5522892D01*
X6411892Y5541660D01*
X6388907Y5554930D01*
X6363270Y5561800D01*
D02*
G37*
G36*
X6109270D02*
X6082730D01*
X6057093Y5554930D01*
X6034108Y5541660D01*
X6015340Y5522892D01*
X6002070Y5499907D01*
X5995200Y5474270D01*
Y5447730D01*
X6002070Y5422093D01*
X6015340Y5399108D01*
X6034108Y5380340D01*
X6057093Y5367070D01*
X6082730Y5360200D01*
X6109270D01*
X6134907Y5367070D01*
X6157892Y5380340D01*
X6176660Y5399108D01*
X6189930Y5422093D01*
X6196800Y5447730D01*
Y5474270D01*
X6189930Y5499907D01*
X6176660Y5522892D01*
X6157892Y5541660D01*
X6134907Y5554930D01*
X6109270Y5561800D01*
D02*
G37*
G36*
X5855270D02*
X5828730D01*
X5803093Y5554930D01*
X5780108Y5541660D01*
X5761340Y5522892D01*
X5748070Y5499907D01*
X5741200Y5474270D01*
Y5447730D01*
X5748070Y5422093D01*
X5761340Y5399108D01*
X5780108Y5380340D01*
X5803093Y5367070D01*
X5828730Y5360200D01*
X5855270D01*
X5880907Y5367070D01*
X5903892Y5380340D01*
X5922660Y5399108D01*
X5935930Y5422093D01*
X5942800Y5447730D01*
Y5474270D01*
X5935930Y5499907D01*
X5922660Y5522892D01*
X5903892Y5541660D01*
X5880907Y5554930D01*
X5855270Y5561800D01*
D02*
G37*
G36*
X5601270D02*
X5574730D01*
X5549093Y5554930D01*
X5526108Y5541660D01*
X5507340Y5522892D01*
X5494070Y5499907D01*
X5487200Y5474270D01*
Y5447730D01*
X5494070Y5422093D01*
X5507340Y5399108D01*
X5526108Y5380340D01*
X5549093Y5367070D01*
X5574730Y5360200D01*
X5601270D01*
X5626907Y5367070D01*
X5649892Y5380340D01*
X5668660Y5399108D01*
X5681930Y5422093D01*
X5688800Y5447730D01*
Y5474270D01*
X5681930Y5499907D01*
X5668660Y5522892D01*
X5649892Y5541660D01*
X5626907Y5554930D01*
X5601270Y5561800D01*
D02*
G37*
G36*
X5093270D02*
X5066730D01*
X5041093Y5554930D01*
X5018108Y5541660D01*
X4999340Y5522892D01*
X4986070Y5499907D01*
X4979200Y5474270D01*
Y5447730D01*
X4986070Y5422093D01*
X4999340Y5399108D01*
X5018108Y5380340D01*
X5041093Y5367070D01*
X5066730Y5360200D01*
X5093270D01*
X5118907Y5367070D01*
X5141892Y5380340D01*
X5160660Y5399108D01*
X5173930Y5422093D01*
X5180800Y5447730D01*
Y5474270D01*
X5173930Y5499907D01*
X5160660Y5522892D01*
X5141892Y5541660D01*
X5118907Y5554930D01*
X5093270Y5561800D01*
D02*
G37*
G36*
X4839270D02*
X4812730D01*
X4787093Y5554930D01*
X4764108Y5541660D01*
X4745340Y5522892D01*
X4732070Y5499907D01*
X4725200Y5474270D01*
Y5447730D01*
X4732070Y5422093D01*
X4745340Y5399108D01*
X4764108Y5380340D01*
X4787093Y5367070D01*
X4812730Y5360200D01*
X4839270D01*
X4864907Y5367070D01*
X4887892Y5380340D01*
X4906660Y5399108D01*
X4919930Y5422093D01*
X4926800Y5447730D01*
Y5474270D01*
X4919930Y5499907D01*
X4906660Y5522892D01*
X4887892Y5541660D01*
X4864907Y5554930D01*
X4839270Y5561800D01*
D02*
G37*
G36*
X4585270D02*
X4558730D01*
X4533093Y5554930D01*
X4510108Y5541660D01*
X4491340Y5522892D01*
X4478070Y5499907D01*
X4471200Y5474270D01*
Y5447730D01*
X4478070Y5422093D01*
X4491340Y5399108D01*
X4510108Y5380340D01*
X4533093Y5367070D01*
X4558730Y5360200D01*
X4585270D01*
X4610907Y5367070D01*
X4633892Y5380340D01*
X4652660Y5399108D01*
X4665930Y5422093D01*
X4672800Y5447730D01*
Y5474270D01*
X4665930Y5499907D01*
X4652660Y5522892D01*
X4633892Y5541660D01*
X4610907Y5554930D01*
X4585270Y5561800D01*
D02*
G37*
G36*
X3429000Y6613892D02*
X3407908Y6611115D01*
X3388253Y6602974D01*
X3371375Y6590023D01*
X3358424Y6573145D01*
X3350282Y6553490D01*
X3347505Y6532397D01*
Y6421603D01*
X3350282Y6400510D01*
X3358424Y6380855D01*
X3371375Y6363977D01*
X3388253Y6351026D01*
X3390153Y6350239D01*
Y5969000D01*
X3393111Y5954134D01*
X3401531Y5941531D01*
X3517153Y5825909D01*
Y5554947D01*
X3517093Y5554930D01*
X3494108Y5541660D01*
X3475340Y5522892D01*
X3462070Y5499907D01*
X3455200Y5474270D01*
Y5447730D01*
X3462070Y5422093D01*
X3475340Y5399108D01*
X3494108Y5380340D01*
X3517093Y5367070D01*
X3542730Y5360200D01*
X3569270D01*
X3594907Y5367070D01*
X3617892Y5380340D01*
X3636660Y5399108D01*
X3649930Y5422093D01*
X3656800Y5447730D01*
Y5474270D01*
X3649930Y5499907D01*
X3636660Y5522892D01*
X3617892Y5541660D01*
X3594907Y5554930D01*
X3594847Y5554947D01*
Y5842000D01*
X3591889Y5856866D01*
X3583469Y5869469D01*
X3467847Y5985091D01*
Y6350239D01*
X3469747Y6351026D01*
X3486625Y6363977D01*
X3499576Y6380855D01*
X3507718Y6400510D01*
X3510495Y6421603D01*
Y6532397D01*
X3507718Y6553490D01*
X3499576Y6573145D01*
X3486625Y6590023D01*
X3469747Y6602974D01*
X3450092Y6611115D01*
X3429000Y6613892D01*
D02*
G37*
G36*
X3315270Y5561800D02*
X3288730D01*
X3263093Y5554930D01*
X3240108Y5541660D01*
X3221340Y5522892D01*
X3208070Y5499907D01*
X3201200Y5474270D01*
Y5447730D01*
X3208070Y5422093D01*
X3221340Y5399108D01*
X3240108Y5380340D01*
X3263093Y5367070D01*
X3288730Y5360200D01*
X3315270D01*
X3340907Y5367070D01*
X3363892Y5380340D01*
X3382660Y5399108D01*
X3395930Y5422093D01*
X3402800Y5447730D01*
Y5474270D01*
X3395930Y5499907D01*
X3382660Y5522892D01*
X3363892Y5541660D01*
X3340907Y5554930D01*
X3315270Y5561800D01*
D02*
G37*
G36*
X3061270D02*
X3034730D01*
X3009093Y5554930D01*
X2986108Y5541660D01*
X2967340Y5522892D01*
X2954070Y5499907D01*
X2947200Y5474270D01*
Y5447730D01*
X2954070Y5422093D01*
X2967340Y5399108D01*
X2986108Y5380340D01*
X3009093Y5367070D01*
X3034730Y5360200D01*
X3061270D01*
X3086907Y5367070D01*
X3109892Y5380340D01*
X3128660Y5399108D01*
X3141930Y5422093D01*
X3148800Y5447730D01*
Y5474270D01*
X3141930Y5499907D01*
X3128660Y5522892D01*
X3109892Y5541660D01*
X3086907Y5554930D01*
X3061270Y5561800D01*
D02*
G37*
G36*
X2336400D02*
X2235600D01*
X2185200Y5511400D01*
Y5410600D01*
X2235600Y5360200D01*
X2336400D01*
X2386800Y5410600D01*
Y5511400D01*
X2336400Y5561800D01*
D02*
G37*
G36*
X1792379Y5570220D02*
X1763621D01*
X1735843Y5562777D01*
X1710937Y5548398D01*
X1690602Y5528063D01*
X1676223Y5503157D01*
X1668780Y5475379D01*
Y5446621D01*
X1676223Y5418843D01*
X1690602Y5393937D01*
X1710937Y5373602D01*
X1735843Y5359223D01*
X1763621Y5351780D01*
X1792379D01*
X1820157Y5359223D01*
X1845063Y5373602D01*
X1865398Y5393937D01*
X1879777Y5418843D01*
X1887220Y5446621D01*
Y5475379D01*
X1879777Y5503157D01*
X1865398Y5528063D01*
X1845063Y5548398D01*
X1820157Y5562777D01*
X1792379Y5570220D01*
D02*
G37*
G36*
X3285637Y5291785D02*
X3264363D01*
X3243813Y5286279D01*
X3225389Y5275642D01*
X3210346Y5260599D01*
X3199709Y5242174D01*
X3194202Y5221625D01*
Y5200351D01*
X3199709Y5179801D01*
X3210346Y5161377D01*
X3225389Y5146334D01*
X3243813Y5135697D01*
X3264363Y5130190D01*
X3285637D01*
X3306186Y5135697D01*
X3324611Y5146334D01*
X3339654Y5161377D01*
X3350291Y5179801D01*
X3355797Y5200351D01*
Y5221625D01*
X3350291Y5242174D01*
X3339654Y5260599D01*
X3324611Y5275642D01*
X3306186Y5286279D01*
X3285637Y5291785D01*
D02*
G37*
G36*
X3085637D02*
X3064363D01*
X3043814Y5286279D01*
X3025389Y5275642D01*
X3010346Y5260599D01*
X2999709Y5242174D01*
X2994203Y5221625D01*
Y5200351D01*
X2999709Y5179801D01*
X3010346Y5161377D01*
X3025389Y5146334D01*
X3043814Y5135697D01*
X3064363Y5130190D01*
X3085637D01*
X3106187Y5135697D01*
X3124611Y5146334D01*
X3139654Y5161377D01*
X3150291Y5179801D01*
X3155798Y5200351D01*
Y5221625D01*
X3150291Y5242174D01*
X3139654Y5260599D01*
X3124611Y5275642D01*
X3106187Y5286279D01*
X3085637Y5291785D01*
D02*
G37*
G36*
X6363270Y5307800D02*
X6336730D01*
X6311093Y5300930D01*
X6288108Y5287660D01*
X6269340Y5268892D01*
X6256070Y5245907D01*
X6249200Y5220270D01*
Y5193730D01*
X6256070Y5168093D01*
X6269340Y5145108D01*
X6288108Y5126340D01*
X6311093Y5113070D01*
X6336730Y5106200D01*
X6363270D01*
X6388907Y5113070D01*
X6411892Y5126340D01*
X6430660Y5145108D01*
X6443930Y5168093D01*
X6450800Y5193730D01*
Y5220270D01*
X6443930Y5245907D01*
X6430660Y5268892D01*
X6411892Y5287660D01*
X6388907Y5300930D01*
X6363270Y5307800D01*
D02*
G37*
G36*
X2045270D02*
X2018730D01*
X1993093Y5300930D01*
X1970108Y5287660D01*
X1951340Y5268892D01*
X1938070Y5245907D01*
X1931200Y5220270D01*
Y5193730D01*
X1938070Y5168093D01*
X1951340Y5145108D01*
X1970108Y5126340D01*
X1993093Y5113070D01*
X2018730Y5106200D01*
X2045270D01*
X2070907Y5113070D01*
X2093892Y5126340D01*
X2112660Y5145108D01*
X2125930Y5168093D01*
X2132800Y5193730D01*
Y5220270D01*
X2125930Y5245907D01*
X2112660Y5268892D01*
X2093892Y5287660D01*
X2070907Y5300930D01*
X2045270Y5307800D01*
D02*
G37*
G36*
X3285637Y5091786D02*
X3264363D01*
X3243813Y5086279D01*
X3225389Y5075642D01*
X3210346Y5060599D01*
X3199709Y5042175D01*
X3194202Y5021625D01*
Y5000351D01*
X3199709Y4979802D01*
X3210346Y4961377D01*
X3225389Y4946334D01*
X3243813Y4935697D01*
X3264363Y4930191D01*
X3285637D01*
X3306186Y4935697D01*
X3324611Y4946334D01*
X3339654Y4961377D01*
X3350291Y4979802D01*
X3355797Y5000351D01*
Y5021625D01*
X3350291Y5042175D01*
X3339654Y5060599D01*
X3324611Y5075642D01*
X3306186Y5086279D01*
X3285637Y5091786D01*
D02*
G37*
G36*
X3085637D02*
X3064363D01*
X3043814Y5086279D01*
X3025389Y5075642D01*
X3010346Y5060599D01*
X2999709Y5042175D01*
X2994203Y5021625D01*
Y5000351D01*
X2999709Y4979802D01*
X3010346Y4961377D01*
X3025389Y4946334D01*
X3043814Y4935697D01*
X3064363Y4930191D01*
X3085637D01*
X3106187Y4935697D01*
X3124611Y4946334D01*
X3139654Y4961377D01*
X3150291Y4979802D01*
X3155798Y5000351D01*
Y5021625D01*
X3150291Y5042175D01*
X3139654Y5060599D01*
X3124611Y5075642D01*
X3106187Y5086279D01*
X3085637Y5091786D01*
D02*
G37*
G36*
X6363270Y5053800D02*
X6336730D01*
X6311093Y5046930D01*
X6288108Y5033660D01*
X6269340Y5014892D01*
X6256070Y4991907D01*
X6249200Y4966270D01*
Y4939730D01*
X6256070Y4914093D01*
X6269340Y4891108D01*
X6288108Y4872340D01*
X6311093Y4859070D01*
X6336730Y4852200D01*
X6363270D01*
X6388907Y4859070D01*
X6411892Y4872340D01*
X6430660Y4891108D01*
X6443930Y4914093D01*
X6450800Y4939730D01*
Y4966270D01*
X6443930Y4991907D01*
X6430660Y5014892D01*
X6411892Y5033660D01*
X6388907Y5046930D01*
X6363270Y5053800D01*
D02*
G37*
G36*
X3285637Y4891786D02*
X3264363D01*
X3243813Y4886280D01*
X3225389Y4875643D01*
X3210346Y4860599D01*
X3199709Y4842175D01*
X3194202Y4821626D01*
Y4800351D01*
X3199709Y4779802D01*
X3210346Y4761378D01*
X3225389Y4746335D01*
X3243813Y4735697D01*
X3264363Y4730191D01*
X3285637D01*
X3306186Y4735697D01*
X3324611Y4746335D01*
X3339654Y4761378D01*
X3350291Y4779802D01*
X3355797Y4800351D01*
Y4821626D01*
X3350291Y4842175D01*
X3339654Y4860599D01*
X3324611Y4875643D01*
X3306186Y4886280D01*
X3285637Y4891786D01*
D02*
G37*
G36*
X3085637D02*
X3064363D01*
X3043814Y4886280D01*
X3025389Y4875643D01*
X3010346Y4860599D01*
X2999709Y4842175D01*
X2994203Y4821626D01*
Y4800351D01*
X2999709Y4779802D01*
X3010346Y4761378D01*
X3025389Y4746335D01*
X3043814Y4735697D01*
X3064363Y4730191D01*
X3085637D01*
X3106187Y4735697D01*
X3124611Y4746335D01*
X3139654Y4761378D01*
X3150291Y4779802D01*
X3155798Y4800351D01*
Y4821626D01*
X3150291Y4842175D01*
X3139654Y4860599D01*
X3124611Y4875643D01*
X3106187Y4886280D01*
X3085637Y4891786D01*
D02*
G37*
G36*
X1814283Y4899800D02*
X1787742D01*
X1762105Y4892930D01*
X1739120Y4879660D01*
X1720352Y4860892D01*
X1707082Y4837907D01*
X1700212Y4812270D01*
Y4785729D01*
X1707082Y4760093D01*
X1720352Y4737107D01*
X1739120Y4718340D01*
X1760911Y4705759D01*
X1761958Y4699000D01*
X1760911Y4692241D01*
X1739120Y4679660D01*
X1720352Y4660893D01*
X1707082Y4637907D01*
X1700212Y4612271D01*
Y4585730D01*
X1707082Y4560093D01*
X1720352Y4537108D01*
X1739120Y4518340D01*
X1762105Y4505070D01*
X1787742Y4498200D01*
X1814283D01*
X1839920Y4505070D01*
X1862905Y4518340D01*
X1881672Y4537108D01*
X1894943Y4560093D01*
X1901812Y4585730D01*
Y4612271D01*
X1894943Y4637907D01*
X1881672Y4660893D01*
X1862905Y4679660D01*
X1841114Y4692241D01*
X1840067Y4699000D01*
X1841114Y4705759D01*
X1862905Y4718340D01*
X1881672Y4737107D01*
X1894943Y4760093D01*
X1901812Y4785729D01*
Y4812270D01*
X1894943Y4837907D01*
X1881672Y4860892D01*
X1862905Y4879660D01*
X1839920Y4892930D01*
X1814283Y4899800D01*
D02*
G37*
G36*
X6400400Y4545800D02*
X6299600D01*
X6249200Y4495400D01*
Y4394600D01*
X6299600Y4344200D01*
X6400400D01*
X6450800Y4394600D01*
Y4495400D01*
X6400400Y4545800D01*
D02*
G37*
G36*
X2934270Y4337799D02*
X2907730D01*
X2882093Y4330930D01*
X2859108Y4317659D01*
X2840340Y4298892D01*
X2827070Y4275907D01*
X2820200Y4250270D01*
Y4223729D01*
X2827070Y4198092D01*
X2840340Y4175107D01*
X2859108Y4156339D01*
X2882093Y4143069D01*
X2907730Y4136200D01*
X2934270D01*
X2959907Y4143069D01*
X2982892Y4156339D01*
X3001660Y4175107D01*
X3014930Y4198092D01*
X3021800Y4223729D01*
Y4250270D01*
X3014930Y4275907D01*
X3001660Y4298892D01*
X2982892Y4317659D01*
X2959907Y4330930D01*
X2934270Y4337799D01*
D02*
G37*
G36*
X2680270D02*
X2653730D01*
X2628093Y4330930D01*
X2605108Y4317659D01*
X2586340Y4298892D01*
X2573070Y4275907D01*
X2566200Y4250270D01*
Y4223729D01*
X2573070Y4198092D01*
X2586340Y4175107D01*
X2605108Y4156339D01*
X2628093Y4143069D01*
X2653730Y4136200D01*
X2680270D01*
X2705907Y4143069D01*
X2728892Y4156339D01*
X2747660Y4175107D01*
X2760930Y4198092D01*
X2767800Y4223729D01*
Y4250270D01*
X2760930Y4275907D01*
X2747660Y4298892D01*
X2728892Y4317659D01*
X2705907Y4330930D01*
X2680270Y4337799D01*
D02*
G37*
G36*
X2426270D02*
X2399730D01*
X2374093Y4330930D01*
X2351108Y4317659D01*
X2332340Y4298892D01*
X2319070Y4275907D01*
X2312200Y4250270D01*
Y4223729D01*
X2319070Y4198092D01*
X2332340Y4175107D01*
X2351108Y4156339D01*
X2374093Y4143069D01*
X2399730Y4136200D01*
X2426270D01*
X2451907Y4143069D01*
X2474892Y4156339D01*
X2493660Y4175107D01*
X2506930Y4198092D01*
X2513800Y4223729D01*
Y4250270D01*
X2506930Y4275907D01*
X2493660Y4298892D01*
X2474892Y4317659D01*
X2451907Y4330930D01*
X2426270Y4337799D01*
D02*
G37*
G36*
X6363270Y4291800D02*
X6336730D01*
X6311093Y4284930D01*
X6288108Y4271660D01*
X6269340Y4252892D01*
X6256070Y4229907D01*
X6249200Y4204270D01*
Y4177730D01*
X6256070Y4152093D01*
X6269340Y4129108D01*
X6288108Y4110340D01*
X6311093Y4097070D01*
X6336730Y4090200D01*
X6363270D01*
X6388907Y4097070D01*
X6411892Y4110340D01*
X6430660Y4129108D01*
X6443930Y4152093D01*
X6450800Y4177730D01*
Y4204270D01*
X6443930Y4229907D01*
X6430660Y4252892D01*
X6411892Y4271660D01*
X6388907Y4284930D01*
X6363270Y4291800D01*
D02*
G37*
G36*
X7633270Y4037800D02*
X7606730D01*
X7581093Y4030930D01*
X7558108Y4017660D01*
X7539340Y3998892D01*
X7526070Y3975907D01*
X7519200Y3950270D01*
Y3923730D01*
X7526070Y3898093D01*
X7539340Y3875108D01*
X7558108Y3856340D01*
X7581093Y3843070D01*
X7606730Y3836200D01*
X7633270D01*
X7658907Y3843070D01*
X7681892Y3856340D01*
X7700660Y3875108D01*
X7713930Y3898093D01*
X7720800Y3923730D01*
Y3950270D01*
X7713930Y3975907D01*
X7700660Y3998892D01*
X7681892Y4017660D01*
X7658907Y4030930D01*
X7633270Y4037800D01*
D02*
G37*
G36*
X7379270D02*
X7352730D01*
X7327093Y4030930D01*
X7304108Y4017660D01*
X7285340Y3998892D01*
X7272070Y3975907D01*
X7265200Y3950270D01*
Y3923730D01*
X7272070Y3898093D01*
X7285340Y3875108D01*
X7304108Y3856340D01*
X7327093Y3843070D01*
X7352730Y3836200D01*
X7379270D01*
X7404907Y3843070D01*
X7427892Y3856340D01*
X7446660Y3875108D01*
X7459930Y3898093D01*
X7466800Y3923730D01*
Y3950270D01*
X7459930Y3975907D01*
X7446660Y3998892D01*
X7427892Y4017660D01*
X7404907Y4030930D01*
X7379270Y4037800D01*
D02*
G37*
G36*
X7125270D02*
X7098730D01*
X7073093Y4030930D01*
X7050108Y4017660D01*
X7031340Y3998892D01*
X7018070Y3975907D01*
X7011200Y3950270D01*
Y3923730D01*
X7018070Y3898093D01*
X7031340Y3875108D01*
X7050108Y3856340D01*
X7073093Y3843070D01*
X7098730Y3836200D01*
X7125270D01*
X7150907Y3843070D01*
X7173892Y3856340D01*
X7192660Y3875108D01*
X7205930Y3898093D01*
X7212800Y3923730D01*
Y3950270D01*
X7205930Y3975907D01*
X7192660Y3998892D01*
X7173892Y4017660D01*
X7150907Y4030930D01*
X7125270Y4037800D01*
D02*
G37*
G36*
X6871270D02*
X6844730D01*
X6819093Y4030930D01*
X6796108Y4017660D01*
X6777340Y3998892D01*
X6764070Y3975907D01*
X6757200Y3950270D01*
Y3923730D01*
X6764070Y3898093D01*
X6777340Y3875108D01*
X6796108Y3856340D01*
X6819093Y3843070D01*
X6844730Y3836200D01*
X6871270D01*
X6896907Y3843070D01*
X6919892Y3856340D01*
X6938660Y3875108D01*
X6951930Y3898093D01*
X6958800Y3923730D01*
Y3950270D01*
X6951930Y3975907D01*
X6938660Y3998892D01*
X6919892Y4017660D01*
X6896907Y4030930D01*
X6871270Y4037800D01*
D02*
G37*
G36*
X6617270D02*
X6590730D01*
X6565093Y4030930D01*
X6542108Y4017660D01*
X6523340Y3998892D01*
X6510070Y3975907D01*
X6503200Y3950270D01*
Y3923730D01*
X6510070Y3898093D01*
X6523340Y3875108D01*
X6542108Y3856340D01*
X6565093Y3843070D01*
X6590730Y3836200D01*
X6617270D01*
X6642907Y3843070D01*
X6665892Y3856340D01*
X6684660Y3875108D01*
X6697930Y3898093D01*
X6704800Y3923730D01*
Y3950270D01*
X6697930Y3975907D01*
X6684660Y3998892D01*
X6665892Y4017660D01*
X6642907Y4030930D01*
X6617270Y4037800D01*
D02*
G37*
G36*
X6363270D02*
X6336730D01*
X6311093Y4030930D01*
X6288108Y4017660D01*
X6269340Y3998892D01*
X6256070Y3975907D01*
X6249200Y3950270D01*
Y3923730D01*
X6256070Y3898093D01*
X6269340Y3875108D01*
X6288108Y3856340D01*
X6311093Y3843070D01*
X6336730Y3836200D01*
X6363270D01*
X6388907Y3843070D01*
X6411892Y3856340D01*
X6430660Y3875108D01*
X6443930Y3898093D01*
X6450800Y3923730D01*
Y3950270D01*
X6443930Y3975907D01*
X6430660Y3998892D01*
X6411892Y4017660D01*
X6388907Y4030930D01*
X6363270Y4037800D01*
D02*
G37*
G36*
X6109270D02*
X6082730D01*
X6057093Y4030930D01*
X6034108Y4017660D01*
X6015340Y3998892D01*
X6002070Y3975907D01*
X5995200Y3950270D01*
Y3923730D01*
X6002070Y3898093D01*
X6015340Y3875108D01*
X6034108Y3856340D01*
X6057093Y3843070D01*
X6082730Y3836200D01*
X6109270D01*
X6134907Y3843070D01*
X6157892Y3856340D01*
X6176660Y3875108D01*
X6189930Y3898093D01*
X6196800Y3923730D01*
Y3950270D01*
X6189930Y3975907D01*
X6176660Y3998892D01*
X6157892Y4017660D01*
X6134907Y4030930D01*
X6109270Y4037800D01*
D02*
G37*
G36*
X5384400D02*
X5283600D01*
X5233200Y3987400D01*
Y3886600D01*
X5283600Y3836200D01*
X5384400D01*
X5434800Y3886600D01*
Y3987400D01*
X5384400Y4037800D01*
D02*
G37*
G36*
X2553270D02*
X2526730D01*
X2501093Y4030930D01*
X2478108Y4017660D01*
X2459340Y3998892D01*
X2446070Y3975907D01*
X2439200Y3950270D01*
Y3923730D01*
X2446070Y3898093D01*
X2446101Y3898038D01*
X1623531Y3075469D01*
X1615111Y3062866D01*
X1612153Y3048000D01*
Y2776220D01*
X1596390D01*
X1541780Y2721610D01*
Y2612390D01*
X1596390Y2557780D01*
X1705610D01*
X1760220Y2612390D01*
Y2721610D01*
X1705610Y2776220D01*
X1689847D01*
Y3031909D01*
X2501038Y3843101D01*
X2501093Y3843070D01*
X2526730Y3836200D01*
X2553270D01*
X2578907Y3843070D01*
X2601892Y3856340D01*
X2620660Y3875108D01*
X2633930Y3898093D01*
X2640800Y3923730D01*
Y3950270D01*
X2633930Y3975907D01*
X2620660Y3998892D01*
X2601892Y4017660D01*
X2578907Y4030930D01*
X2553270Y4037800D01*
D02*
G37*
G36*
X2299270D02*
X2272730D01*
X2247093Y4030930D01*
X2224108Y4017660D01*
X2205340Y3998892D01*
X2192070Y3975907D01*
X2185200Y3950270D01*
Y3923730D01*
X2192070Y3898093D01*
X2192101Y3898038D01*
X1634909Y3340847D01*
X1524000D01*
X1509134Y3337889D01*
X1496531Y3329469D01*
X1197283Y3030220D01*
X1088390D01*
X1033780Y2975610D01*
Y2866390D01*
X1088390Y2811780D01*
X1197610D01*
X1252220Y2866390D01*
Y2975283D01*
X1540091Y3263153D01*
X1651000D01*
X1665866Y3266111D01*
X1678469Y3274531D01*
X2247038Y3843101D01*
X2247093Y3843070D01*
X2272730Y3836200D01*
X2299270D01*
X2324907Y3843070D01*
X2347892Y3856340D01*
X2366660Y3875108D01*
X2379930Y3898093D01*
X2386800Y3923730D01*
Y3950270D01*
X2379930Y3975907D01*
X2366660Y3998892D01*
X2347892Y4017660D01*
X2324907Y4030930D01*
X2299270Y4037800D01*
D02*
G37*
G36*
X2045270D02*
X2018730D01*
X1993093Y4030930D01*
X1970108Y4017660D01*
X1951340Y3998892D01*
X1938070Y3975907D01*
X1931200Y3950270D01*
Y3923730D01*
X1938070Y3898093D01*
X1938101Y3898038D01*
X1634909Y3594847D01*
X1016000D01*
X1001134Y3591889D01*
X988531Y3583469D01*
X689283Y3284220D01*
X580390D01*
X525780Y3229610D01*
Y3120390D01*
X580390Y3065780D01*
X689610D01*
X744220Y3120390D01*
Y3229283D01*
X1032091Y3517153D01*
X1651000D01*
X1665866Y3520111D01*
X1678469Y3528531D01*
X1993038Y3843101D01*
X1993093Y3843070D01*
X2018730Y3836200D01*
X2045270D01*
X2070907Y3843070D01*
X2093892Y3856340D01*
X2112660Y3875108D01*
X2125930Y3898093D01*
X2132800Y3923730D01*
Y3950270D01*
X2125930Y3975907D01*
X2112660Y3998892D01*
X2093892Y4017660D01*
X2070907Y4030930D01*
X2045270Y4037800D01*
D02*
G37*
G36*
X5855270D02*
X5828730D01*
X5803093Y4030930D01*
X5780108Y4017660D01*
X5761340Y3998892D01*
X5748070Y3975907D01*
X5741200Y3950270D01*
Y3923730D01*
X5748070Y3898093D01*
X5761340Y3875108D01*
X5780108Y3856340D01*
X5803093Y3843070D01*
X5828730Y3836200D01*
X5855270D01*
X5880907Y3843070D01*
X5880962Y3843101D01*
X6068531Y3655531D01*
X6081134Y3647111D01*
X6096000Y3644153D01*
X7349909D01*
X7592531Y3401531D01*
X7605134Y3393111D01*
X7620000Y3390153D01*
X7637780D01*
Y3374390D01*
X7692390Y3319780D01*
X7801610D01*
X7856220Y3374390D01*
Y3483610D01*
X7801610Y3538220D01*
X7692390D01*
X7637780Y3483610D01*
X7625080Y3478857D01*
X7393469Y3710469D01*
X7380866Y3718889D01*
X7366000Y3721847D01*
X6112091D01*
X5935899Y3898038D01*
X5935930Y3898093D01*
X5942800Y3923730D01*
Y3950270D01*
X5935930Y3975907D01*
X5922660Y3998892D01*
X5903892Y4017660D01*
X5880907Y4030930D01*
X5855270Y4037800D01*
D02*
G37*
G36*
X5601270D02*
X5574730D01*
X5549093Y4030930D01*
X5526108Y4017660D01*
X5507340Y3998892D01*
X5494070Y3975907D01*
X5487200Y3950270D01*
Y3923730D01*
X5494070Y3898093D01*
X5507340Y3875108D01*
X5526108Y3856340D01*
X5549093Y3843070D01*
X5574730Y3836200D01*
X5601270D01*
X5626907Y3843070D01*
X5626962Y3843101D01*
X6068531Y3401531D01*
X6081134Y3393111D01*
X6096000Y3390153D01*
X6968909D01*
X7129780Y3229283D01*
Y3120390D01*
X7184390Y3065780D01*
X7293610D01*
X7348220Y3120390D01*
Y3229610D01*
X7293610Y3284220D01*
X7184717D01*
X7012469Y3456469D01*
X6999866Y3464889D01*
X6985000Y3467847D01*
X6112091D01*
X5681899Y3898038D01*
X5681930Y3898093D01*
X5688800Y3923730D01*
Y3950270D01*
X5681930Y3975907D01*
X5668660Y3998892D01*
X5649892Y4017660D01*
X5626907Y4030930D01*
X5601270Y4037800D01*
D02*
G37*
G36*
X7801610Y3284220D02*
X7692390D01*
X7637780Y3229610D01*
Y3120390D01*
X7692390Y3065780D01*
X7801283D01*
X8036560Y2830503D01*
Y2748280D01*
X8082280Y2702560D01*
X8173720D01*
X8219440Y2748280D01*
Y2839720D01*
X8173720Y2885440D01*
X8091497D01*
X7856220Y3120717D01*
Y3229610D01*
X7801610Y3284220D01*
D02*
G37*
G36*
X689610Y3030220D02*
X580390D01*
X525780Y2975610D01*
Y2866717D01*
X417503Y2758440D01*
X335280D01*
X289560Y2712720D01*
Y2621280D01*
X335280Y2575560D01*
X426720D01*
X472440Y2621280D01*
Y2703503D01*
X580717Y2811780D01*
X689610D01*
X744220Y2866390D01*
Y2975610D01*
X689610Y3030220D01*
D02*
G37*
G36*
X5093270Y4037800D02*
X5066730D01*
X5041093Y4030930D01*
X5018108Y4017660D01*
X4999340Y3998892D01*
X4986070Y3975907D01*
X4979200Y3950270D01*
Y3923730D01*
X4986070Y3898093D01*
X4999340Y3875108D01*
X5018108Y3856340D01*
X5041093Y3843070D01*
X5041153Y3843053D01*
Y3556000D01*
X5044111Y3541134D01*
X5052531Y3528531D01*
X5941531Y2639531D01*
X5954134Y2631111D01*
X5969000Y2628153D01*
X6621780D01*
Y2612390D01*
X6676390Y2557780D01*
X6785610D01*
X6840220Y2612390D01*
Y2721610D01*
X6785610Y2776220D01*
X6676390D01*
X6621780Y2721610D01*
Y2705847D01*
X5985091D01*
X5118847Y3572091D01*
Y3843053D01*
X5118907Y3843070D01*
X5141892Y3856340D01*
X5160660Y3875108D01*
X5173930Y3898093D01*
X5180800Y3923730D01*
Y3950270D01*
X5173930Y3975907D01*
X5160660Y3998892D01*
X5141892Y4017660D01*
X5118907Y4030930D01*
X5093270Y4037800D01*
D02*
G37*
G36*
X7293610Y3030220D02*
X7184390D01*
X7129780Y2975610D01*
Y2866390D01*
X7184390Y2811780D01*
X7293283D01*
X7528560Y2576503D01*
Y2494280D01*
X7574280Y2448560D01*
X7665720D01*
X7711440Y2494280D01*
Y2585720D01*
X7665720Y2631440D01*
X7583497D01*
X7348220Y2866717D01*
Y2975610D01*
X7293610Y3030220D01*
D02*
G37*
G36*
X3569270Y4037800D02*
X3542730D01*
X3517093Y4030930D01*
X3494108Y4017660D01*
X3475340Y3998892D01*
X3462070Y3975907D01*
X3455200Y3950270D01*
Y3923730D01*
X3462070Y3898093D01*
X3475340Y3875108D01*
X3494108Y3856340D01*
X3517093Y3843070D01*
X3517153Y3843053D01*
Y3302000D01*
X3520111Y3287134D01*
X3528531Y3274531D01*
X4208780Y2594283D01*
Y2485390D01*
X4263390Y2430780D01*
X4372610D01*
X4427220Y2485390D01*
Y2594610D01*
X4372610Y2649220D01*
X4263717D01*
X3594847Y3318091D01*
Y3843053D01*
X3594907Y3843070D01*
X3617892Y3856340D01*
X3636660Y3875108D01*
X3649930Y3898093D01*
X3656800Y3923730D01*
Y3950270D01*
X3649930Y3975907D01*
X3636660Y3998892D01*
X3617892Y4017660D01*
X3594907Y4030930D01*
X3569270Y4037800D01*
D02*
G37*
G36*
X1197610Y2776220D02*
X1088390D01*
X1033780Y2721610D01*
Y2612717D01*
X798503Y2377440D01*
X716280D01*
X670560Y2331720D01*
Y2240280D01*
X716280Y2194560D01*
X807720D01*
X853440Y2240280D01*
Y2322503D01*
X1088717Y2557780D01*
X1197610D01*
X1252220Y2612390D01*
Y2721610D01*
X1197610Y2776220D01*
D02*
G37*
G36*
X6785610Y2522220D02*
X6676390D01*
X6621780Y2467610D01*
Y2358390D01*
X6676390Y2303780D01*
X6785283D01*
X7020560Y2068503D01*
Y1986280D01*
X7066280Y1940560D01*
X7157720D01*
X7203440Y1986280D01*
Y2077720D01*
X7157720Y2123440D01*
X7075497D01*
X6840220Y2358717D01*
Y2467610D01*
X6785610Y2522220D01*
D02*
G37*
G36*
X4372610Y2395220D02*
X4263390D01*
X4208780Y2340610D01*
Y2231717D01*
X4100503Y2123440D01*
X4018280D01*
X3972560Y2077720D01*
Y1986280D01*
X4018280Y1940560D01*
X4109720D01*
X4155440Y1986280D01*
Y2068503D01*
X4263717Y2176780D01*
X4372610D01*
X4427220Y2231390D01*
Y2340610D01*
X4372610Y2395220D01*
D02*
G37*
G36*
X3823270Y4037800D02*
X3796730D01*
X3771093Y4030930D01*
X3748108Y4017660D01*
X3729340Y3998892D01*
X3716070Y3975907D01*
X3709200Y3950270D01*
Y3923730D01*
X3716070Y3898093D01*
X3729340Y3875108D01*
X3748108Y3856340D01*
X3771093Y3843070D01*
X3771153Y3843053D01*
Y3429000D01*
X3774111Y3414134D01*
X3782531Y3401531D01*
X4533153Y2650909D01*
Y2141220D01*
X4517390D01*
X4462780Y2086610D01*
Y1977390D01*
X4517390Y1922780D01*
X4626610D01*
X4681220Y1977390D01*
Y2086610D01*
X4626610Y2141220D01*
X4610847D01*
Y2667000D01*
X4607889Y2681866D01*
X4599469Y2694469D01*
X3848847Y3445091D01*
Y3843053D01*
X3848907Y3843070D01*
X3871892Y3856340D01*
X3890660Y3875108D01*
X3903930Y3898093D01*
X3910800Y3923730D01*
Y3950270D01*
X3903930Y3975907D01*
X3890660Y3998892D01*
X3871892Y4017660D01*
X3848907Y4030930D01*
X3823270Y4037800D01*
D02*
G37*
G36*
X2807270D02*
X2780730D01*
X2755093Y4030930D01*
X2732108Y4017660D01*
X2713340Y3998892D01*
X2700070Y3975907D01*
X2693200Y3950270D01*
Y3923730D01*
X2700070Y3898093D01*
X2713340Y3875108D01*
X2732108Y3856340D01*
X2755093Y3843070D01*
X2755153Y3843053D01*
Y3318091D01*
X2512531Y3075469D01*
X2504111Y3062866D01*
X2501153Y3048000D01*
Y2141220D01*
X2485390D01*
X2430780Y2086610D01*
Y1977390D01*
X2485390Y1922780D01*
X2594610D01*
X2649220Y1977390D01*
Y2086610D01*
X2594610Y2141220D01*
X2578847D01*
Y3031909D01*
X2821469Y3274531D01*
X2829889Y3287134D01*
X2832847Y3302000D01*
Y3843053D01*
X2832907Y3843070D01*
X2855892Y3856340D01*
X2874660Y3875108D01*
X2887930Y3898093D01*
X2894800Y3923730D01*
Y3950270D01*
X2887930Y3975907D01*
X2874660Y3998892D01*
X2855892Y4017660D01*
X2832907Y4030930D01*
X2807270Y4037800D01*
D02*
G37*
G36*
X1705610Y2522220D02*
X1596390D01*
X1541780Y2467610D01*
Y2358717D01*
X1179503Y1996440D01*
X1097280D01*
X1051560Y1950720D01*
Y1859280D01*
X1097280Y1813560D01*
X1188720D01*
X1234440Y1859280D01*
Y1941503D01*
X1596717Y2303780D01*
X1705610D01*
X1760220Y2358390D01*
Y2467610D01*
X1705610Y2522220D01*
D02*
G37*
G36*
X4585270Y4037800D02*
X4558730D01*
X4533093Y4030930D01*
X4510108Y4017660D01*
X4491340Y3998892D01*
X4478070Y3975907D01*
X4471200Y3950270D01*
Y3923730D01*
X4478070Y3898093D01*
X4491340Y3875108D01*
X4510108Y3856340D01*
X4533093Y3843070D01*
X4533153Y3843053D01*
Y3556000D01*
X4536111Y3541134D01*
X4544531Y3528531D01*
X6057153Y2015909D01*
Y1887220D01*
X6041390D01*
X5986780Y1832610D01*
Y1723390D01*
X6041390Y1668780D01*
X6150610D01*
X6205220Y1723390D01*
Y1832610D01*
X6150610Y1887220D01*
X6134847D01*
Y2032000D01*
X6131889Y2046866D01*
X6123469Y2059469D01*
X4610847Y3572091D01*
Y3843053D01*
X4610907Y3843070D01*
X4633892Y3856340D01*
X4652660Y3875108D01*
X4665930Y3898093D01*
X4672800Y3923730D01*
Y3950270D01*
X4665930Y3975907D01*
X4652660Y3998892D01*
X4633892Y4017660D01*
X4610907Y4030930D01*
X4585270Y4037800D01*
D02*
G37*
G36*
X4839270D02*
X4812730D01*
X4787093Y4030930D01*
X4764108Y4017660D01*
X4745340Y3998892D01*
X4732070Y3975907D01*
X4725200Y3950270D01*
Y3923730D01*
X4732070Y3898093D01*
X4745340Y3875108D01*
X4764108Y3856340D01*
X4787093Y3843070D01*
X4787153Y3843053D01*
Y3556000D01*
X4790111Y3541134D01*
X4798531Y3528531D01*
X6554143Y1772920D01*
X6549390Y1760220D01*
X6494780Y1705610D01*
Y1596390D01*
X6549390Y1541780D01*
X6658610D01*
X6713220Y1596390D01*
Y1705610D01*
X6658610Y1760220D01*
X6642847D01*
Y1778000D01*
X6639889Y1792866D01*
X6631469Y1805469D01*
X4864847Y3572091D01*
Y3843053D01*
X4864907Y3843070D01*
X4887892Y3856340D01*
X4906660Y3875108D01*
X4919930Y3898093D01*
X4926800Y3923730D01*
Y3950270D01*
X4919930Y3975907D01*
X4906660Y3998892D01*
X4887892Y4017660D01*
X4864907Y4030930D01*
X4839270Y4037800D01*
D02*
G37*
G36*
X4331270D02*
X4304730D01*
X4279093Y4030930D01*
X4256108Y4017660D01*
X4237340Y3998892D01*
X4224070Y3975907D01*
X4217200Y3950270D01*
Y3923730D01*
X4224070Y3898093D01*
X4237340Y3875108D01*
X4256108Y3856340D01*
X4279093Y3843070D01*
X4279153Y3843053D01*
Y3556000D01*
X4282111Y3541134D01*
X4290531Y3528531D01*
X5422153Y2396909D01*
Y1760220D01*
X5406390D01*
X5351780Y1705610D01*
Y1596390D01*
X5406390Y1541780D01*
X5515610D01*
X5570220Y1596390D01*
Y1705610D01*
X5515610Y1760220D01*
X5499847D01*
Y2413000D01*
X5496889Y2427866D01*
X5488469Y2440469D01*
X4356847Y3572091D01*
Y3843053D01*
X4356907Y3843070D01*
X4379892Y3856340D01*
X4398660Y3875108D01*
X4411930Y3898093D01*
X4418800Y3923730D01*
Y3950270D01*
X4411930Y3975907D01*
X4398660Y3998892D01*
X4379892Y4017660D01*
X4356907Y4030930D01*
X4331270Y4037800D01*
D02*
G37*
G36*
X4626610Y1887220D02*
X4517390D01*
X4462780Y1832610D01*
Y1723717D01*
X4354503Y1615440D01*
X4272280D01*
X4226560Y1569720D01*
Y1478280D01*
X4272280Y1432560D01*
X4363720D01*
X4409440Y1478280D01*
Y1560503D01*
X4517717Y1668780D01*
X4626610D01*
X4681220Y1723390D01*
Y1832610D01*
X4626610Y1887220D01*
D02*
G37*
G36*
X2594610D02*
X2485390D01*
X2430780Y1832610D01*
Y1723717D01*
X2322503Y1615440D01*
X2240280D01*
X2194560Y1569720D01*
Y1478280D01*
X2240280Y1432560D01*
X2331720D01*
X2377440Y1478280D01*
Y1560503D01*
X2485717Y1668780D01*
X2594610D01*
X2649220Y1723390D01*
Y1832610D01*
X2594610Y1887220D01*
D02*
G37*
G36*
X4077270Y4037800D02*
X4050730D01*
X4025093Y4030930D01*
X4002108Y4017660D01*
X3983340Y3998892D01*
X3970070Y3975907D01*
X3963200Y3950270D01*
Y3923730D01*
X3970070Y3898093D01*
X3983340Y3875108D01*
X4002108Y3856340D01*
X4025093Y3843070D01*
X4025153Y3843053D01*
Y3556000D01*
X4028111Y3541134D01*
X4036531Y3528531D01*
X4787153Y2777909D01*
Y1633220D01*
X4771390D01*
X4716780Y1578610D01*
Y1469390D01*
X4771390Y1414780D01*
X4880610D01*
X4935220Y1469390D01*
Y1578610D01*
X4880610Y1633220D01*
X4864847D01*
Y2794000D01*
X4861889Y2808866D01*
X4853469Y2821469D01*
X4102847Y3572091D01*
Y3843053D01*
X4102907Y3843070D01*
X4125892Y3856340D01*
X4144660Y3875108D01*
X4157930Y3898093D01*
X4164800Y3923730D01*
Y3950270D01*
X4157930Y3975907D01*
X4144660Y3998892D01*
X4125892Y4017660D01*
X4102907Y4030930D01*
X4077270Y4037800D01*
D02*
G37*
G36*
X3061270D02*
X3034730D01*
X3009093Y4030930D01*
X2986108Y4017660D01*
X2967340Y3998892D01*
X2954070Y3975907D01*
X2947200Y3950270D01*
Y3923730D01*
X2954070Y3898093D01*
X2967340Y3875108D01*
X2986108Y3856340D01*
X3009093Y3843070D01*
X3009153Y3843053D01*
Y2429091D01*
X2893531Y2313469D01*
X2885111Y2300866D01*
X2882153Y2286000D01*
Y1633220D01*
X2866390D01*
X2811780Y1578610D01*
Y1469390D01*
X2866390Y1414780D01*
X2975610D01*
X3030220Y1469390D01*
Y1578610D01*
X2975610Y1633220D01*
X2959847D01*
Y2269909D01*
X3075469Y2385531D01*
X3083889Y2398134D01*
X3086847Y2413000D01*
Y3843053D01*
X3086907Y3843070D01*
X3109892Y3856340D01*
X3128660Y3875108D01*
X3141930Y3898093D01*
X3148800Y3923730D01*
Y3950270D01*
X3141930Y3975907D01*
X3128660Y3998892D01*
X3109892Y4017660D01*
X3086907Y4030930D01*
X3061270Y4037800D01*
D02*
G37*
G36*
X6150610Y1633220D02*
X6041390D01*
X5986780Y1578610D01*
Y1469717D01*
X5878503Y1361440D01*
X5796280D01*
X5750560Y1315720D01*
Y1224280D01*
X5796280Y1178560D01*
X5887720D01*
X5933440Y1224280D01*
Y1306503D01*
X6041717Y1414780D01*
X6150610D01*
X6205220Y1469390D01*
Y1578610D01*
X6150610Y1633220D01*
D02*
G37*
G36*
X6658610Y1506220D02*
X6549390D01*
X6494780Y1451610D01*
Y1342717D01*
X6386503Y1234440D01*
X6304280D01*
X6258560Y1188720D01*
Y1097280D01*
X6304280Y1051560D01*
X6395720D01*
X6441440Y1097280D01*
Y1179503D01*
X6549717Y1287780D01*
X6658610D01*
X6713220Y1342390D01*
Y1451610D01*
X6658610Y1506220D01*
D02*
G37*
G36*
X5515610D02*
X5406390D01*
X5351780Y1451610D01*
Y1342717D01*
X5243503Y1234440D01*
X5161280D01*
X5115560Y1188720D01*
Y1097280D01*
X5161280Y1051560D01*
X5252720D01*
X5298440Y1097280D01*
Y1179503D01*
X5406717Y1287780D01*
X5515610D01*
X5570220Y1342390D01*
Y1451610D01*
X5515610Y1506220D01*
D02*
G37*
G36*
X4880610Y1379220D02*
X4771390D01*
X4716780Y1324610D01*
Y1215717D01*
X4608503Y1107440D01*
X4526280D01*
X4480560Y1061720D01*
Y970280D01*
X4526280Y924560D01*
X4617720D01*
X4663440Y970280D01*
Y1052503D01*
X4771717Y1160780D01*
X4880610D01*
X4935220Y1215390D01*
Y1324610D01*
X4880610Y1379220D01*
D02*
G37*
G36*
X2975610D02*
X2866390D01*
X2811780Y1324610D01*
Y1215717D01*
X2703503Y1107440D01*
X2621280D01*
X2575560Y1061720D01*
Y970280D01*
X2621280Y924560D01*
X2712720D01*
X2758440Y970280D01*
Y1052503D01*
X2866717Y1160780D01*
X2975610D01*
X3030220Y1215390D01*
Y1324610D01*
X2975610Y1379220D01*
D02*
G37*
G36*
X3315270Y4037800D02*
X3288730D01*
X3263093Y4030930D01*
X3240108Y4017660D01*
X3221340Y3998892D01*
X3208070Y3975907D01*
X3201200Y3950270D01*
Y3923730D01*
X3208070Y3898093D01*
X3221340Y3875108D01*
X3240108Y3856340D01*
X3263093Y3843070D01*
X3263153Y3843053D01*
Y1125220D01*
X3247390D01*
X3192780Y1070610D01*
Y961390D01*
X3247390Y906780D01*
X3356610D01*
X3411220Y961390D01*
Y1070610D01*
X3356610Y1125220D01*
X3340847D01*
Y3843053D01*
X3340907Y3843070D01*
X3363892Y3856340D01*
X3382660Y3875108D01*
X3395930Y3898093D01*
X3402800Y3923730D01*
Y3950270D01*
X3395930Y3975907D01*
X3382660Y3998892D01*
X3363892Y4017660D01*
X3340907Y4030930D01*
X3315270Y4037800D01*
D02*
G37*
G36*
X3356610Y871220D02*
X3247390D01*
X3192780Y816610D01*
Y707717D01*
X3084503Y599440D01*
X3002280D01*
X2956560Y553720D01*
Y462280D01*
X3002280Y416560D01*
X3093720D01*
X3139440Y462280D01*
Y544503D01*
X3247717Y652780D01*
X3356610D01*
X3411220Y707390D01*
Y816610D01*
X3356610Y871220D01*
D02*
G37*
%LPD*%
D10*
X1143000Y2667000D02*
D03*
Y2921000D02*
D03*
X2921000Y1524000D02*
D03*
Y1270000D02*
D03*
X6731000Y2413000D02*
D03*
Y2667000D02*
D03*
X4572000Y1778000D02*
D03*
Y2032000D02*
D03*
X1651000Y2413000D02*
D03*
Y2667000D02*
D03*
X6604000Y1397000D02*
D03*
Y1651000D02*
D03*
X4318000Y2286000D02*
D03*
Y2540000D02*
D03*
X6096000Y1524000D02*
D03*
Y1778000D02*
D03*
X3302000Y762000D02*
D03*
Y1016000D02*
D03*
X7747000Y3175000D02*
D03*
Y3429000D02*
D03*
X5461000Y1397000D02*
D03*
Y1651000D02*
D03*
X7239000Y2921000D02*
D03*
Y3175000D02*
D03*
X4826000Y1270000D02*
D03*
Y1524000D02*
D03*
X2540000Y1778000D02*
D03*
Y2032000D02*
D03*
X635000Y2921000D02*
D03*
Y3175000D02*
D03*
D11*
X3429000Y6477000D02*
D03*
X3683000D02*
D03*
X3937000D02*
D03*
X4191000D02*
D03*
X4445000D02*
D03*
X1016000Y5715000D02*
D03*
X889000D02*
D03*
D12*
X5207000Y381000D02*
D03*
Y1143000D02*
D03*
X1143000Y1905000D02*
D03*
Y1143000D02*
D03*
X6350000D02*
D03*
Y381000D02*
D03*
X4064000Y2032000D02*
D03*
Y1270000D02*
D03*
X762000Y2286000D02*
D03*
Y1524000D02*
D03*
X5842000Y1270000D02*
D03*
Y508000D02*
D03*
X381000Y2667000D02*
D03*
Y1905000D02*
D03*
X8128000Y2794000D02*
D03*
Y2032000D02*
D03*
X7620000Y2540000D02*
D03*
Y1778000D02*
D03*
X4572000Y1016000D02*
D03*
Y254000D02*
D03*
X7112000Y2032000D02*
D03*
Y1270000D02*
D03*
X4318000Y1524000D02*
D03*
Y762000D02*
D03*
D13*
X4572000Y7366000D02*
D03*
X4318000D02*
D03*
X4064000D02*
D03*
D14*
X2794000Y6477000D02*
D03*
X2667000D02*
D03*
X2540000D02*
D03*
X2413000D02*
D03*
D15*
X6096000Y6223000D02*
D03*
Y6477000D02*
D03*
Y6731000D02*
D03*
Y6985000D02*
D03*
Y7239000D02*
D03*
D16*
X3275000Y4810989D02*
D03*
Y5010988D02*
D03*
Y5210988D02*
D03*
X3075000Y4810989D02*
D03*
Y5010988D02*
D03*
Y5210988D02*
D03*
D17*
X1801012Y4599000D02*
D03*
Y4799000D02*
D03*
X5588000Y3937000D02*
D03*
X3429000Y4236999D02*
D03*
X3175000D02*
D03*
X2921000D02*
D03*
X2667000D02*
D03*
X2413000D02*
D03*
X7620000Y5461000D02*
D03*
X7366000D02*
D03*
X7112000D02*
D03*
X6858000D02*
D03*
X6604000D02*
D03*
X6350000D02*
D03*
X6096000D02*
D03*
X5842000D02*
D03*
X5588000D02*
D03*
X7620000Y3937000D02*
D03*
X7366000D02*
D03*
X7112000D02*
D03*
X6858000D02*
D03*
X6604000D02*
D03*
X6350000D02*
D03*
X6096000D02*
D03*
X5842000D02*
D03*
X2540000Y5461000D02*
D03*
X2794000D02*
D03*
X3048000D02*
D03*
X3302000D02*
D03*
X3556000D02*
D03*
X3810000D02*
D03*
X4064000D02*
D03*
X4318000D02*
D03*
X4572000D02*
D03*
X4826000D02*
D03*
X2032000Y5207000D02*
D03*
X4826000Y3937000D02*
D03*
X4572000D02*
D03*
X4318000D02*
D03*
X4064000D02*
D03*
X3810000D02*
D03*
X3556000D02*
D03*
X3302000D02*
D03*
X3048000D02*
D03*
X2794000D02*
D03*
X2540000D02*
D03*
X2286000D02*
D03*
X2032000D02*
D03*
X5080000D02*
D03*
Y5461000D02*
D03*
X6350000Y5207000D02*
D03*
Y4953000D02*
D03*
Y4191000D02*
D03*
D18*
X5334000Y5461000D02*
D03*
X6350000Y4699000D02*
D03*
X1778000Y3937000D02*
D03*
D19*
X5334000D02*
D03*
X6350000Y4445000D02*
D03*
X2286000Y5461000D02*
D03*
D20*
X1778000D02*
D03*
D21*
X2032000D02*
D03*
D22*
X3048000Y508000D02*
D03*
X2286000D02*
D03*
X2667000Y1016000D02*
D03*
X1905000D02*
D03*
X2286000Y1524000D02*
D03*
X1524000D02*
D03*
D23*
X4396400Y7620000D02*
X6349999D01*
X4318000Y7541600D02*
X4396400Y7620000D01*
X4318000Y7366000D02*
Y7541600D01*
Y7112000D02*
Y7366000D01*
X2413000Y6477000D02*
Y6731000D01*
X2667000Y6985000D01*
X3429000D01*
X3810000Y6604000D01*
Y6350000D02*
Y6604000D01*
Y6350000D02*
X3937000Y6223000D01*
X4445000Y6421603D02*
Y6477000D01*
X4246397Y6223000D02*
X4445000Y6421603D01*
X3937000Y6223000D02*
X4246397D01*
X4318000Y6096000D02*
X5080000D01*
X4064000Y5461000D02*
Y5842000D01*
X4318000Y6096000D01*
X4191000Y6477000D02*
Y6985000D01*
X4318000Y7112000D01*
X6355951Y7614049D02*
X6604000Y7366000D01*
X6349999Y7620000D02*
X6355951Y7614049D01*
X5969000Y2667000D02*
X6731000D01*
X5080000Y3556000D02*
X5969000Y2667000D01*
X5080000Y3556000D02*
Y3937000D01*
X4826000Y3556000D02*
X6604000Y1778000D01*
X4826000Y3556000D02*
Y3937000D01*
X6604000Y1651000D02*
Y1778000D01*
X6096000D02*
Y2032000D01*
X4572000Y3556000D02*
X6096000Y2032000D01*
X4318000Y5461000D02*
Y5588000D01*
X4572000Y5842000D01*
X5207000D02*
X5588000Y6223000D01*
X4572000Y5842000D02*
X5207000D01*
X5588000Y6223000D02*
X6096000D01*
X5461000Y6477000D02*
X6096000D01*
X5080000Y6096000D02*
X5461000Y6477000D01*
X6096000Y6985000D02*
X6477000D01*
X6604000Y7112000D01*
Y7366000D01*
X4445000Y6477000D02*
Y6731000D01*
X5588000Y7239000D02*
X6096000D01*
X5207000Y6858000D02*
X5588000Y7239000D01*
X4445000Y6731000D02*
X4572000Y6858000D01*
X5207000D01*
X3683000Y5969000D02*
Y6477000D01*
Y5969000D02*
X3810000Y5842000D01*
Y5461000D02*
Y5842000D01*
X3556000Y5461000D02*
Y5842000D01*
X3429000Y5969000D02*
X3556000Y5842000D01*
X3429000Y5969000D02*
Y6477000D01*
X2667000Y5842000D02*
Y6477000D01*
X2540000Y5715000D02*
X2667000Y5842000D01*
X2540000Y5461000D02*
Y5715000D01*
X2794000Y5461000D02*
Y6477000D01*
X381000Y2667000D02*
X635000Y2921000D01*
X762000Y2286000D02*
X1143000Y2667000D01*
Y1905000D02*
X1651000Y2413000D01*
X2286000Y1524000D02*
X2540000Y1778000D01*
X2667000Y1016000D02*
X2921000Y1270000D01*
X3048000Y508000D02*
X3302000Y762000D01*
X4064000Y2032000D02*
X4318000Y2286000D01*
Y1524000D02*
X4572000Y1778000D01*
Y1016000D02*
X4826000Y1270000D01*
X5207000Y1143000D02*
X5461000Y1397000D01*
X5842000Y1270000D02*
X6096000Y1524000D01*
X6350000Y1143000D02*
X6604000Y1397000D01*
X6731000Y2413000D02*
X7112000Y2032000D01*
X7239000Y2921000D02*
X7620000Y2540000D01*
X7747000Y3175000D02*
X8128000Y2794000D01*
X5842000Y3937000D02*
X6096000Y3683000D01*
X7366000D01*
X7620000Y3429000D02*
X7747000D01*
X7366000Y3683000D02*
X7620000Y3429000D01*
X6985000D02*
X7239000Y3175000D01*
X6096000Y3429000D02*
X6985000D01*
X5588000Y3937000D02*
X6096000Y3429000D01*
X4572000Y3556000D02*
Y3937000D01*
X4318000Y3556000D02*
Y3937000D01*
Y3556000D02*
X5461000Y2413000D01*
Y1651000D02*
Y2413000D01*
X4826000Y1524000D02*
Y2794000D01*
X4064000Y3556000D02*
X4826000Y2794000D01*
X3810000Y3429000D02*
X4572000Y2667000D01*
Y2032000D02*
Y2667000D01*
X4064000Y3556000D02*
Y3937000D01*
X3810000Y3429000D02*
Y3937000D01*
X3556000Y3302000D02*
X4318000Y2540000D01*
X3556000Y3302000D02*
Y3937000D01*
X3302000Y1016000D02*
Y3937000D01*
X2921000Y1524000D02*
Y2286000D01*
X3048000Y2413000D02*
Y3937000D01*
X2921000Y2286000D02*
X3048000Y2413000D01*
X2794000Y3302000D02*
Y3937000D01*
X2540000Y2032000D02*
Y3048000D01*
X2794000Y3302000D01*
X1651000Y2667000D02*
Y3048000D01*
X2540000Y3937000D01*
X1524000Y3302000D02*
X1651000D01*
X2286000Y3937000D01*
X1143000Y2921000D02*
X1524000Y3302000D01*
X635000Y3175000D02*
X1016000Y3556000D01*
X1651000D01*
X2032000Y3937000D01*
%TF.MD5,439b5f010e5752f7d4be6e65b28c17ff*%
M02*
